<?xml version="1.0" encoding="utf-8" standalone="no"?>
<!DOCTYPE svg PUBLIC "-//W3C//DTD SVG 1.1//EN"
  "http://www.w3.org/Graphics/SVG/1.1/DTD/svg11.dtd">
<svg xmlns:xlink="http://www.w3.org/1999/xlink" width="720pt" height="432pt" viewBox="0 0 720 432" xmlns="http://www.w3.org/2000/svg" version="1.1">
 <metadata>
  <rdf:RDF xmlns:dc="http://purl.org/dc/elements/1.1/" xmlns:cc="http://creativecommons.org/ns#" xmlns:rdf="http://www.w3.org/1999/02/22-rdf-syntax-ns#">
   <cc:Work>
    <dc:type rdf:resource="http://purl.org/dc/dcmitype/StillImage"/>
    <dc:date>2022-03-25T16:49:41.252574</dc:date>
    <dc:format>image/svg+xml</dc:format>
    <dc:creator>
     <cc:Agent>
      <dc:title>Matplotlib v3.5.0, https://matplotlib.org/</dc:title>
     </cc:Agent>
    </dc:creator>
   </cc:Work>
  </rdf:RDF>
 </metadata>
 <defs>
  <style type="text/css">*{stroke-linejoin: round; stroke-linecap: butt}</style>
 </defs>
 <g id="figure_1">
  <g id="patch_1">
   <path d="M 0 432 
L 720 432 
L 720 0 
L 0 0 
z
" style="fill: #ffffff"/>
  </g>
  <g id="patch_2">
   <path d="M 154.8 421.2 
L 565.2 421.2 
L 565.2 10.8 
L 154.8 10.8 
z
" style="fill: #ffffff"/>
  </g>
  <g id="pane3d_1">
   <g id="patch_3">
    <path d="M 186.672012 287.060495 
L 393.178483 226.742134 
L 394.102949 55.521097 
L 180.304185 107.015001 
" style="fill: none; opacity: 0.5; stroke: #f2f2f2; stroke-linejoin: miter"/>
   </g>
  </g>
  <g id="pane3d_2">
   <g id="patch_4">
    <path d="M 393.178483 226.742134 
L 548.871754 312.823239 
L 555.566426 129.073875 
L 394.102949 55.521097 
" style="fill: none; opacity: 0.5; stroke: #e6e6e6; stroke-linejoin: miter"/>
   </g>
  </g>
  <g id="pane3d_3">
   <g id="patch_5">
    <path d="M 186.672012 287.060495 
L 333.437076 384.657289 
L 548.871754 312.823239 
L 393.178483 226.742134 
" style="fill: none; opacity: 0.5; stroke: #ececec; stroke-linejoin: miter"/>
   </g>
  </g>
  <g id="axis3d_1">
   <g id="line2d_1">
    <path d="M 186.672012 287.060495 
L 333.437076 384.657289 
" style="fill: none; stroke: #000000; stroke-width: 0.8; stroke-linecap: square"/>
   </g>
   <g id="text_1">
    <!-- $\tilde{x}_{1,:}$ -->
    <g transform="translate(219.456168 359.402667)rotate(-326.376628)scale(0.18 -0.18)">
     <defs>
      <path id="CMR17-7e" d="M 2400 4198 
C 2182 3987 2061 3865 1862 3865 
C 1722 3865 1626 3936 1491 4032 
C 1363 4121 1261 4198 1120 4198 
C 890 4198 730 4012 461 3718 
L 531 3648 
C 749 3859 870 3980 1069 3980 
C 1210 3980 1306 3910 1440 3814 
C 1568 3724 1670 3648 1811 3648 
C 2042 3648 2202 3833 2470 4128 
L 2400 4198 
z
" transform="scale(0.015625)"/>
      <path id="CMMI12-78" d="M 3034 2624 
C 2829 2585 2752 2431 2752 2310 
C 2752 2156 2874 2105 2963 2105 
C 3155 2105 3290 2271 3290 2444 
C 3290 2694 2982 2816 2714 2816 
C 2323 2816 2106 2451 2048 2329 
C 1901 2790 1504 2816 1389 2816 
C 736 2816 390 1993 390 1849 
C 390 1823 416 1790 461 1790 
C 512 1790 525 1829 538 1855 
C 755 2572 1184 2687 1370 2687 
C 1658 2687 1715 2438 1715 2284 
C 1715 2143 1677 1993 1600 1678 
L 1382 778 
C 1286 390 1101 64 762 64 
C 730 64 570 64 435 126 
C 666 166 717 358 717 435 
C 717 563 621 640 499 640 
C 346 640 179 505 179 300 
C 179 57 480 -64 755 -64 
C 1062 -64 1280 153 1414 415 
C 1517 64 1837 -64 2074 -64 
C 2726 -64 3072 751 3072 896 
C 3072 929 3046 955 3008 955 
C 2950 955 2944 922 2925 870 
C 2752 300 2381 64 2093 64 
C 1869 64 1747 204 1747 467 
C 1747 607 1773 712 1875 1146 
L 2099 2039 
C 2195 2425 2413 2687 2707 2687 
C 2720 2687 2899 2687 3034 2624 
z
" transform="scale(0.015625)"/>
      <path id="CMR17-31" d="M 1702 4083 
C 1702 4217 1696 4224 1606 4224 
C 1357 3927 979 3833 621 3820 
C 602 3820 570 3820 563 3808 
C 557 3795 557 3782 557 3648 
C 755 3648 1088 3686 1344 3839 
L 1344 467 
C 1344 243 1331 166 781 166 
L 589 166 
L 589 0 
C 896 6 1216 12 1523 12 
C 1830 12 2150 6 2458 0 
L 2458 166 
L 2266 166 
C 1715 166 1702 236 1702 467 
L 1702 4083 
z
" transform="scale(0.015625)"/>
      <path id="CMMI12-3b" d="M 1248 -26 
C 1248 345 1126 620 864 620 
C 659 620 557 454 557 313 
C 557 172 653 0 870 0 
C 954 0 1024 25 1082 83 
C 1094 96 1101 96 1107 96 
C 1120 96 1120 6 1120 -26 
C 1120 -233 1082 -642 710 -1051 
C 640 -1127 640 -1140 640 -1152 
C 640 -1184 672 -1216 704 -1216 
C 755 -1216 1248 -749 1248 -26 
z
" transform="scale(0.015625)"/>
      <path id="CMR17-3a" d="M 1062 2489 
C 1062 2649 934 2752 800 2752 
C 672 2752 538 2649 538 2489 
C 538 2329 666 2227 800 2227 
C 928 2227 1062 2329 1062 2489 
z
M 1062 262 
C 1062 422 934 524 800 524 
C 672 524 538 422 538 262 
C 538 102 666 0 800 0 
C 928 0 1062 102 1062 262 
z
" transform="scale(0.015625)"/>
     </defs>
     <use xlink:href="#CMR17-7e" transform="translate(7.581509 0.006461)scale(0.996264)"/>
     <use xlink:href="#CMMI12-78" transform="scale(0.996264)"/>
     <use xlink:href="#CMR17-31" transform="translate(55.43406 -14.943915)scale(0.697382)"/>
     <use xlink:href="#CMMI12-3b" transform="translate(87.417241 -14.943915)scale(0.697382)"/>
     <use xlink:href="#CMR17-3a" transform="translate(106.385174 -14.943915)scale(0.697382)"/>
    </g>
   </g>
   <g id="xtick_1">
    <g id="line2d_2">
     <path d="M 211.232958 301.690489 
L 205.924745 303.273849 
" style="fill: none; stroke: #000000; stroke-width: 0.8; stroke-linecap: square"/>
    </g>
    <g id="text_2">
     <!-- $\mathdefault{−4}$ -->
     <g transform="translate(191.482222 322.165655)scale(0.1 -0.1)">
      <defs>
       <path id="CMSY10-0" d="M 4218 1472 
C 4326 1472 4442 1472 4442 1600 
C 4442 1728 4326 1728 4218 1728 
L 755 1728 
C 646 1728 531 1728 531 1600 
C 531 1472 646 1472 755 1472 
L 4218 1472 
z
" transform="scale(0.015625)"/>
       <path id="CMR17-34" d="M 2150 4147 
C 2150 4281 2144 4288 2029 4288 
L 128 1254 
L 128 1088 
L 1779 1088 
L 1779 460 
C 1779 230 1766 166 1318 166 
L 1197 166 
L 1197 0 
C 1402 12 1747 12 1965 12 
C 2182 12 2528 12 2733 0 
L 2733 166 
L 2611 166 
C 2163 166 2150 230 2150 460 
L 2150 1088 
L 2803 1088 
L 2803 1254 
L 2150 1254 
L 2150 4147 
z
M 1798 3723 
L 1798 1254 
L 256 1254 
L 1798 3723 
z
" transform="scale(0.015625)"/>
      </defs>
      <use xlink:href="#CMSY10-0" transform="scale(0.996264)"/>
      <use xlink:href="#CMR17-34" transform="translate(77.487468 0)scale(0.996264)"/>
     </g>
    </g>
   </g>
   <g id="xtick_2">
    <g id="line2d_3">
     <path d="M 233.064867 316.184905 
L 227.716635 317.812325 
" style="fill: none; stroke: #000000; stroke-width: 0.8; stroke-linecap: square"/>
    </g>
    <g id="text_3">
     <!-- $\mathdefault{−3}$ -->
     <g transform="translate(213.173347 336.877119)scale(0.1 -0.1)">
      <defs>
       <path id="CMR17-33" d="M 1414 2176 
C 1984 2176 2234 1673 2234 1094 
C 2234 322 1824 25 1453 25 
C 1114 25 563 193 390 691 
C 422 678 454 678 486 678 
C 640 678 755 780 755 947 
C 755 1132 614 1216 486 1216 
C 378 1216 211 1164 211 927 
C 211 335 787 -128 1466 -128 
C 2176 -128 2720 432 2720 1087 
C 2720 1718 2208 2176 1600 2246 
C 2086 2347 2554 2776 2554 3353 
C 2554 3856 2048 4224 1472 4224 
C 890 4224 378 3862 378 3347 
C 378 3123 544 3084 627 3084 
C 762 3084 877 3167 877 3334 
C 877 3500 762 3584 627 3584 
C 602 3584 570 3584 544 3571 
C 730 3999 1235 4076 1459 4076 
C 1683 4076 2106 3966 2106 3347 
C 2106 3167 2080 2851 1862 2574 
C 1670 2329 1453 2316 1242 2297 
C 1210 2297 1062 2284 1037 2284 
C 992 2278 966 2272 966 2227 
C 966 2182 973 2176 1101 2176 
L 1414 2176 
z
" transform="scale(0.015625)"/>
      </defs>
      <use xlink:href="#CMSY10-0" transform="scale(0.996264)"/>
      <use xlink:href="#CMR17-33" transform="translate(77.487468 0)scale(0.996264)"/>
     </g>
    </g>
   </g>
   <g id="xtick_3">
    <g id="line2d_4">
     <path d="M 255.508097 331.085184 
L 250.11967 332.758528 
" style="fill: none; stroke: #000000; stroke-width: 0.8; stroke-linecap: square"/>
    </g>
    <g id="text_4">
     <!-- $\mathdefault{−2}$ -->
     <g transform="translate(235.473103 352.001372)scale(0.1 -0.1)">
      <defs>
       <path id="CMR17-32" d="M 2669 990 
L 2554 990 
C 2490 537 2438 460 2413 422 
C 2381 371 1920 371 1830 371 
L 602 371 
C 832 620 1280 1073 1824 1596 
C 2214 1966 2669 2400 2669 3033 
C 2669 3788 2067 4224 1395 4224 
C 691 4224 262 3603 262 3027 
C 262 2777 448 2745 525 2745 
C 589 2745 781 2783 781 3007 
C 781 3206 614 3264 525 3264 
C 486 3264 448 3257 422 3244 
C 544 3788 915 4057 1306 4057 
C 1862 4057 2227 3616 2227 3033 
C 2227 2477 1901 1998 1536 1583 
L 262 147 
L 262 0 
L 2515 0 
L 2669 990 
z
" transform="scale(0.015625)"/>
      </defs>
      <use xlink:href="#CMSY10-0" transform="scale(0.996264)"/>
      <use xlink:href="#CMR17-32" transform="translate(77.487468 0)scale(0.996264)"/>
     </g>
    </g>
   </g>
   <g id="xtick_4">
    <g id="line2d_5">
     <path d="M 278.588689 346.408613 
L 273.159928 348.129853 
" style="fill: none; stroke: #000000; stroke-width: 0.8; stroke-linecap: square"/>
    </g>
    <g id="text_5">
     <!-- $\mathdefault{−1}$ -->
     <g transform="translate(258.407473 367.556036)scale(0.1 -0.1)">
      <use xlink:href="#CMSY10-0" transform="scale(0.996264)"/>
      <use xlink:href="#CMR17-31" transform="translate(77.487468 0)scale(0.996264)"/>
     </g>
    </g>
   </g>
   <g id="xtick_5">
    <g id="line2d_6">
     <path d="M 302.334186 362.173478 
L 296.864986 363.944701 
" style="fill: none; stroke: #000000; stroke-width: 0.8; stroke-linecap: square"/>
    </g>
    <g id="text_6">
     <!-- $\mathdefault{0}$ -->
     <g transform="translate(285.878308 383.559748)scale(0.1 -0.1)">
      <defs>
       <path id="CMR17-30" d="M 2688 2038 
C 2688 2430 2682 3099 2413 3613 
C 2176 4063 1798 4224 1466 4224 
C 1158 4224 768 4082 525 3620 
C 269 3137 243 2539 243 2038 
C 243 1671 250 1112 448 623 
C 723 -39 1216 -128 1466 -128 
C 1760 -128 2208 -7 2470 604 
C 2662 1048 2688 1568 2688 2038 
z
M 1466 -26 
C 1056 -26 813 328 723 816 
C 653 1196 653 1749 653 2109 
C 653 2604 653 3015 736 3407 
C 858 3954 1216 4121 1466 4121 
C 1728 4121 2067 3947 2189 3420 
C 2272 3054 2278 2623 2278 2109 
C 2278 1691 2278 1176 2202 797 
C 2067 96 1690 -26 1466 -26 
z
" transform="scale(0.015625)"/>
      </defs>
      <use xlink:href="#CMR17-30" transform="scale(0.996264)"/>
     </g>
    </g>
   </g>
   <g id="xtick_6">
    <g id="line2d_7">
     <path d="M 326.773737 378.399133 
L 321.264039 380.222548 
" style="fill: none; stroke: #000000; stroke-width: 0.8; stroke-linecap: square"/>
    </g>
    <g id="text_7">
     <!-- $\mathdefault{1}$ -->
     <g transform="translate(310.165955 400.032239)scale(0.1 -0.1)">
      <use xlink:href="#CMR17-31" transform="scale(0.996264)"/>
     </g>
    </g>
   </g>
  </g>
  <g id="axis3d_2">
   <g id="line2d_8">
    <path d="M 548.871754 312.823239 
L 333.437076 384.657289 
" style="fill: none; stroke: #000000; stroke-width: 0.8; stroke-linecap: square"/>
   </g>
   <g id="text_8">
    <!-- $\tilde{x}_{2,:}$ -->
    <g transform="translate(453.98552 387.504958)rotate(-18.440332)scale(0.18 -0.18)">
     <use xlink:href="#CMR17-7e" transform="translate(7.581509 0.006461)scale(0.996264)"/>
     <use xlink:href="#CMMI12-78" transform="scale(0.996264)"/>
     <use xlink:href="#CMR17-32" transform="translate(55.43406 -14.943915)scale(0.697382)"/>
     <use xlink:href="#CMMI12-3b" transform="translate(87.417241 -14.943915)scale(0.697382)"/>
     <use xlink:href="#CMR17-3a" transform="translate(106.385174 -14.943915)scale(0.697382)"/>
    </g>
   </g>
   <g id="xtick_7">
    <g id="line2d_9">
     <path d="M 337.815991 381.917499 
L 341.679739 384.474053 
" style="fill: none; stroke: #000000; stroke-width: 0.8; stroke-linecap: square"/>
    </g>
    <g id="text_9">
     <!-- $\mathdefault{−3}$ -->
     <g transform="translate(341.471835 405.486867)scale(0.1 -0.1)">
      <use xlink:href="#CMSY10-0" transform="scale(0.996264)"/>
      <use xlink:href="#CMR17-33" transform="translate(77.487468 0)scale(0.996264)"/>
     </g>
    </g>
   </g>
   <g id="xtick_8">
    <g id="line2d_10">
     <path d="M 373.163482 370.144644 
L 377.066023 372.648146 
" style="fill: none; stroke: #000000; stroke-width: 0.8; stroke-linecap: square"/>
    </g>
    <g id="text_10">
     <!-- $\mathdefault{−2}$ -->
     <g transform="translate(376.847736 393.495515)scale(0.1 -0.1)">
      <use xlink:href="#CMSY10-0" transform="scale(0.996264)"/>
      <use xlink:href="#CMR17-32" transform="translate(77.487468 0)scale(0.996264)"/>
     </g>
    </g>
   </g>
   <g id="xtick_9">
    <g id="line2d_11">
     <path d="M 407.782028 358.614572 
L 411.720945 361.066656 
" style="fill: none; stroke: #000000; stroke-width: 0.8; stroke-linecap: square"/>
    </g>
    <g id="text_11">
     <!-- $\mathdefault{−1}$ -->
     <g transform="translate(411.491385 381.752374)scale(0.1 -0.1)">
      <use xlink:href="#CMSY10-0" transform="scale(0.996264)"/>
      <use xlink:href="#CMR17-31" transform="translate(77.487468 0)scale(0.996264)"/>
     </g>
    </g>
   </g>
   <g id="xtick_10">
    <g id="line2d_12">
     <path d="M 441.693949 347.31985 
L 445.666947 349.722082 
" style="fill: none; stroke: #000000; stroke-width: 0.8; stroke-linecap: square"/>
    </g>
    <g id="text_12">
     <!-- $\mathdefault{0}$ -->
     <g transform="translate(449.299658 370.249816)scale(0.1 -0.1)">
      <use xlink:href="#CMR17-30" transform="scale(0.996264)"/>
     </g>
    </g>
   </g>
   <g id="xtick_11">
    <g id="line2d_13">
     <path d="M 474.920661 336.253343 
L 478.925563 338.60723 
" style="fill: none; stroke: #000000; stroke-width: 0.8; stroke-linecap: square"/>
    </g>
    <g id="text_13">
     <!-- $\mathdefault{1}$ -->
     <g transform="translate(482.545401 358.980523)scale(0.1 -0.1)">
      <use xlink:href="#CMR17-31" transform="scale(0.996264)"/>
     </g>
    </g>
   </g>
   <g id="xtick_12">
    <g id="line2d_14">
     <path d="M 507.482723 325.408205 
L 511.517461 327.715192 
" style="fill: none; stroke: #000000; stroke-width: 0.8; stroke-linecap: square"/>
    </g>
    <g id="text_14">
     <!-- $\mathdefault{2}$ -->
     <g transform="translate(515.123708 347.93747)scale(0.1 -0.1)">
      <use xlink:href="#CMR17-32" transform="scale(0.996264)"/>
     </g>
    </g>
   </g>
   <g id="xtick_13">
    <g id="line2d_15">
     <path d="M 539.399881 314.777859 
L 543.462491 317.039333 
" style="fill: none; stroke: #000000; stroke-width: 0.8; stroke-linecap: square"/>
    </g>
    <g id="text_15">
     <!-- $\mathdefault{3}$ -->
     <g transform="translate(547.054478 337.113913)scale(0.1 -0.1)">
      <use xlink:href="#CMR17-33" transform="scale(0.996264)"/>
     </g>
    </g>
   </g>
  </g>
  <g id="axis3d_3">
   <g id="line2d_16">
    <path d="M 548.871754 312.823239 
L 555.566426 129.073875 
" style="fill: none; stroke: #000000; stroke-width: 0.8; stroke-linecap: square"/>
   </g>
   <g id="text_16">
    <!-- $\tilde{x}_{3,:}$ -->
    <g transform="translate(599.392534 237.07002)rotate(-87.913425)scale(0.18 -0.18)">
     <use xlink:href="#CMR17-7e" transform="translate(7.581509 0.006461)scale(0.996264)"/>
     <use xlink:href="#CMMI12-78" transform="scale(0.996264)"/>
     <use xlink:href="#CMR17-33" transform="translate(55.43406 -14.943915)scale(0.697382)"/>
     <use xlink:href="#CMMI12-3b" transform="translate(87.417241 -14.943915)scale(0.697382)"/>
     <use xlink:href="#CMR17-3a" transform="translate(106.385174 -14.943915)scale(0.697382)"/>
    </g>
   </g>
   <g id="xtick_14">
    <g id="line2d_17">
     <path d="M 548.627038 281.380497 
L 552.723763 283.578681 
" style="fill: none; stroke: #000000; stroke-width: 0.8; stroke-linecap: square"/>
    </g>
    <g id="text_17">
     <!-- $\mathdefault{−2}$ -->
     <g transform="translate(563.747908 290.420413)scale(0.1 -0.1)">
      <use xlink:href="#CMSY10-0" transform="scale(0.996264)"/>
      <use xlink:href="#CMR17-32" transform="translate(77.487468 0)scale(0.996264)"/>
     </g>
    </g>
   </g>
   <g id="xtick_15">
    <g id="line2d_18">
     <path d="M 549.745689 250.443623 
L 553.869902 252.588803 
" style="fill: none; stroke: #000000; stroke-width: 0.8; stroke-linecap: square"/>
    </g>
    <g id="text_18">
     <!-- $\mathdefault{−1}$ -->
     <g transform="translate(565.000432 259.432386)scale(0.1 -0.1)">
      <use xlink:href="#CMSY10-0" transform="scale(0.996264)"/>
      <use xlink:href="#CMR17-31" transform="translate(77.487468 0)scale(0.996264)"/>
     </g>
    </g>
   </g>
   <g id="xtick_16">
    <g id="line2d_19">
     <path d="M 550.878094 219.126368 
L 555.030164 221.217069 
" style="fill: none; stroke: #000000; stroke-width: 0.8; stroke-linecap: square"/>
    </g>
    <g id="text_19">
     <!-- $\mathdefault{0}$ -->
     <g transform="translate(570.14276 228.062553)scale(0.1 -0.1)">
      <use xlink:href="#CMR17-30" transform="scale(0.996264)"/>
     </g>
    </g>
   </g>
   <g id="xtick_17">
    <g id="line2d_20">
     <path d="M 552.024508 187.421673 
L 556.204811 189.456377 
" style="fill: none; stroke: #000000; stroke-width: 0.8; stroke-linecap: square"/>
    </g>
    <g id="text_20">
     <!-- $\mathdefault{1}$ -->
     <g transform="translate(571.426436 196.303816)scale(0.1 -0.1)">
      <use xlink:href="#CMR17-31" transform="scale(0.996264)"/>
     </g>
    </g>
   </g>
   <g id="xtick_18">
    <g id="line2d_21">
     <path d="M 553.185193 155.322304 
L 557.394112 157.299448 
" style="fill: none; stroke: #000000; stroke-width: 0.8; stroke-linecap: square"/>
    </g>
    <g id="text_21">
     <!-- $\mathdefault{2}$ -->
     <g transform="translate(572.726125 164.148896)scale(0.1 -0.1)">
      <use xlink:href="#CMR17-32" transform="scale(0.996264)"/>
     </g>
    </g>
   </g>
  </g>
  <g id="axes_1">
   <g id="line2d_22">
    <path d="M 431.886368 248.445223 
L 431.915108 248.473308 
" clip-path="url(#p90729d95b8)" style="fill: none; stroke: #ff0029; stroke-width: 1.5; stroke-linecap: square"/>
    <defs>
     <path id="mc161b63446" d="M 0 1 
C 0.265203 1 0.51958 0.894634 0.707107 0.707107 
C 0.894634 0.51958 1 0.265203 1 0 
C 1 -0.265203 0.894634 -0.51958 0.707107 -0.707107 
C 0.51958 -0.894634 0.265203 -1 0 -1 
C -0.265203 -1 -0.51958 -0.894634 -0.707107 -0.707107 
C -0.894634 -0.51958 -1 -0.265203 -1 0 
C -1 0.265203 -0.894634 0.51958 -0.707107 0.707107 
C -0.51958 0.894634 -0.265203 1 0 1 
z
" style="stroke: #ff0029"/>
    </defs>
    <g clip-path="url(#p90729d95b8)">
     <use xlink:href="#mc161b63446" x="431.886368" y="248.445223" style="fill: #ff0029; stroke: #ff0029"/>
     <use xlink:href="#mc161b63446" x="431.915108" y="248.473308" style="fill: #ff0029; stroke: #ff0029"/>
    </g>
   </g>
   <g id="line2d_23">
    <path d="M 431.915108 248.473308 
L 431.907641 248.466918 
" clip-path="url(#p90729d95b8)" style="fill: none; stroke: #ff3900; stroke-width: 1.5; stroke-linecap: square"/>
    <defs>
     <path id="m0880c9891a" d="M 0 1 
C 0.265203 1 0.51958 0.894634 0.707107 0.707107 
C 0.894634 0.51958 1 0.265203 1 0 
C 1 -0.265203 0.894634 -0.51958 0.707107 -0.707107 
C 0.51958 -0.894634 0.265203 -1 0 -1 
C -0.265203 -1 -0.51958 -0.894634 -0.707107 -0.707107 
C -0.894634 -0.51958 -1 -0.265203 -1 0 
C -1 0.265203 -0.894634 0.51958 -0.707107 0.707107 
C -0.51958 0.894634 -0.265203 1 0 1 
z
" style="stroke: #ff3900"/>
    </defs>
    <g clip-path="url(#p90729d95b8)">
     <use xlink:href="#m0880c9891a" x="431.915108" y="248.473308" style="fill: #ff3900; stroke: #ff3900"/>
     <use xlink:href="#m0880c9891a" x="431.907641" y="248.466918" style="fill: #ff3900; stroke: #ff3900"/>
    </g>
   </g>
   <g id="line2d_24">
    <path d="M 431.907641 248.466918 
L 431.907723 248.467017 
" clip-path="url(#p90729d95b8)" style="fill: none; stroke: #ff9c00; stroke-width: 1.5; stroke-linecap: square"/>
    <defs>
     <path id="m30067a6d42" d="M 0 1 
C 0.265203 1 0.51958 0.894634 0.707107 0.707107 
C 0.894634 0.51958 1 0.265203 1 0 
C 1 -0.265203 0.894634 -0.51958 0.707107 -0.707107 
C 0.51958 -0.894634 0.265203 -1 0 -1 
C -0.265203 -1 -0.51958 -0.894634 -0.707107 -0.707107 
C -0.894634 -0.51958 -1 -0.265203 -1 0 
C -1 0.265203 -0.894634 0.51958 -0.707107 0.707107 
C -0.51958 0.894634 -0.265203 1 0 1 
z
" style="stroke: #ff9c00"/>
    </defs>
    <g clip-path="url(#p90729d95b8)">
     <use xlink:href="#m30067a6d42" x="431.907641" y="248.466918" style="fill: #ff9c00; stroke: #ff9c00"/>
     <use xlink:href="#m30067a6d42" x="431.907723" y="248.467017" style="fill: #ff9c00; stroke: #ff9c00"/>
    </g>
   </g>
   <g id="line2d_25">
    <path d="M 431.907723 248.467017 
L 431.908587 248.467664 
" clip-path="url(#p90729d95b8)" style="fill: none; stroke: #fffe00; stroke-width: 1.5; stroke-linecap: square"/>
    <defs>
     <path id="m49d19aed6e" d="M 0 1 
C 0.265203 1 0.51958 0.894634 0.707107 0.707107 
C 0.894634 0.51958 1 0.265203 1 0 
C 1 -0.265203 0.894634 -0.51958 0.707107 -0.707107 
C 0.51958 -0.894634 0.265203 -1 0 -1 
C -0.265203 -1 -0.51958 -0.894634 -0.707107 -0.707107 
C -0.894634 -0.51958 -1 -0.265203 -1 0 
C -1 0.265203 -0.894634 0.51958 -0.707107 0.707107 
C -0.51958 0.894634 -0.265203 1 0 1 
z
" style="stroke: #fffe00"/>
    </defs>
    <g clip-path="url(#p90729d95b8)">
     <use xlink:href="#m49d19aed6e" x="431.907723" y="248.467017" style="fill: #fffe00; stroke: #fffe00"/>
     <use xlink:href="#m49d19aed6e" x="431.908587" y="248.467664" style="fill: #fffe00; stroke: #fffe00"/>
    </g>
   </g>
   <g id="line2d_26">
    <path d="M 431.908587 248.467664 
L 431.888297 248.451512 
" clip-path="url(#p90729d95b8)" style="fill: none; stroke: #9eff00; stroke-width: 1.5; stroke-linecap: square"/>
    <defs>
     <path id="m47aeae57e6" d="M 0 1 
C 0.265203 1 0.51958 0.894634 0.707107 0.707107 
C 0.894634 0.51958 1 0.265203 1 0 
C 1 -0.265203 0.894634 -0.51958 0.707107 -0.707107 
C 0.51958 -0.894634 0.265203 -1 0 -1 
C -0.265203 -1 -0.51958 -0.894634 -0.707107 -0.707107 
C -0.894634 -0.51958 -1 -0.265203 -1 0 
C -1 0.265203 -0.894634 0.51958 -0.707107 0.707107 
C -0.51958 0.894634 -0.265203 1 0 1 
z
" style="stroke: #9eff00"/>
    </defs>
    <g clip-path="url(#p90729d95b8)">
     <use xlink:href="#m47aeae57e6" x="431.908587" y="248.467664" style="fill: #9eff00; stroke: #9eff00"/>
     <use xlink:href="#m47aeae57e6" x="431.888297" y="248.451512" style="fill: #9eff00; stroke: #9eff00"/>
    </g>
   </g>
   <g id="line2d_27">
    <path d="M 431.888297 248.451512 
L 431.887837 248.481751 
" clip-path="url(#p90729d95b8)" style="fill: none; stroke: #3bff00; stroke-width: 1.5; stroke-linecap: square"/>
    <defs>
     <path id="m47cd2195cb" d="M 0 1 
C 0.265203 1 0.51958 0.894634 0.707107 0.707107 
C 0.894634 0.51958 1 0.265203 1 0 
C 1 -0.265203 0.894634 -0.51958 0.707107 -0.707107 
C 0.51958 -0.894634 0.265203 -1 0 -1 
C -0.265203 -1 -0.51958 -0.894634 -0.707107 -0.707107 
C -0.894634 -0.51958 -1 -0.265203 -1 0 
C -1 0.265203 -0.894634 0.51958 -0.707107 0.707107 
C -0.51958 0.894634 -0.265203 1 0 1 
z
" style="stroke: #3bff00"/>
    </defs>
    <g clip-path="url(#p90729d95b8)">
     <use xlink:href="#m47cd2195cb" x="431.888297" y="248.451512" style="fill: #3bff00; stroke: #3bff00"/>
     <use xlink:href="#m47cd2195cb" x="431.887837" y="248.481751" style="fill: #3bff00; stroke: #3bff00"/>
    </g>
   </g>
   <g id="line2d_28">
    <path d="M 431.887837 248.481751 
L 433.136071 233.901152 
" clip-path="url(#p90729d95b8)" style="fill: none; stroke: #00ff27; stroke-width: 1.5; stroke-linecap: square"/>
    <defs>
     <path id="mfe81a2d0c9" d="M 0 1 
C 0.265203 1 0.51958 0.894634 0.707107 0.707107 
C 0.894634 0.51958 1 0.265203 1 0 
C 1 -0.265203 0.894634 -0.51958 0.707107 -0.707107 
C 0.51958 -0.894634 0.265203 -1 0 -1 
C -0.265203 -1 -0.51958 -0.894634 -0.707107 -0.707107 
C -0.894634 -0.51958 -1 -0.265203 -1 0 
C -1 0.265203 -0.894634 0.51958 -0.707107 0.707107 
C -0.51958 0.894634 -0.265203 1 0 1 
z
" style="stroke: #00ff27"/>
    </defs>
    <g clip-path="url(#p90729d95b8)">
     <use xlink:href="#mfe81a2d0c9" x="431.887837" y="248.481751" style="fill: #00ff27; stroke: #00ff27"/>
     <use xlink:href="#mfe81a2d0c9" x="433.136071" y="233.901152" style="fill: #00ff27; stroke: #00ff27"/>
    </g>
   </g>
   <g id="line2d_29">
    <path d="M 433.136071 233.901152 
L 413.572659 174.908875 
" clip-path="url(#p90729d95b8)" style="fill: none; stroke: #00ff89; stroke-width: 1.5; stroke-linecap: square"/>
    <defs>
     <path id="m1435656e7f" d="M 0 1 
C 0.265203 1 0.51958 0.894634 0.707107 0.707107 
C 0.894634 0.51958 1 0.265203 1 0 
C 1 -0.265203 0.894634 -0.51958 0.707107 -0.707107 
C 0.51958 -0.894634 0.265203 -1 0 -1 
C -0.265203 -1 -0.51958 -0.894634 -0.707107 -0.707107 
C -0.894634 -0.51958 -1 -0.265203 -1 0 
C -1 0.265203 -0.894634 0.51958 -0.707107 0.707107 
C -0.51958 0.894634 -0.265203 1 0 1 
z
" style="stroke: #00ff89"/>
    </defs>
    <g clip-path="url(#p90729d95b8)">
     <use xlink:href="#m1435656e7f" x="433.136071" y="233.901152" style="fill: #00ff89; stroke: #00ff89"/>
     <use xlink:href="#m1435656e7f" x="413.572659" y="174.908875" style="fill: #00ff89; stroke: #00ff89"/>
    </g>
   </g>
   <g id="line2d_30">
    <path d="M 413.572659 174.908875 
L 240.332162 213.305894 
" clip-path="url(#p90729d95b8)" style="fill: none; stroke: #00ffeb; stroke-width: 1.5; stroke-linecap: square"/>
    <defs>
     <path id="ma08a36e310" d="M 0 1 
C 0.265203 1 0.51958 0.894634 0.707107 0.707107 
C 0.894634 0.51958 1 0.265203 1 0 
C 1 -0.265203 0.894634 -0.51958 0.707107 -0.707107 
C 0.51958 -0.894634 0.265203 -1 0 -1 
C -0.265203 -1 -0.51958 -0.894634 -0.707107 -0.707107 
C -0.894634 -0.51958 -1 -0.265203 -1 0 
C -1 0.265203 -0.894634 0.51958 -0.707107 0.707107 
C -0.51958 0.894634 -0.265203 1 0 1 
z
" style="stroke: #00ffeb"/>
    </defs>
    <g clip-path="url(#p90729d95b8)">
     <use xlink:href="#ma08a36e310" x="413.572659" y="174.908875" style="fill: #00ffeb; stroke: #00ffeb"/>
     <use xlink:href="#ma08a36e310" x="240.332162" y="213.305894" style="fill: #00ffeb; stroke: #00ffeb"/>
    </g>
   </g>
   <g id="line2d_31">
    <path d="M 240.332162 213.305894 
L 368.998834 216.284983 
" clip-path="url(#p90729d95b8)" style="fill: none; stroke: #00b0ff; stroke-width: 1.5; stroke-linecap: square"/>
    <defs>
     <path id="mbbc135ded9" d="M 0 1 
C 0.265203 1 0.51958 0.894634 0.707107 0.707107 
C 0.894634 0.51958 1 0.265203 1 0 
C 1 -0.265203 0.894634 -0.51958 0.707107 -0.707107 
C 0.51958 -0.894634 0.265203 -1 0 -1 
C -0.265203 -1 -0.51958 -0.894634 -0.707107 -0.707107 
C -0.894634 -0.51958 -1 -0.265203 -1 0 
C -1 0.265203 -0.894634 0.51958 -0.707107 0.707107 
C -0.51958 0.894634 -0.265203 1 0 1 
z
" style="stroke: #00b0ff"/>
    </defs>
    <g clip-path="url(#p90729d95b8)">
     <use xlink:href="#mbbc135ded9" x="240.332162" y="213.305894" style="fill: #00b0ff; stroke: #00b0ff"/>
     <use xlink:href="#mbbc135ded9" x="368.998834" y="216.284983" style="fill: #00b0ff; stroke: #00b0ff"/>
    </g>
   </g>
   <g id="line2d_32">
    <path d="M 368.998834 216.284983 
L 409.841688 211.630157 
" clip-path="url(#p90729d95b8)" style="fill: none; stroke: #004dff; stroke-width: 1.5; stroke-linecap: square"/>
    <defs>
     <path id="mfa38aa8724" d="M 0 1 
C 0.265203 1 0.51958 0.894634 0.707107 0.707107 
C 0.894634 0.51958 1 0.265203 1 0 
C 1 -0.265203 0.894634 -0.51958 0.707107 -0.707107 
C 0.51958 -0.894634 0.265203 -1 0 -1 
C -0.265203 -1 -0.51958 -0.894634 -0.707107 -0.707107 
C -0.894634 -0.51958 -1 -0.265203 -1 0 
C -1 0.265203 -0.894634 0.51958 -0.707107 0.707107 
C -0.51958 0.894634 -0.265203 1 0 1 
z
" style="stroke: #004dff"/>
    </defs>
    <g clip-path="url(#p90729d95b8)">
     <use xlink:href="#mfa38aa8724" x="368.998834" y="216.284983" style="fill: #004dff; stroke: #004dff"/>
     <use xlink:href="#mfa38aa8724" x="409.841688" y="211.630157" style="fill: #004dff; stroke: #004dff"/>
    </g>
   </g>
   <g id="line2d_33">
    <path d="M 409.841688 211.630157 
L 399.867297 216.164742 
" clip-path="url(#p90729d95b8)" style="fill: none; stroke: #1600ff; stroke-width: 1.5; stroke-linecap: square"/>
    <defs>
     <path id="md445173231" d="M 0 1 
C 0.265203 1 0.51958 0.894634 0.707107 0.707107 
C 0.894634 0.51958 1 0.265203 1 0 
C 1 -0.265203 0.894634 -0.51958 0.707107 -0.707107 
C 0.51958 -0.894634 0.265203 -1 0 -1 
C -0.265203 -1 -0.51958 -0.894634 -0.707107 -0.707107 
C -0.894634 -0.51958 -1 -0.265203 -1 0 
C -1 0.265203 -0.894634 0.51958 -0.707107 0.707107 
C -0.51958 0.894634 -0.265203 1 0 1 
z
" style="stroke: #1600ff"/>
    </defs>
    <g clip-path="url(#p90729d95b8)">
     <use xlink:href="#md445173231" x="409.841688" y="211.630157" style="fill: #1600ff; stroke: #1600ff"/>
     <use xlink:href="#md445173231" x="399.867297" y="216.164742" style="fill: #1600ff; stroke: #1600ff"/>
    </g>
   </g>
   <g id="line2d_34">
    <path d="M 399.867297 216.164742 
L 430.629462 248.633126 
" clip-path="url(#p90729d95b8)" style="fill: none; stroke: #7900ff; stroke-width: 1.5; stroke-linecap: square"/>
    <defs>
     <path id="mee25e334bc" d="M 0 1 
C 0.265203 1 0.51958 0.894634 0.707107 0.707107 
C 0.894634 0.51958 1 0.265203 1 0 
C 1 -0.265203 0.894634 -0.51958 0.707107 -0.707107 
C 0.51958 -0.894634 0.265203 -1 0 -1 
C -0.265203 -1 -0.51958 -0.894634 -0.707107 -0.707107 
C -0.894634 -0.51958 -1 -0.265203 -1 0 
C -1 0.265203 -0.894634 0.51958 -0.707107 0.707107 
C -0.51958 0.894634 -0.265203 1 0 1 
z
" style="stroke: #7900ff"/>
    </defs>
    <g clip-path="url(#p90729d95b8)">
     <use xlink:href="#mee25e334bc" x="399.867297" y="216.164742" style="fill: #7900ff; stroke: #7900ff"/>
     <use xlink:href="#mee25e334bc" x="430.629462" y="248.633126" style="fill: #7900ff; stroke: #7900ff"/>
    </g>
   </g>
   <g id="line2d_35">
    <path d="M 430.629462 248.633126 
L 432.75692 250.374202 
" clip-path="url(#p90729d95b8)" style="fill: none; stroke: #dc00ff; stroke-width: 1.5; stroke-linecap: square"/>
    <defs>
     <path id="md7aaf48558" d="M 0 1 
C 0.265203 1 0.51958 0.894634 0.707107 0.707107 
C 0.894634 0.51958 1 0.265203 1 0 
C 1 -0.265203 0.894634 -0.51958 0.707107 -0.707107 
C 0.51958 -0.894634 0.265203 -1 0 -1 
C -0.265203 -1 -0.51958 -0.894634 -0.707107 -0.707107 
C -0.894634 -0.51958 -1 -0.265203 -1 0 
C -1 0.265203 -0.894634 0.51958 -0.707107 0.707107 
C -0.51958 0.894634 -0.265203 1 0 1 
z
" style="stroke: #dc00ff"/>
    </defs>
    <g clip-path="url(#p90729d95b8)">
     <use xlink:href="#md7aaf48558" x="430.629462" y="248.633126" style="fill: #dc00ff; stroke: #dc00ff"/>
     <use xlink:href="#md7aaf48558" x="432.75692" y="250.374202" style="fill: #dc00ff; stroke: #dc00ff"/>
    </g>
   </g>
   <g id="line2d_36">
    <path d="M 209.088438 285.178803 
" clip-path="url(#p90729d95b8)" style="fill: none; stroke: #ffffff; stroke-width: 1.5; stroke-linecap: square"/>
   </g>
   <g id="line2d_37">
    <path d="M 203.736664 112.117079 
" clip-path="url(#p90729d95b8)" style="fill: none; stroke: #ffffff; stroke-width: 1.5; stroke-linecap: square"/>
   </g>
   <g id="line2d_38">
    <path d="M 389.893379 232.128023 
" clip-path="url(#p90729d95b8)" style="fill: none; stroke: #ffffff; stroke-width: 1.5; stroke-linecap: square"/>
   </g>
   <g id="line2d_39">
    <path d="M 390.682061 66.521265 
" clip-path="url(#p90729d95b8)" style="fill: none; stroke: #ffffff; stroke-width: 1.5; stroke-linecap: square"/>
   </g>
   <g id="line2d_40">
    <path d="M 337.788918 369.39455 
" clip-path="url(#p90729d95b8)" style="fill: none; stroke: #ffffff; stroke-width: 1.5; stroke-linecap: square"/>
   </g>
   <g id="line2d_41">
    <path d="M 336.759206 184.828235 
" clip-path="url(#p90729d95b8)" style="fill: none; stroke: #ffffff; stroke-width: 1.5; stroke-linecap: square"/>
   </g>
   <g id="line2d_42">
    <path d="M 525.39884 307.602066 
" clip-path="url(#p90729d95b8)" style="fill: none; stroke: #ffffff; stroke-width: 1.5; stroke-linecap: square"/>
   </g>
   <g id="line2d_43">
    <path d="M 530.98957 131.437499 
" clip-path="url(#p90729d95b8)" style="fill: none; stroke: #ffffff; stroke-width: 1.5; stroke-linecap: square"/>
   </g>
  </g>
 </g>
 <defs>
  <clipPath id="p90729d95b8">
   <rect x="154.8" y="10.8" width="410.4" height="410.4"/>
  </clipPath>
 </defs>
</svg>
