<?xml version="1.0" encoding="utf-8" standalone="no"?>
<!DOCTYPE svg PUBLIC "-//W3C//DTD SVG 1.1//EN"
  "http://www.w3.org/Graphics/SVG/1.1/DTD/svg11.dtd">
<svg xmlns:xlink="http://www.w3.org/1999/xlink" width="720pt" height="432pt" viewBox="0 0 720 432" xmlns="http://www.w3.org/2000/svg" version="1.1">
 <metadata>
  <rdf:RDF xmlns:dc="http://purl.org/dc/elements/1.1/" xmlns:cc="http://creativecommons.org/ns#" xmlns:rdf="http://www.w3.org/1999/02/22-rdf-syntax-ns#">
   <cc:Work>
    <dc:type rdf:resource="http://purl.org/dc/dcmitype/StillImage"/>
    <dc:date>2022-03-16T23:54:22.626957</dc:date>
    <dc:format>image/svg+xml</dc:format>
    <dc:creator>
     <cc:Agent>
      <dc:title>Matplotlib v3.5.0, https://matplotlib.org/</dc:title>
     </cc:Agent>
    </dc:creator>
   </cc:Work>
  </rdf:RDF>
 </metadata>
 <defs>
  <style type="text/css">*{stroke-linejoin: round; stroke-linecap: butt}</style>
 </defs>
 <g id="figure_1">
  <g id="patch_1">
   <path d="M 0 432 
L 720 432 
L 720 0 
L 0 0 
z
" style="fill: #ffffff"/>
  </g>
  <g id="patch_2">
   <path d="M 154.8 421.2 
L 565.2 421.2 
L 565.2 10.8 
L 154.8 10.8 
z
" style="fill: #ffffff"/>
  </g>
  <g id="pane3d_1">
   <g id="patch_3">
    <path d="M 185.78803 320.008512 
L 321.315513 206.406689 
L 319.431551 42.572551 
L 177.41838 146.207295 
" style="fill: none; opacity: 0.5; stroke: #f2f2f2; stroke-linejoin: miter"/>
   </g>
  </g>
  <g id="pane3d_2">
   <g id="patch_4">
    <path d="M 321.315513 206.406689 
L 538.788767 269.617578 
L 546.549621 100.140361 
L 319.431551 42.572551 
" style="fill: none; opacity: 0.5; stroke: #e6e6e6; stroke-linejoin: miter"/>
   </g>
  </g>
  <g id="pane3d_3">
   <g id="patch_5">
    <path d="M 185.78803 320.008512 
L 416.320301 395.300351 
L 538.788767 269.617578 
L 321.315513 206.406689 
" style="fill: none; opacity: 0.5; stroke: #ececec; stroke-linejoin: miter"/>
   </g>
  </g>
  <g id="axis3d_1">
   <g id="line2d_1">
    <path d="M 185.78803 320.008512 
L 416.320301 395.300351 
" style="fill: none; stroke: #000000; stroke-width: 0.8; stroke-linecap: square"/>
   </g>
   <g id="text_1">
    <!-- $\tilde{x}_{1,:}$ -->
    <g transform="translate(269.832562 391.421509)rotate(-341.912962)scale(0.18 -0.18)">
     <defs>
      <path id="CMR17-7e" d="M 2400 4198 
C 2182 3987 2061 3865 1862 3865 
C 1722 3865 1626 3936 1491 4032 
C 1363 4121 1261 4198 1120 4198 
C 890 4198 730 4012 461 3718 
L 531 3648 
C 749 3859 870 3980 1069 3980 
C 1210 3980 1306 3910 1440 3814 
C 1568 3724 1670 3648 1811 3648 
C 2042 3648 2202 3833 2470 4128 
L 2400 4198 
z
" transform="scale(0.015625)"/>
      <path id="CMMI12-78" d="M 3034 2624 
C 2829 2585 2752 2431 2752 2310 
C 2752 2156 2874 2105 2963 2105 
C 3155 2105 3290 2271 3290 2444 
C 3290 2694 2982 2816 2714 2816 
C 2323 2816 2106 2451 2048 2329 
C 1901 2790 1504 2816 1389 2816 
C 736 2816 390 1993 390 1849 
C 390 1823 416 1790 461 1790 
C 512 1790 525 1829 538 1855 
C 755 2572 1184 2687 1370 2687 
C 1658 2687 1715 2438 1715 2284 
C 1715 2143 1677 1993 1600 1678 
L 1382 778 
C 1286 390 1101 64 762 64 
C 730 64 570 64 435 126 
C 666 166 717 358 717 435 
C 717 563 621 640 499 640 
C 346 640 179 505 179 300 
C 179 57 480 -64 755 -64 
C 1062 -64 1280 153 1414 415 
C 1517 64 1837 -64 2074 -64 
C 2726 -64 3072 751 3072 896 
C 3072 929 3046 955 3008 955 
C 2950 955 2944 922 2925 870 
C 2752 300 2381 64 2093 64 
C 1869 64 1747 204 1747 467 
C 1747 607 1773 712 1875 1146 
L 2099 2039 
C 2195 2425 2413 2687 2707 2687 
C 2720 2687 2899 2687 3034 2624 
z
" transform="scale(0.015625)"/>
      <path id="CMR17-31" d="M 1702 4083 
C 1702 4217 1696 4224 1606 4224 
C 1357 3927 979 3833 621 3820 
C 602 3820 570 3820 563 3808 
C 557 3795 557 3782 557 3648 
C 755 3648 1088 3686 1344 3839 
L 1344 467 
C 1344 243 1331 166 781 166 
L 589 166 
L 589 0 
C 896 6 1216 12 1523 12 
C 1830 12 2150 6 2458 0 
L 2458 166 
L 2266 166 
C 1715 166 1702 236 1702 467 
L 1702 4083 
z
" transform="scale(0.015625)"/>
      <path id="CMMI12-3b" d="M 1248 -26 
C 1248 345 1126 620 864 620 
C 659 620 557 454 557 313 
C 557 172 653 0 870 0 
C 954 0 1024 25 1082 83 
C 1094 96 1101 96 1107 96 
C 1120 96 1120 6 1120 -26 
C 1120 -233 1082 -642 710 -1051 
C 640 -1127 640 -1140 640 -1152 
C 640 -1184 672 -1216 704 -1216 
C 755 -1216 1248 -749 1248 -26 
z
" transform="scale(0.015625)"/>
      <path id="CMR17-3a" d="M 1062 2489 
C 1062 2649 934 2752 800 2752 
C 672 2752 538 2649 538 2489 
C 538 2329 666 2227 800 2227 
C 928 2227 1062 2329 1062 2489 
z
M 1062 262 
C 1062 422 934 524 800 524 
C 672 524 538 422 538 262 
C 538 102 666 0 800 0 
C 928 0 1062 102 1062 262 
z
" transform="scale(0.015625)"/>
     </defs>
     <use xlink:href="#CMR17-7e" transform="translate(7.581509 0.006461)scale(0.996264)"/>
     <use xlink:href="#CMMI12-78" transform="scale(0.996264)"/>
     <use xlink:href="#CMR17-31" transform="translate(55.43406 -14.943915)scale(0.697382)"/>
     <use xlink:href="#CMMI12-3b" transform="translate(87.417241 -14.943915)scale(0.697382)"/>
     <use xlink:href="#CMR17-3a" transform="translate(106.385174 -14.943915)scale(0.697382)"/>
    </g>
   </g>
   <g id="xtick_1">
    <g id="line2d_2">
     <path d="M 216.732318 328.730995 
L 213.226983 331.743878 
" style="fill: none; stroke: #000000; stroke-width: 0.8; stroke-linecap: square"/>
    </g>
    <g id="text_2">
     <!-- $\mathdefault{−20}$ -->
     <g transform="translate(199.200919 352.413275)scale(0.1 -0.1)">
      <defs>
       <path id="CMSY10-0" d="M 4218 1472 
C 4326 1472 4442 1472 4442 1600 
C 4442 1728 4326 1728 4218 1728 
L 755 1728 
C 646 1728 531 1728 531 1600 
C 531 1472 646 1472 755 1472 
L 4218 1472 
z
" transform="scale(0.015625)"/>
       <path id="CMR17-32" d="M 2669 990 
L 2554 990 
C 2490 537 2438 460 2413 422 
C 2381 371 1920 371 1830 371 
L 602 371 
C 832 620 1280 1073 1824 1596 
C 2214 1966 2669 2400 2669 3033 
C 2669 3788 2067 4224 1395 4224 
C 691 4224 262 3603 262 3027 
C 262 2777 448 2745 525 2745 
C 589 2745 781 2783 781 3007 
C 781 3206 614 3264 525 3264 
C 486 3264 448 3257 422 3244 
C 544 3788 915 4057 1306 4057 
C 1862 4057 2227 3616 2227 3033 
C 2227 2477 1901 1998 1536 1583 
L 262 147 
L 262 0 
L 2515 0 
L 2669 990 
z
" transform="scale(0.015625)"/>
       <path id="CMR17-30" d="M 2688 2038 
C 2688 2430 2682 3099 2413 3613 
C 2176 4063 1798 4224 1466 4224 
C 1158 4224 768 4082 525 3620 
C 269 3137 243 2539 243 2038 
C 243 1671 250 1112 448 623 
C 723 -39 1216 -128 1466 -128 
C 1760 -128 2208 -7 2470 604 
C 2662 1048 2688 1568 2688 2038 
z
M 1466 -26 
C 1056 -26 813 328 723 816 
C 653 1196 653 1749 653 2109 
C 653 2604 653 3015 736 3407 
C 858 3954 1216 4121 1466 4121 
C 1728 4121 2067 3947 2189 3420 
C 2272 3054 2278 2623 2278 2109 
C 2278 1691 2278 1176 2202 797 
C 2067 96 1690 -26 1466 -26 
z
" transform="scale(0.015625)"/>
      </defs>
      <use xlink:href="#CMSY10-0" transform="scale(0.996264)"/>
      <use xlink:href="#CMR17-32" transform="translate(77.487468 0)scale(0.996264)"/>
      <use xlink:href="#CMR17-30" transform="translate(123.177945 0)scale(0.996264)"/>
     </g>
    </g>
   </g>
   <g id="xtick_2">
    <g id="line2d_3">
     <path d="M 263.618394 344.028855 
L 260.176723 347.108059 
" style="fill: none; stroke: #000000; stroke-width: 0.8; stroke-linecap: square"/>
    </g>
    <g id="text_3">
     <!-- $\mathdefault{−10}$ -->
     <g transform="translate(246.140416 367.943497)scale(0.1 -0.1)">
      <use xlink:href="#CMSY10-0" transform="scale(0.996264)"/>
      <use xlink:href="#CMR17-31" transform="translate(77.487468 0)scale(0.996264)"/>
      <use xlink:href="#CMR17-30" transform="translate(123.177945 0)scale(0.996264)"/>
     </g>
    </g>
   </g>
   <g id="xtick_3">
    <g id="line2d_4">
     <path d="M 311.541148 359.664959 
L 308.166833 362.812698 
" style="fill: none; stroke: #000000; stroke-width: 0.8; stroke-linecap: square"/>
    </g>
    <g id="text_4">
     <!-- $\mathdefault{0}$ -->
     <g transform="translate(300.486137 383.818202)scale(0.1 -0.1)">
      <use xlink:href="#CMR17-30" transform="scale(0.996264)"/>
     </g>
    </g>
   </g>
   <g id="xtick_4">
    <g id="line2d_5">
     <path d="M 360.535346 375.650652 
L 357.232282 378.869239 
" style="fill: none; stroke: #000000; stroke-width: 0.8; stroke-linecap: square"/>
    </g>
    <g id="text_5">
     <!-- $\mathdefault{10}$ -->
     <g transform="translate(347.052366 400.04898)scale(0.1 -0.1)">
      <use xlink:href="#CMR17-31" transform="scale(0.996264)"/>
      <use xlink:href="#CMR17-30" transform="translate(45.690477 0)scale(0.996264)"/>
     </g>
    </g>
   </g>
   <g id="xtick_5">
    <g id="line2d_6">
     <path d="M 410.637327 391.997788 
L 407.409622 395.289644 
" style="fill: none; stroke: #000000; stroke-width: 0.8; stroke-linecap: square"/>
    </g>
    <g id="text_6">
     <!-- $\mathdefault{20}$ -->
     <g transform="translate(397.222098 416.647945)scale(0.1 -0.1)">
      <use xlink:href="#CMR17-32" transform="scale(0.996264)"/>
      <use xlink:href="#CMR17-30" transform="translate(45.690477 0)scale(0.996264)"/>
     </g>
    </g>
   </g>
  </g>
  <g id="axis3d_2">
   <g id="line2d_7">
    <path d="M 538.788767 269.617578 
L 416.320301 395.300351 
" style="fill: none; stroke: #000000; stroke-width: 0.8; stroke-linecap: square"/>
   </g>
   <g id="text_7">
    <!-- $\tilde{x}_{2,:}$ -->
    <g transform="translate(501.621649 368.177913)rotate(-45.742112)scale(0.18 -0.18)">
     <use xlink:href="#CMR17-7e" transform="translate(7.581509 0.006461)scale(0.996264)"/>
     <use xlink:href="#CMMI12-78" transform="scale(0.996264)"/>
     <use xlink:href="#CMR17-32" transform="translate(55.43406 -14.943915)scale(0.697382)"/>
     <use xlink:href="#CMMI12-3b" transform="translate(87.417241 -14.943915)scale(0.697382)"/>
     <use xlink:href="#CMR17-3a" transform="translate(106.385174 -14.943915)scale(0.697382)"/>
    </g>
   </g>
   <g id="xtick_6">
    <g id="line2d_8">
     <path d="M 425.283739 383.492738 
L 431.088185 385.369448 
" style="fill: none; stroke: #000000; stroke-width: 0.8; stroke-linecap: square"/>
    </g>
    <g id="text_8">
     <!-- $\mathdefault{−10}$ -->
     <g transform="translate(431.21806 404.432861)scale(0.1 -0.1)">
      <use xlink:href="#CMSY10-0" transform="scale(0.996264)"/>
      <use xlink:href="#CMR17-31" transform="translate(77.487468 0)scale(0.996264)"/>
      <use xlink:href="#CMR17-30" transform="translate(123.177945 0)scale(0.996264)"/>
     </g>
    </g>
   </g>
   <g id="xtick_7">
    <g id="line2d_9">
     <path d="M 452.3839 355.731125 
L 458.11168 357.536802 
" style="fill: none; stroke: #000000; stroke-width: 0.8; stroke-linecap: square"/>
    </g>
    <g id="text_9">
     <!-- $\mathdefault{0}$ -->
     <g transform="translate(464.422343 376.381018)scale(0.1 -0.1)">
      <use xlink:href="#CMR17-30" transform="scale(0.996264)"/>
     </g>
    </g>
   </g>
   <g id="xtick_8">
    <g id="line2d_10">
     <path d="M 478.468464 329.009897 
L 484.121194 330.748497 
" style="fill: none; stroke: #000000; stroke-width: 0.8; stroke-linecap: square"/>
    </g>
    <g id="text_10">
     <!-- $\mathdefault{10}$ -->
     <g transform="translate(487.764308 349.381263)scale(0.1 -0.1)">
      <use xlink:href="#CMR17-31" transform="scale(0.996264)"/>
      <use xlink:href="#CMR17-30" transform="translate(45.690477 0)scale(0.996264)"/>
     </g>
    </g>
   </g>
   <g id="xtick_9">
    <g id="line2d_11">
     <path d="M 503.593473 303.271645 
L 509.172746 304.946839 
" style="fill: none; stroke: #000000; stroke-width: 0.8; stroke-linecap: square"/>
    </g>
    <g id="text_11">
     <!-- $\mathdefault{20}$ -->
     <g transform="translate(512.64592 323.375497)scale(0.1 -0.1)">
      <use xlink:href="#CMR17-32" transform="scale(0.996264)"/>
      <use xlink:href="#CMR17-30" transform="translate(45.690477 0)scale(0.996264)"/>
     </g>
    </g>
   </g>
   <g id="xtick_10">
    <g id="line2d_12">
     <path d="M 527.810917 278.463109 
L 533.318303 280.078303 
" style="fill: none; stroke: #000000; stroke-width: 0.8; stroke-linecap: square"/>
    </g>
    <g id="text_12">
     <!-- $\mathdefault{30}$ -->
     <g transform="translate(536.628077 298.309823)scale(0.1 -0.1)">
      <defs>
       <path id="CMR17-33" d="M 1414 2176 
C 1984 2176 2234 1673 2234 1094 
C 2234 322 1824 25 1453 25 
C 1114 25 563 193 390 691 
C 422 678 454 678 486 678 
C 640 678 755 780 755 947 
C 755 1132 614 1216 486 1216 
C 378 1216 211 1164 211 927 
C 211 335 787 -128 1466 -128 
C 2176 -128 2720 432 2720 1087 
C 2720 1718 2208 2176 1600 2246 
C 2086 2347 2554 2776 2554 3353 
C 2554 3856 2048 4224 1472 4224 
C 890 4224 378 3862 378 3347 
C 378 3123 544 3084 627 3084 
C 762 3084 877 3167 877 3334 
C 877 3500 762 3584 627 3584 
C 602 3584 570 3584 544 3571 
C 730 3999 1235 4076 1459 4076 
C 1683 4076 2106 3966 2106 3347 
C 2106 3167 2080 2851 1862 2574 
C 1670 2329 1453 2316 1242 2297 
C 1210 2297 1062 2284 1037 2284 
C 992 2278 966 2272 966 2227 
C 966 2182 973 2176 1101 2176 
L 1414 2176 
z
" transform="scale(0.015625)"/>
      </defs>
      <use xlink:href="#CMR17-33" transform="scale(0.996264)"/>
      <use xlink:href="#CMR17-30" transform="translate(45.690477 0)scale(0.996264)"/>
     </g>
    </g>
   </g>
  </g>
  <g id="axis3d_3">
   <g id="line2d_13">
    <path d="M 538.788767 269.617578 
L 546.549621 100.140361 
" style="fill: none; stroke: #000000; stroke-width: 0.8; stroke-linecap: square"/>
   </g>
   <g id="text_13">
    <!-- $\tilde{x}_{3,:}$ -->
    <g transform="translate(585.842946 192.929266)rotate(-87.378092)scale(0.18 -0.18)">
     <use xlink:href="#CMR17-7e" transform="translate(7.581509 0.006461)scale(0.996264)"/>
     <use xlink:href="#CMMI12-78" transform="scale(0.996264)"/>
     <use xlink:href="#CMR17-33" transform="translate(55.43406 -14.943915)scale(0.697382)"/>
     <use xlink:href="#CMMI12-3b" transform="translate(87.417241 -14.943915)scale(0.697382)"/>
     <use xlink:href="#CMR17-3a" transform="translate(106.385174 -14.943915)scale(0.697382)"/>
    </g>
   </g>
   <g id="xtick_11">
    <g id="line2d_14">
     <path d="M 537.811297 250.375083 
L 543.319383 251.95341 
" style="fill: none; stroke: #000000; stroke-width: 0.8; stroke-linecap: square"/>
    </g>
    <g id="text_14">
     <!-- $\mathdefault{−20}$ -->
     <g transform="translate(549.146578 255.235255)scale(0.1 -0.1)">
      <use xlink:href="#CMSY10-0" transform="scale(0.996264)"/>
      <use xlink:href="#CMR17-32" transform="translate(77.487468 0)scale(0.996264)"/>
      <use xlink:href="#CMR17-30" transform="translate(123.177945 0)scale(0.996264)"/>
     </g>
    </g>
   </g>
   <g id="xtick_12">
    <g id="line2d_15">
     <path d="M 538.669406 231.433981 
L 544.205993 232.99743 
" style="fill: none; stroke: #000000; stroke-width: 0.8; stroke-linecap: square"/>
    </g>
    <g id="text_15">
     <!-- $\mathdefault{−15}$ -->
     <g transform="translate(550.103763 236.313582)scale(0.1 -0.1)">
      <defs>
       <path id="CMR17-35" d="M 730 3750 
C 794 3724 1056 3641 1325 3641 
C 1920 3641 2246 3961 2432 4140 
C 2432 4191 2432 4224 2394 4224 
C 2387 4224 2374 4224 2323 4198 
C 2099 4102 1837 4032 1517 4032 
C 1325 4032 1037 4055 723 4191 
C 653 4224 640 4224 634 4224 
C 602 4224 595 4217 595 4090 
L 595 2231 
C 595 2113 595 2080 659 2080 
C 691 2080 704 2093 736 2139 
C 941 2435 1222 2560 1542 2560 
C 1766 2560 2246 2415 2246 1293 
C 2246 1087 2246 716 2054 422 
C 1894 159 1645 25 1370 25 
C 947 25 518 319 403 812 
C 429 806 480 793 506 793 
C 589 793 749 838 749 1036 
C 749 1209 627 1280 506 1280 
C 358 1280 262 1190 262 1011 
C 262 454 704 -128 1382 -128 
C 2042 -128 2669 441 2669 1267 
C 2669 2054 2170 2662 1549 2662 
C 1222 2662 947 2540 730 2304 
L 730 3750 
z
" transform="scale(0.015625)"/>
      </defs>
      <use xlink:href="#CMSY10-0" transform="scale(0.996264)"/>
      <use xlink:href="#CMR17-31" transform="translate(77.487468 0)scale(0.996264)"/>
      <use xlink:href="#CMR17-35" transform="translate(123.177945 0)scale(0.996264)"/>
     </g>
    </g>
   </g>
   <g id="xtick_13">
    <g id="line2d_16">
     <path d="M 539.536108 212.30323 
L 545.101492 213.851424 
" style="fill: none; stroke: #000000; stroke-width: 0.8; stroke-linecap: square"/>
    </g>
    <g id="text_16">
     <!-- $\mathdefault{−10}$ -->
     <g transform="translate(551.070518 217.202754)scale(0.1 -0.1)">
      <use xlink:href="#CMSY10-0" transform="scale(0.996264)"/>
      <use xlink:href="#CMR17-31" transform="translate(77.487468 0)scale(0.996264)"/>
      <use xlink:href="#CMR17-30" transform="translate(123.177945 0)scale(0.996264)"/>
     </g>
    </g>
   </g>
   <g id="xtick_14">
    <g id="line2d_17">
     <path d="M 540.411531 192.979968 
L 546.006013 194.51252 
" style="fill: none; stroke: #000000; stroke-width: 0.8; stroke-linecap: square"/>
    </g>
    <g id="text_17">
     <!-- $\mathdefault{−5}$ -->
     <g transform="translate(554.537653 197.899919)scale(0.1 -0.1)">
      <use xlink:href="#CMSY10-0" transform="scale(0.996264)"/>
      <use xlink:href="#CMR17-35" transform="translate(77.487468 0)scale(0.996264)"/>
     </g>
    </g>
   </g>
   <g id="xtick_15">
    <g id="line2d_18">
     <path d="M 541.295808 173.461275 
L 546.919693 174.977788 
" style="fill: none; stroke: #000000; stroke-width: 0.8; stroke-linecap: square"/>
    </g>
    <g id="text_18">
     <!-- $\mathdefault{0}$ -->
     <g transform="translate(559.398353 178.40217)scale(0.1 -0.1)">
      <use xlink:href="#CMR17-30" transform="scale(0.996264)"/>
     </g>
    </g>
   </g>
   <g id="xtick_16">
    <g id="line2d_19">
     <path d="M 542.189073 153.744171 
L 547.842672 155.244238 
" style="fill: none; stroke: #000000; stroke-width: 0.8; stroke-linecap: square"/>
    </g>
    <g id="text_19">
     <!-- $\mathdefault{5}$ -->
     <g transform="translate(560.394691 158.706539)scale(0.1 -0.1)">
      <use xlink:href="#CMR17-35" transform="scale(0.996264)"/>
     </g>
    </g>
   </g>
   <g id="xtick_17">
    <g id="line2d_20">
     <path d="M 543.091466 133.825615 
L 548.775094 135.30882 
" style="fill: none; stroke: #000000; stroke-width: 0.8; stroke-linecap: square"/>
    </g>
    <g id="text_20">
     <!-- $\mathdefault{10}$ -->
     <g transform="translate(558.910524 138.809999)scale(0.1 -0.1)">
      <use xlink:href="#CMR17-31" transform="scale(0.996264)"/>
      <use xlink:href="#CMR17-30" transform="translate(45.690477 0)scale(0.996264)"/>
     </g>
    </g>
   </g>
   <g id="xtick_18">
    <g id="line2d_21">
     <path d="M 544.003125 113.702503 
L 549.717102 115.16842 
" style="fill: none; stroke: #000000; stroke-width: 0.8; stroke-linecap: square"/>
    </g>
    <g id="text_21">
     <!-- $\mathdefault{15}$ -->
     <g transform="translate(559.927345 118.70946)scale(0.1 -0.1)">
      <use xlink:href="#CMR17-31" transform="scale(0.996264)"/>
      <use xlink:href="#CMR17-35" transform="translate(45.690477 0)scale(0.996264)"/>
     </g>
    </g>
   </g>
  </g>
  <g id="axes_1">
   <g id="line2d_22">
    <path d="M 411.6685 221.737129 
L 407.511521 216.934201 
" clip-path="url(#p75db24c61f)" style="fill: none; stroke: #ff0029; stroke-width: 1.5; stroke-linecap: square"/>
    <defs>
     <path id="m88fae944eb" d="M 0 1 
C 0.265203 1 0.51958 0.894634 0.707107 0.707107 
C 0.894634 0.51958 1 0.265203 1 0 
C 1 -0.265203 0.894634 -0.51958 0.707107 -0.707107 
C 0.51958 -0.894634 0.265203 -1 0 -1 
C -0.265203 -1 -0.51958 -0.894634 -0.707107 -0.707107 
C -0.894634 -0.51958 -1 -0.265203 -1 0 
C -1 0.265203 -0.894634 0.51958 -0.707107 0.707107 
C -0.51958 0.894634 -0.265203 1 0 1 
z
" style="stroke: #ff0029"/>
    </defs>
    <g clip-path="url(#p75db24c61f)">
     <use xlink:href="#m88fae944eb" x="411.6685" y="221.737129" style="fill: #ff0029; stroke: #ff0029"/>
     <use xlink:href="#m88fae944eb" x="407.511521" y="216.934201" style="fill: #ff0029; stroke: #ff0029"/>
    </g>
   </g>
   <g id="line2d_23">
    <path d="M 407.511521 216.934201 
L 375.3848 204.3934 
" clip-path="url(#p75db24c61f)" style="fill: none; stroke: #ff0600; stroke-width: 1.5; stroke-linecap: square"/>
    <defs>
     <path id="mc65b06f2d1" d="M 0 1 
C 0.265203 1 0.51958 0.894634 0.707107 0.707107 
C 0.894634 0.51958 1 0.265203 1 0 
C 1 -0.265203 0.894634 -0.51958 0.707107 -0.707107 
C 0.51958 -0.894634 0.265203 -1 0 -1 
C -0.265203 -1 -0.51958 -0.894634 -0.707107 -0.707107 
C -0.894634 -0.51958 -1 -0.265203 -1 0 
C -1 0.265203 -0.894634 0.51958 -0.707107 0.707107 
C -0.51958 0.894634 -0.265203 1 0 1 
z
" style="stroke: #ff0600"/>
    </defs>
    <g clip-path="url(#p75db24c61f)">
     <use xlink:href="#mc65b06f2d1" x="407.511521" y="216.934201" style="fill: #ff0600; stroke: #ff0600"/>
     <use xlink:href="#mc65b06f2d1" x="375.3848" y="204.3934" style="fill: #ff0600; stroke: #ff0600"/>
    </g>
   </g>
   <g id="line2d_24">
    <path d="M 375.3848 204.3934 
L 345.44786 244.076572 
" clip-path="url(#p75db24c61f)" style="fill: none; stroke: #ff3600; stroke-width: 1.5; stroke-linecap: square"/>
    <defs>
     <path id="m96c90251cd" d="M 0 1 
C 0.265203 1 0.51958 0.894634 0.707107 0.707107 
C 0.894634 0.51958 1 0.265203 1 0 
C 1 -0.265203 0.894634 -0.51958 0.707107 -0.707107 
C 0.51958 -0.894634 0.265203 -1 0 -1 
C -0.265203 -1 -0.51958 -0.894634 -0.707107 -0.707107 
C -0.894634 -0.51958 -1 -0.265203 -1 0 
C -1 0.265203 -0.894634 0.51958 -0.707107 0.707107 
C -0.51958 0.894634 -0.265203 1 0 1 
z
" style="stroke: #ff3600"/>
    </defs>
    <g clip-path="url(#p75db24c61f)">
     <use xlink:href="#m96c90251cd" x="375.3848" y="204.3934" style="fill: #ff3600; stroke: #ff3600"/>
     <use xlink:href="#m96c90251cd" x="345.44786" y="244.076572" style="fill: #ff3600; stroke: #ff3600"/>
    </g>
   </g>
   <g id="line2d_25">
    <path d="M 345.44786 244.076572 
L 282.909497 189.668449 
" clip-path="url(#p75db24c61f)" style="fill: none; stroke: #ff6500; stroke-width: 1.5; stroke-linecap: square"/>
    <defs>
     <path id="mfa563c4188" d="M 0 1 
C 0.265203 1 0.51958 0.894634 0.707107 0.707107 
C 0.894634 0.51958 1 0.265203 1 0 
C 1 -0.265203 0.894634 -0.51958 0.707107 -0.707107 
C 0.51958 -0.894634 0.265203 -1 0 -1 
C -0.265203 -1 -0.51958 -0.894634 -0.707107 -0.707107 
C -0.894634 -0.51958 -1 -0.265203 -1 0 
C -1 0.265203 -0.894634 0.51958 -0.707107 0.707107 
C -0.51958 0.894634 -0.265203 1 0 1 
z
" style="stroke: #ff6500"/>
    </defs>
    <g clip-path="url(#p75db24c61f)">
     <use xlink:href="#mfa563c4188" x="345.44786" y="244.076572" style="fill: #ff6500; stroke: #ff6500"/>
     <use xlink:href="#mfa563c4188" x="282.909497" y="189.668449" style="fill: #ff6500; stroke: #ff6500"/>
    </g>
   </g>
   <g id="line2d_26">
    <path d="M 282.909497 189.668449 
L 402.953454 227.890854 
" clip-path="url(#p75db24c61f)" style="fill: none; stroke: #ff9500; stroke-width: 1.5; stroke-linecap: square"/>
    <defs>
     <path id="m2341335f58" d="M 0 1 
C 0.265203 1 0.51958 0.894634 0.707107 0.707107 
C 0.894634 0.51958 1 0.265203 1 0 
C 1 -0.265203 0.894634 -0.51958 0.707107 -0.707107 
C 0.51958 -0.894634 0.265203 -1 0 -1 
C -0.265203 -1 -0.51958 -0.894634 -0.707107 -0.707107 
C -0.894634 -0.51958 -1 -0.265203 -1 0 
C -1 0.265203 -0.894634 0.51958 -0.707107 0.707107 
C -0.51958 0.894634 -0.265203 1 0 1 
z
" style="stroke: #ff9500"/>
    </defs>
    <g clip-path="url(#p75db24c61f)">
     <use xlink:href="#m2341335f58" x="282.909497" y="189.668449" style="fill: #ff9500; stroke: #ff9500"/>
     <use xlink:href="#m2341335f58" x="402.953454" y="227.890854" style="fill: #ff9500; stroke: #ff9500"/>
    </g>
   </g>
   <g id="line2d_27">
    <path d="M 402.953454 227.890854 
L 367.315181 200.989927 
" clip-path="url(#p75db24c61f)" style="fill: none; stroke: #ffc400; stroke-width: 1.5; stroke-linecap: square"/>
    <defs>
     <path id="m05d4d9cb87" d="M 0 1 
C 0.265203 1 0.51958 0.894634 0.707107 0.707107 
C 0.894634 0.51958 1 0.265203 1 0 
C 1 -0.265203 0.894634 -0.51958 0.707107 -0.707107 
C 0.51958 -0.894634 0.265203 -1 0 -1 
C -0.265203 -1 -0.51958 -0.894634 -0.707107 -0.707107 
C -0.894634 -0.51958 -1 -0.265203 -1 0 
C -1 0.265203 -0.894634 0.51958 -0.707107 0.707107 
C -0.51958 0.894634 -0.265203 1 0 1 
z
" style="stroke: #ffc400"/>
    </defs>
    <g clip-path="url(#p75db24c61f)">
     <use xlink:href="#m05d4d9cb87" x="402.953454" y="227.890854" style="fill: #ffc400; stroke: #ffc400"/>
     <use xlink:href="#m05d4d9cb87" x="367.315181" y="200.989927" style="fill: #ffc400; stroke: #ffc400"/>
    </g>
   </g>
   <g id="line2d_28">
    <path d="M 367.315181 200.989927 
L 377.874183 217.212255 
" clip-path="url(#p75db24c61f)" style="fill: none; stroke: #fff400; stroke-width: 1.5; stroke-linecap: square"/>
    <defs>
     <path id="mccfeabeb10" d="M 0 1 
C 0.265203 1 0.51958 0.894634 0.707107 0.707107 
C 0.894634 0.51958 1 0.265203 1 0 
C 1 -0.265203 0.894634 -0.51958 0.707107 -0.707107 
C 0.51958 -0.894634 0.265203 -1 0 -1 
C -0.265203 -1 -0.51958 -0.894634 -0.707107 -0.707107 
C -0.894634 -0.51958 -1 -0.265203 -1 0 
C -1 0.265203 -0.894634 0.51958 -0.707107 0.707107 
C -0.51958 0.894634 -0.265203 1 0 1 
z
" style="stroke: #fff400"/>
    </defs>
    <g clip-path="url(#p75db24c61f)">
     <use xlink:href="#mccfeabeb10" x="367.315181" y="200.989927" style="fill: #fff400; stroke: #fff400"/>
     <use xlink:href="#mccfeabeb10" x="377.874183" y="217.212255" style="fill: #fff400; stroke: #fff400"/>
    </g>
   </g>
   <g id="line2d_29">
    <path d="M 377.874183 217.212255 
L 379.458577 192.037726 
" clip-path="url(#p75db24c61f)" style="fill: none; stroke: #dbff00; stroke-width: 1.5; stroke-linecap: square"/>
    <defs>
     <path id="m0bb29bdd14" d="M 0 1 
C 0.265203 1 0.51958 0.894634 0.707107 0.707107 
C 0.894634 0.51958 1 0.265203 1 0 
C 1 -0.265203 0.894634 -0.51958 0.707107 -0.707107 
C 0.51958 -0.894634 0.265203 -1 0 -1 
C -0.265203 -1 -0.51958 -0.894634 -0.707107 -0.707107 
C -0.894634 -0.51958 -1 -0.265203 -1 0 
C -1 0.265203 -0.894634 0.51958 -0.707107 0.707107 
C -0.51958 0.894634 -0.265203 1 0 1 
z
" style="stroke: #dbff00"/>
    </defs>
    <g clip-path="url(#p75db24c61f)">
     <use xlink:href="#m0bb29bdd14" x="377.874183" y="217.212255" style="fill: #dbff00; stroke: #dbff00"/>
     <use xlink:href="#m0bb29bdd14" x="379.458577" y="192.037726" style="fill: #dbff00; stroke: #dbff00"/>
    </g>
   </g>
   <g id="line2d_30">
    <path d="M 379.458577 192.037726 
L 372.273179 185.704185 
" clip-path="url(#p75db24c61f)" style="fill: none; stroke: #abff00; stroke-width: 1.5; stroke-linecap: square"/>
    <defs>
     <path id="ma638be0519" d="M 0 1 
C 0.265203 1 0.51958 0.894634 0.707107 0.707107 
C 0.894634 0.51958 1 0.265203 1 0 
C 1 -0.265203 0.894634 -0.51958 0.707107 -0.707107 
C 0.51958 -0.894634 0.265203 -1 0 -1 
C -0.265203 -1 -0.51958 -0.894634 -0.707107 -0.707107 
C -0.894634 -0.51958 -1 -0.265203 -1 0 
C -1 0.265203 -0.894634 0.51958 -0.707107 0.707107 
C -0.51958 0.894634 -0.265203 1 0 1 
z
" style="stroke: #abff00"/>
    </defs>
    <g clip-path="url(#p75db24c61f)">
     <use xlink:href="#ma638be0519" x="379.458577" y="192.037726" style="fill: #abff00; stroke: #abff00"/>
     <use xlink:href="#ma638be0519" x="372.273179" y="185.704185" style="fill: #abff00; stroke: #abff00"/>
    </g>
   </g>
   <g id="line2d_31">
    <path d="M 372.273179 185.704185 
L 305.699155 272.872308 
" clip-path="url(#p75db24c61f)" style="fill: none; stroke: #7cff00; stroke-width: 1.5; stroke-linecap: square"/>
    <defs>
     <path id="md240b79a40" d="M 0 1 
C 0.265203 1 0.51958 0.894634 0.707107 0.707107 
C 0.894634 0.51958 1 0.265203 1 0 
C 1 -0.265203 0.894634 -0.51958 0.707107 -0.707107 
C 0.51958 -0.894634 0.265203 -1 0 -1 
C -0.265203 -1 -0.51958 -0.894634 -0.707107 -0.707107 
C -0.894634 -0.51958 -1 -0.265203 -1 0 
C -1 0.265203 -0.894634 0.51958 -0.707107 0.707107 
C -0.51958 0.894634 -0.265203 1 0 1 
z
" style="stroke: #7cff00"/>
    </defs>
    <g clip-path="url(#p75db24c61f)">
     <use xlink:href="#md240b79a40" x="372.273179" y="185.704185" style="fill: #7cff00; stroke: #7cff00"/>
     <use xlink:href="#md240b79a40" x="305.699155" y="272.872308" style="fill: #7cff00; stroke: #7cff00"/>
    </g>
   </g>
   <g id="line2d_32">
    <path d="M 305.699155 272.872308 
L 417.971632 181.608727 
" clip-path="url(#p75db24c61f)" style="fill: none; stroke: #4cff00; stroke-width: 1.5; stroke-linecap: square"/>
    <defs>
     <path id="md704f80fdd" d="M 0 1 
C 0.265203 1 0.51958 0.894634 0.707107 0.707107 
C 0.894634 0.51958 1 0.265203 1 0 
C 1 -0.265203 0.894634 -0.51958 0.707107 -0.707107 
C 0.51958 -0.894634 0.265203 -1 0 -1 
C -0.265203 -1 -0.51958 -0.894634 -0.707107 -0.707107 
C -0.894634 -0.51958 -1 -0.265203 -1 0 
C -1 0.265203 -0.894634 0.51958 -0.707107 0.707107 
C -0.51958 0.894634 -0.265203 1 0 1 
z
" style="stroke: #4cff00"/>
    </defs>
    <g clip-path="url(#p75db24c61f)">
     <use xlink:href="#md704f80fdd" x="305.699155" y="272.872308" style="fill: #4cff00; stroke: #4cff00"/>
     <use xlink:href="#md704f80fdd" x="417.971632" y="181.608727" style="fill: #4cff00; stroke: #4cff00"/>
    </g>
   </g>
   <g id="line2d_33">
    <path d="M 417.971632 181.608727 
L 422.020386 180.541182 
" clip-path="url(#p75db24c61f)" style="fill: none; stroke: #1dff00; stroke-width: 1.5; stroke-linecap: square"/>
    <defs>
     <path id="md88f8a9082" d="M 0 1 
C 0.265203 1 0.51958 0.894634 0.707107 0.707107 
C 0.894634 0.51958 1 0.265203 1 0 
C 1 -0.265203 0.894634 -0.51958 0.707107 -0.707107 
C 0.51958 -0.894634 0.265203 -1 0 -1 
C -0.265203 -1 -0.51958 -0.894634 -0.707107 -0.707107 
C -0.894634 -0.51958 -1 -0.265203 -1 0 
C -1 0.265203 -0.894634 0.51958 -0.707107 0.707107 
C -0.51958 0.894634 -0.265203 1 0 1 
z
" style="stroke: #1dff00"/>
    </defs>
    <g clip-path="url(#p75db24c61f)">
     <use xlink:href="#md88f8a9082" x="417.971632" y="181.608727" style="fill: #1dff00; stroke: #1dff00"/>
     <use xlink:href="#md88f8a9082" x="422.020386" y="180.541182" style="fill: #1dff00; stroke: #1dff00"/>
    </g>
   </g>
   <g id="line2d_34">
    <path d="M 422.020386 180.541182 
L 426.028095 179.473116 
" clip-path="url(#p75db24c61f)" style="fill: none; stroke: #00ff13; stroke-width: 1.5; stroke-linecap: square"/>
    <defs>
     <path id="m566b037c8e" d="M 0 1 
C 0.265203 1 0.51958 0.894634 0.707107 0.707107 
C 0.894634 0.51958 1 0.265203 1 0 
C 1 -0.265203 0.894634 -0.51958 0.707107 -0.707107 
C 0.51958 -0.894634 0.265203 -1 0 -1 
C -0.265203 -1 -0.51958 -0.894634 -0.707107 -0.707107 
C -0.894634 -0.51958 -1 -0.265203 -1 0 
C -1 0.265203 -0.894634 0.51958 -0.707107 0.707107 
C -0.51958 0.894634 -0.265203 1 0 1 
z
" style="stroke: #00ff13"/>
    </defs>
    <g clip-path="url(#p75db24c61f)">
     <use xlink:href="#m566b037c8e" x="422.020386" y="180.541182" style="fill: #00ff13; stroke: #00ff13"/>
     <use xlink:href="#m566b037c8e" x="426.028095" y="179.473116" style="fill: #00ff13; stroke: #00ff13"/>
    </g>
   </g>
   <g id="line2d_35">
    <path d="M 426.028095 179.473116 
L 426.619674 176.331376 
" clip-path="url(#p75db24c61f)" style="fill: none; stroke: #00ff42; stroke-width: 1.5; stroke-linecap: square"/>
    <defs>
     <path id="m508e5b385b" d="M 0 1 
C 0.265203 1 0.51958 0.894634 0.707107 0.707107 
C 0.894634 0.51958 1 0.265203 1 0 
C 1 -0.265203 0.894634 -0.51958 0.707107 -0.707107 
C 0.51958 -0.894634 0.265203 -1 0 -1 
C -0.265203 -1 -0.51958 -0.894634 -0.707107 -0.707107 
C -0.894634 -0.51958 -1 -0.265203 -1 0 
C -1 0.265203 -0.894634 0.51958 -0.707107 0.707107 
C -0.51958 0.894634 -0.265203 1 0 1 
z
" style="stroke: #00ff42"/>
    </defs>
    <g clip-path="url(#p75db24c61f)">
     <use xlink:href="#m508e5b385b" x="426.028095" y="179.473116" style="fill: #00ff42; stroke: #00ff42"/>
     <use xlink:href="#m508e5b385b" x="426.619674" y="176.331376" style="fill: #00ff42; stroke: #00ff42"/>
    </g>
   </g>
   <g id="line2d_36">
    <path d="M 426.619674 176.331376 
L 445.259845 192.63749 
" clip-path="url(#p75db24c61f)" style="fill: none; stroke: #00ff71; stroke-width: 1.5; stroke-linecap: square"/>
    <defs>
     <path id="m789b97aa93" d="M 0 1 
C 0.265203 1 0.51958 0.894634 0.707107 0.707107 
C 0.894634 0.51958 1 0.265203 1 0 
C 1 -0.265203 0.894634 -0.51958 0.707107 -0.707107 
C 0.51958 -0.894634 0.265203 -1 0 -1 
C -0.265203 -1 -0.51958 -0.894634 -0.707107 -0.707107 
C -0.894634 -0.51958 -1 -0.265203 -1 0 
C -1 0.265203 -0.894634 0.51958 -0.707107 0.707107 
C -0.51958 0.894634 -0.265203 1 0 1 
z
" style="stroke: #00ff71"/>
    </defs>
    <g clip-path="url(#p75db24c61f)">
     <use xlink:href="#m789b97aa93" x="426.619674" y="176.331376" style="fill: #00ff71; stroke: #00ff71"/>
     <use xlink:href="#m789b97aa93" x="445.259845" y="192.63749" style="fill: #00ff71; stroke: #00ff71"/>
    </g>
   </g>
   <g id="line2d_37">
    <path d="M 445.259845 192.63749 
L 432.086424 198.653567 
" clip-path="url(#p75db24c61f)" style="fill: none; stroke: #00ffa1; stroke-width: 1.5; stroke-linecap: square"/>
    <defs>
     <path id="md78ac96a1e" d="M 0 1 
C 0.265203 1 0.51958 0.894634 0.707107 0.707107 
C 0.894634 0.51958 1 0.265203 1 0 
C 1 -0.265203 0.894634 -0.51958 0.707107 -0.707107 
C 0.51958 -0.894634 0.265203 -1 0 -1 
C -0.265203 -1 -0.51958 -0.894634 -0.707107 -0.707107 
C -0.894634 -0.51958 -1 -0.265203 -1 0 
C -1 0.265203 -0.894634 0.51958 -0.707107 0.707107 
C -0.51958 0.894634 -0.265203 1 0 1 
z
" style="stroke: #00ffa1"/>
    </defs>
    <g clip-path="url(#p75db24c61f)">
     <use xlink:href="#md78ac96a1e" x="445.259845" y="192.63749" style="fill: #00ffa1; stroke: #00ffa1"/>
     <use xlink:href="#md78ac96a1e" x="432.086424" y="198.653567" style="fill: #00ffa1; stroke: #00ffa1"/>
    </g>
   </g>
   <g id="line2d_38">
    <path d="M 432.086424 198.653567 
L 429.394269 213.942163 
" clip-path="url(#p75db24c61f)" style="fill: none; stroke: #00ffd0; stroke-width: 1.5; stroke-linecap: square"/>
    <defs>
     <path id="m4dc0d6789e" d="M 0 1 
C 0.265203 1 0.51958 0.894634 0.707107 0.707107 
C 0.894634 0.51958 1 0.265203 1 0 
C 1 -0.265203 0.894634 -0.51958 0.707107 -0.707107 
C 0.51958 -0.894634 0.265203 -1 0 -1 
C -0.265203 -1 -0.51958 -0.894634 -0.707107 -0.707107 
C -0.894634 -0.51958 -1 -0.265203 -1 0 
C -1 0.265203 -0.894634 0.51958 -0.707107 0.707107 
C -0.51958 0.894634 -0.265203 1 0 1 
z
" style="stroke: #00ffd0"/>
    </defs>
    <g clip-path="url(#p75db24c61f)">
     <use xlink:href="#m4dc0d6789e" x="432.086424" y="198.653567" style="fill: #00ffd0; stroke: #00ffd0"/>
     <use xlink:href="#m4dc0d6789e" x="429.394269" y="213.942163" style="fill: #00ffd0; stroke: #00ffd0"/>
    </g>
   </g>
   <g id="line2d_39">
    <path d="M 429.394269 213.942163 
L 457.067656 228.996615 
" clip-path="url(#p75db24c61f)" style="fill: none; stroke: #00ffff; stroke-width: 1.5; stroke-linecap: square"/>
    <defs>
     <path id="mb96173ad8f" d="M 0 1 
C 0.265203 1 0.51958 0.894634 0.707107 0.707107 
C 0.894634 0.51958 1 0.265203 1 0 
C 1 -0.265203 0.894634 -0.51958 0.707107 -0.707107 
C 0.51958 -0.894634 0.265203 -1 0 -1 
C -0.265203 -1 -0.51958 -0.894634 -0.707107 -0.707107 
C -0.894634 -0.51958 -1 -0.265203 -1 0 
C -1 0.265203 -0.894634 0.51958 -0.707107 0.707107 
C -0.51958 0.894634 -0.265203 1 0 1 
z
" style="stroke: #00ffff"/>
    </defs>
    <g clip-path="url(#p75db24c61f)">
     <use xlink:href="#mb96173ad8f" x="429.394269" y="213.942163" style="fill: #00ffff; stroke: #00ffff"/>
     <use xlink:href="#mb96173ad8f" x="457.067656" y="228.996615" style="fill: #00ffff; stroke: #00ffff"/>
    </g>
   </g>
   <g id="line2d_40">
    <path d="M 457.067656 228.996615 
L 354.012793 208.673532 
" clip-path="url(#p75db24c61f)" style="fill: none; stroke: #00cfff; stroke-width: 1.5; stroke-linecap: square"/>
    <defs>
     <path id="m3f6e27f31f" d="M 0 1 
C 0.265203 1 0.51958 0.894634 0.707107 0.707107 
C 0.894634 0.51958 1 0.265203 1 0 
C 1 -0.265203 0.894634 -0.51958 0.707107 -0.707107 
C 0.51958 -0.894634 0.265203 -1 0 -1 
C -0.265203 -1 -0.51958 -0.894634 -0.707107 -0.707107 
C -0.894634 -0.51958 -1 -0.265203 -1 0 
C -1 0.265203 -0.894634 0.51958 -0.707107 0.707107 
C -0.51958 0.894634 -0.265203 1 0 1 
z
" style="stroke: #00cfff"/>
    </defs>
    <g clip-path="url(#p75db24c61f)">
     <use xlink:href="#m3f6e27f31f" x="457.067656" y="228.996615" style="fill: #00cfff; stroke: #00cfff"/>
     <use xlink:href="#m3f6e27f31f" x="354.012793" y="208.673532" style="fill: #00cfff; stroke: #00cfff"/>
    </g>
   </g>
   <g id="line2d_41">
    <path d="M 354.012793 208.673532 
L 395.189393 178.445274 
" clip-path="url(#p75db24c61f)" style="fill: none; stroke: #009fff; stroke-width: 1.5; stroke-linecap: square"/>
    <defs>
     <path id="meeca9e3af6" d="M 0 1 
C 0.265203 1 0.51958 0.894634 0.707107 0.707107 
C 0.894634 0.51958 1 0.265203 1 0 
C 1 -0.265203 0.894634 -0.51958 0.707107 -0.707107 
C 0.51958 -0.894634 0.265203 -1 0 -1 
C -0.265203 -1 -0.51958 -0.894634 -0.707107 -0.707107 
C -0.894634 -0.51958 -1 -0.265203 -1 0 
C -1 0.265203 -0.894634 0.51958 -0.707107 0.707107 
C -0.51958 0.894634 -0.265203 1 0 1 
z
" style="stroke: #009fff"/>
    </defs>
    <g clip-path="url(#p75db24c61f)">
     <use xlink:href="#meeca9e3af6" x="354.012793" y="208.673532" style="fill: #009fff; stroke: #009fff"/>
     <use xlink:href="#meeca9e3af6" x="395.189393" y="178.445274" style="fill: #009fff; stroke: #009fff"/>
    </g>
   </g>
   <g id="line2d_42">
    <path d="M 395.189393 178.445274 
L 291.372669 187.94058 
" clip-path="url(#p75db24c61f)" style="fill: none; stroke: #006fff; stroke-width: 1.5; stroke-linecap: square"/>
    <defs>
     <path id="m1cb4c325a8" d="M 0 1 
C 0.265203 1 0.51958 0.894634 0.707107 0.707107 
C 0.894634 0.51958 1 0.265203 1 0 
C 1 -0.265203 0.894634 -0.51958 0.707107 -0.707107 
C 0.51958 -0.894634 0.265203 -1 0 -1 
C -0.265203 -1 -0.51958 -0.894634 -0.707107 -0.707107 
C -0.894634 -0.51958 -1 -0.265203 -1 0 
C -1 0.265203 -0.894634 0.51958 -0.707107 0.707107 
C -0.51958 0.894634 -0.265203 1 0 1 
z
" style="stroke: #006fff"/>
    </defs>
    <g clip-path="url(#p75db24c61f)">
     <use xlink:href="#m1cb4c325a8" x="395.189393" y="178.445274" style="fill: #006fff; stroke: #006fff"/>
     <use xlink:href="#m1cb4c325a8" x="291.372669" y="187.94058" style="fill: #006fff; stroke: #006fff"/>
    </g>
   </g>
   <g id="line2d_43">
    <path d="M 291.372669 187.94058 
L 431.605177 235.532046 
" clip-path="url(#p75db24c61f)" style="fill: none; stroke: #0040ff; stroke-width: 1.5; stroke-linecap: square"/>
    <defs>
     <path id="mffa025428f" d="M 0 1 
C 0.265203 1 0.51958 0.894634 0.707107 0.707107 
C 0.894634 0.51958 1 0.265203 1 0 
C 1 -0.265203 0.894634 -0.51958 0.707107 -0.707107 
C 0.51958 -0.894634 0.265203 -1 0 -1 
C -0.265203 -1 -0.51958 -0.894634 -0.707107 -0.707107 
C -0.894634 -0.51958 -1 -0.265203 -1 0 
C -1 0.265203 -0.894634 0.51958 -0.707107 0.707107 
C -0.51958 0.894634 -0.265203 1 0 1 
z
" style="stroke: #0040ff"/>
    </defs>
    <g clip-path="url(#p75db24c61f)">
     <use xlink:href="#mffa025428f" x="291.372669" y="187.94058" style="fill: #0040ff; stroke: #0040ff"/>
     <use xlink:href="#mffa025428f" x="431.605177" y="235.532046" style="fill: #0040ff; stroke: #0040ff"/>
    </g>
   </g>
   <g id="line2d_44">
    <path d="M 431.605177 235.532046 
L 398.07825 212.69953 
" clip-path="url(#p75db24c61f)" style="fill: none; stroke: #0010ff; stroke-width: 1.5; stroke-linecap: square"/>
    <defs>
     <path id="m6ebc4ffd62" d="M 0 1 
C 0.265203 1 0.51958 0.894634 0.707107 0.707107 
C 0.894634 0.51958 1 0.265203 1 0 
C 1 -0.265203 0.894634 -0.51958 0.707107 -0.707107 
C 0.51958 -0.894634 0.265203 -1 0 -1 
C -0.265203 -1 -0.51958 -0.894634 -0.707107 -0.707107 
C -0.894634 -0.51958 -1 -0.265203 -1 0 
C -1 0.265203 -0.894634 0.51958 -0.707107 0.707107 
C -0.51958 0.894634 -0.265203 1 0 1 
z
" style="stroke: #0010ff"/>
    </defs>
    <g clip-path="url(#p75db24c61f)">
     <use xlink:href="#m6ebc4ffd62" x="431.605177" y="235.532046" style="fill: #0010ff; stroke: #0010ff"/>
     <use xlink:href="#m6ebc4ffd62" x="398.07825" y="212.69953" style="fill: #0010ff; stroke: #0010ff"/>
    </g>
   </g>
   <g id="line2d_45">
    <path d="M 398.07825 212.69953 
L 265.093892 164.687589 
" clip-path="url(#p75db24c61f)" style="fill: none; stroke: #2000ff; stroke-width: 1.5; stroke-linecap: square"/>
    <defs>
     <path id="ma854a233d7" d="M 0 1 
C 0.265203 1 0.51958 0.894634 0.707107 0.707107 
C 0.894634 0.51958 1 0.265203 1 0 
C 1 -0.265203 0.894634 -0.51958 0.707107 -0.707107 
C 0.51958 -0.894634 0.265203 -1 0 -1 
C -0.265203 -1 -0.51958 -0.894634 -0.707107 -0.707107 
C -0.894634 -0.51958 -1 -0.265203 -1 0 
C -1 0.265203 -0.894634 0.51958 -0.707107 0.707107 
C -0.51958 0.894634 -0.265203 1 0 1 
z
" style="stroke: #2000ff"/>
    </defs>
    <g clip-path="url(#p75db24c61f)">
     <use xlink:href="#ma854a233d7" x="398.07825" y="212.69953" style="fill: #2000ff; stroke: #2000ff"/>
     <use xlink:href="#ma854a233d7" x="265.093892" y="164.687589" style="fill: #2000ff; stroke: #2000ff"/>
    </g>
   </g>
   <g id="line2d_46">
    <path d="M 265.093892 164.687589 
L 394.499675 289.528459 
" clip-path="url(#p75db24c61f)" style="fill: none; stroke: #5000ff; stroke-width: 1.5; stroke-linecap: square"/>
    <defs>
     <path id="m836c9c87ab" d="M 0 1 
C 0.265203 1 0.51958 0.894634 0.707107 0.707107 
C 0.894634 0.51958 1 0.265203 1 0 
C 1 -0.265203 0.894634 -0.51958 0.707107 -0.707107 
C 0.51958 -0.894634 0.265203 -1 0 -1 
C -0.265203 -1 -0.51958 -0.894634 -0.707107 -0.707107 
C -0.894634 -0.51958 -1 -0.265203 -1 0 
C -1 0.265203 -0.894634 0.51958 -0.707107 0.707107 
C -0.51958 0.894634 -0.265203 1 0 1 
z
" style="stroke: #5000ff"/>
    </defs>
    <g clip-path="url(#p75db24c61f)">
     <use xlink:href="#m836c9c87ab" x="265.093892" y="164.687589" style="fill: #5000ff; stroke: #5000ff"/>
     <use xlink:href="#m836c9c87ab" x="394.499675" y="289.528459" style="fill: #5000ff; stroke: #5000ff"/>
    </g>
   </g>
   <g id="line2d_47">
    <path d="M 394.499675 289.528459 
L 383.947716 241.321701 
" clip-path="url(#p75db24c61f)" style="fill: none; stroke: #8000ff; stroke-width: 1.5; stroke-linecap: square"/>
    <defs>
     <path id="m8b52640948" d="M 0 1 
C 0.265203 1 0.51958 0.894634 0.707107 0.707107 
C 0.894634 0.51958 1 0.265203 1 0 
C 1 -0.265203 0.894634 -0.51958 0.707107 -0.707107 
C 0.51958 -0.894634 0.265203 -1 0 -1 
C -0.265203 -1 -0.51958 -0.894634 -0.707107 -0.707107 
C -0.894634 -0.51958 -1 -0.265203 -1 0 
C -1 0.265203 -0.894634 0.51958 -0.707107 0.707107 
C -0.51958 0.894634 -0.265203 1 0 1 
z
" style="stroke: #8000ff"/>
    </defs>
    <g clip-path="url(#p75db24c61f)">
     <use xlink:href="#m8b52640948" x="394.499675" y="289.528459" style="fill: #8000ff; stroke: #8000ff"/>
     <use xlink:href="#m8b52640948" x="383.947716" y="241.321701" style="fill: #8000ff; stroke: #8000ff"/>
    </g>
   </g>
   <g id="line2d_48">
    <path d="M 383.947716 241.321701 
L 375.004457 166.292364 
" clip-path="url(#p75db24c61f)" style="fill: none; stroke: #af00ff; stroke-width: 1.5; stroke-linecap: square"/>
    <defs>
     <path id="me2c10074ec" d="M 0 1 
C 0.265203 1 0.51958 0.894634 0.707107 0.707107 
C 0.894634 0.51958 1 0.265203 1 0 
C 1 -0.265203 0.894634 -0.51958 0.707107 -0.707107 
C 0.51958 -0.894634 0.265203 -1 0 -1 
C -0.265203 -1 -0.51958 -0.894634 -0.707107 -0.707107 
C -0.894634 -0.51958 -1 -0.265203 -1 0 
C -1 0.265203 -0.894634 0.51958 -0.707107 0.707107 
C -0.51958 0.894634 -0.265203 1 0 1 
z
" style="stroke: #af00ff"/>
    </defs>
    <g clip-path="url(#p75db24c61f)">
     <use xlink:href="#me2c10074ec" x="383.947716" y="241.321701" style="fill: #af00ff; stroke: #af00ff"/>
     <use xlink:href="#me2c10074ec" x="375.004457" y="166.292364" style="fill: #af00ff; stroke: #af00ff"/>
    </g>
   </g>
   <g id="line2d_49">
    <path d="M 375.004457 166.292364 
L 395.78909 227.800979 
" clip-path="url(#p75db24c61f)" style="fill: none; stroke: #df00ff; stroke-width: 1.5; stroke-linecap: square"/>
    <defs>
     <path id="mb9f3ca094e" d="M 0 1 
C 0.265203 1 0.51958 0.894634 0.707107 0.707107 
C 0.894634 0.51958 1 0.265203 1 0 
C 1 -0.265203 0.894634 -0.51958 0.707107 -0.707107 
C 0.51958 -0.894634 0.265203 -1 0 -1 
C -0.265203 -1 -0.51958 -0.894634 -0.707107 -0.707107 
C -0.894634 -0.51958 -1 -0.265203 -1 0 
C -1 0.265203 -0.894634 0.51958 -0.707107 0.707107 
C -0.51958 0.894634 -0.265203 1 0 1 
z
" style="stroke: #df00ff"/>
    </defs>
    <g clip-path="url(#p75db24c61f)">
     <use xlink:href="#mb9f3ca094e" x="375.004457" y="166.292364" style="fill: #df00ff; stroke: #df00ff"/>
     <use xlink:href="#mb9f3ca094e" x="395.78909" y="227.800979" style="fill: #df00ff; stroke: #df00ff"/>
    </g>
   </g>
   <g id="line2d_50">
    <path d="M 395.78909 227.800979 
L 385.105785 224.365864 
" clip-path="url(#p75db24c61f)" style="fill: none; stroke: #ff00ef; stroke-width: 1.5; stroke-linecap: square"/>
    <defs>
     <path id="m3a995f9e84" d="M 0 1 
C 0.265203 1 0.51958 0.894634 0.707107 0.707107 
C 0.894634 0.51958 1 0.265203 1 0 
C 1 -0.265203 0.894634 -0.51958 0.707107 -0.707107 
C 0.51958 -0.894634 0.265203 -1 0 -1 
C -0.265203 -1 -0.51958 -0.894634 -0.707107 -0.707107 
C -0.894634 -0.51958 -1 -0.265203 -1 0 
C -1 0.265203 -0.894634 0.51958 -0.707107 0.707107 
C -0.51958 0.894634 -0.265203 1 0 1 
z
" style="stroke: #ff00ef"/>
    </defs>
    <g clip-path="url(#p75db24c61f)">
     <use xlink:href="#m3a995f9e84" x="395.78909" y="227.800979" style="fill: #ff00ef; stroke: #ff00ef"/>
     <use xlink:href="#m3a995f9e84" x="385.105785" y="224.365864" style="fill: #ff00ef; stroke: #ff00ef"/>
    </g>
   </g>
   <g id="line2d_51">
    <path d="M 208.901805 313.369825 
" clip-path="url(#p75db24c61f)" style="fill: none; stroke: #ffffff; stroke-width: 1.5; stroke-linecap: square"/>
   </g>
   <g id="line2d_52">
    <path d="M 201.924059 146.796232 
" clip-path="url(#p75db24c61f)" style="fill: none; stroke: #ffffff; stroke-width: 1.5; stroke-linecap: square"/>
   </g>
   <g id="line2d_53">
    <path d="M 326.593541 213.80184 
" clip-path="url(#p75db24c61f)" style="fill: none; stroke: #ffffff; stroke-width: 1.5; stroke-linecap: square"/>
   </g>
   <g id="line2d_54">
    <path d="M 324.988401 55.605495 
" clip-path="url(#p75db24c61f)" style="fill: none; stroke: #ffffff; stroke-width: 1.5; stroke-linecap: square"/>
   </g>
   <g id="line2d_55">
    <path d="M 409.485631 378.21561 
" clip-path="url(#p75db24c61f)" style="fill: none; stroke: #ffffff; stroke-width: 1.5; stroke-linecap: square"/>
   </g>
   <g id="line2d_56">
    <path d="M 411.538946 206.50116 
" clip-path="url(#p75db24c61f)" style="fill: none; stroke: #ffffff; stroke-width: 1.5; stroke-linecap: square"/>
   </g>
   <g id="line2d_57">
    <path d="M 517.219569 269.463351 
" clip-path="url(#p75db24c61f)" style="fill: none; stroke: #ffffff; stroke-width: 1.5; stroke-linecap: square"/>
   </g>
   <g id="line2d_58">
    <path d="M 523.752281 106.511917 
" clip-path="url(#p75db24c61f)" style="fill: none; stroke: #ffffff; stroke-width: 1.5; stroke-linecap: square"/>
   </g>
  </g>
 </g>
 <defs>
  <clipPath id="p75db24c61f">
   <rect x="154.8" y="10.8" width="410.4" height="410.4"/>
  </clipPath>
 </defs>
</svg>
