<?xml version="1.0" encoding="utf-8" standalone="no"?>
<!DOCTYPE svg PUBLIC "-//W3C//DTD SVG 1.1//EN"
  "http://www.w3.org/Graphics/SVG/1.1/DTD/svg11.dtd">
<svg xmlns:xlink="http://www.w3.org/1999/xlink" width="720pt" height="432pt" viewBox="0 0 720 432" xmlns="http://www.w3.org/2000/svg" version="1.1">
 <metadata>
  <rdf:RDF xmlns:dc="http://purl.org/dc/elements/1.1/" xmlns:cc="http://creativecommons.org/ns#" xmlns:rdf="http://www.w3.org/1999/02/22-rdf-syntax-ns#">
   <cc:Work>
    <dc:type rdf:resource="http://purl.org/dc/dcmitype/StillImage"/>
    <dc:date>2022-03-17T00:05:37.747489</dc:date>
    <dc:format>image/svg+xml</dc:format>
    <dc:creator>
     <cc:Agent>
      <dc:title>Matplotlib v3.5.0, https://matplotlib.org/</dc:title>
     </cc:Agent>
    </dc:creator>
   </cc:Work>
  </rdf:RDF>
 </metadata>
 <defs>
  <style type="text/css">*{stroke-linejoin: round; stroke-linecap: butt}</style>
 </defs>
 <g id="figure_1">
  <g id="patch_1">
   <path d="M 0 432 
L 720 432 
L 720 0 
L 0 0 
z
" style="fill: #ffffff"/>
  </g>
  <g id="patch_2">
   <path d="M 154.8 421.2 
L 565.2 421.2 
L 565.2 10.8 
L 154.8 10.8 
z
" style="fill: #ffffff"/>
  </g>
  <g id="pane3d_1">
   <g id="patch_3">
    <path d="M 185.78803 320.008512 
L 321.315513 206.406689 
L 319.431551 42.572551 
L 177.41838 146.207295 
" style="fill: none; opacity: 0.5; stroke: #f2f2f2; stroke-linejoin: miter"/>
   </g>
  </g>
  <g id="pane3d_2">
   <g id="patch_4">
    <path d="M 321.315513 206.406689 
L 538.788767 269.617578 
L 546.549621 100.140361 
L 319.431551 42.572551 
" style="fill: none; opacity: 0.5; stroke: #e6e6e6; stroke-linejoin: miter"/>
   </g>
  </g>
  <g id="pane3d_3">
   <g id="patch_5">
    <path d="M 185.78803 320.008512 
L 416.320301 395.300351 
L 538.788767 269.617578 
L 321.315513 206.406689 
" style="fill: none; opacity: 0.5; stroke: #ececec; stroke-linejoin: miter"/>
   </g>
  </g>
  <g id="axis3d_1">
   <g id="line2d_1">
    <path d="M 185.78803 320.008512 
L 416.320301 395.300351 
" style="fill: none; stroke: #000000; stroke-width: 0.8; stroke-linecap: square"/>
   </g>
   <g id="text_1">
    <!-- $\tilde{x}_{1,:}$ -->
    <g transform="translate(269.832562 391.421509)rotate(-341.912962)scale(0.18 -0.18)">
     <defs>
      <path id="CMR17-7e" d="M 2400 4198 
C 2182 3987 2061 3865 1862 3865 
C 1722 3865 1626 3936 1491 4032 
C 1363 4121 1261 4198 1120 4198 
C 890 4198 730 4012 461 3718 
L 531 3648 
C 749 3859 870 3980 1069 3980 
C 1210 3980 1306 3910 1440 3814 
C 1568 3724 1670 3648 1811 3648 
C 2042 3648 2202 3833 2470 4128 
L 2400 4198 
z
" transform="scale(0.015625)"/>
      <path id="CMMI12-78" d="M 3034 2624 
C 2829 2585 2752 2431 2752 2310 
C 2752 2156 2874 2105 2963 2105 
C 3155 2105 3290 2271 3290 2444 
C 3290 2694 2982 2816 2714 2816 
C 2323 2816 2106 2451 2048 2329 
C 1901 2790 1504 2816 1389 2816 
C 736 2816 390 1993 390 1849 
C 390 1823 416 1790 461 1790 
C 512 1790 525 1829 538 1855 
C 755 2572 1184 2687 1370 2687 
C 1658 2687 1715 2438 1715 2284 
C 1715 2143 1677 1993 1600 1678 
L 1382 778 
C 1286 390 1101 64 762 64 
C 730 64 570 64 435 126 
C 666 166 717 358 717 435 
C 717 563 621 640 499 640 
C 346 640 179 505 179 300 
C 179 57 480 -64 755 -64 
C 1062 -64 1280 153 1414 415 
C 1517 64 1837 -64 2074 -64 
C 2726 -64 3072 751 3072 896 
C 3072 929 3046 955 3008 955 
C 2950 955 2944 922 2925 870 
C 2752 300 2381 64 2093 64 
C 1869 64 1747 204 1747 467 
C 1747 607 1773 712 1875 1146 
L 2099 2039 
C 2195 2425 2413 2687 2707 2687 
C 2720 2687 2899 2687 3034 2624 
z
" transform="scale(0.015625)"/>
      <path id="CMR17-31" d="M 1702 4083 
C 1702 4217 1696 4224 1606 4224 
C 1357 3927 979 3833 621 3820 
C 602 3820 570 3820 563 3808 
C 557 3795 557 3782 557 3648 
C 755 3648 1088 3686 1344 3839 
L 1344 467 
C 1344 243 1331 166 781 166 
L 589 166 
L 589 0 
C 896 6 1216 12 1523 12 
C 1830 12 2150 6 2458 0 
L 2458 166 
L 2266 166 
C 1715 166 1702 236 1702 467 
L 1702 4083 
z
" transform="scale(0.015625)"/>
      <path id="CMMI12-3b" d="M 1248 -26 
C 1248 345 1126 620 864 620 
C 659 620 557 454 557 313 
C 557 172 653 0 870 0 
C 954 0 1024 25 1082 83 
C 1094 96 1101 96 1107 96 
C 1120 96 1120 6 1120 -26 
C 1120 -233 1082 -642 710 -1051 
C 640 -1127 640 -1140 640 -1152 
C 640 -1184 672 -1216 704 -1216 
C 755 -1216 1248 -749 1248 -26 
z
" transform="scale(0.015625)"/>
      <path id="CMR17-3a" d="M 1062 2489 
C 1062 2649 934 2752 800 2752 
C 672 2752 538 2649 538 2489 
C 538 2329 666 2227 800 2227 
C 928 2227 1062 2329 1062 2489 
z
M 1062 262 
C 1062 422 934 524 800 524 
C 672 524 538 422 538 262 
C 538 102 666 0 800 0 
C 928 0 1062 102 1062 262 
z
" transform="scale(0.015625)"/>
     </defs>
     <use xlink:href="#CMR17-7e" transform="translate(7.581509 0.006461)scale(0.996264)"/>
     <use xlink:href="#CMMI12-78" transform="scale(0.996264)"/>
     <use xlink:href="#CMR17-31" transform="translate(55.43406 -14.943915)scale(0.697382)"/>
     <use xlink:href="#CMMI12-3b" transform="translate(87.417241 -14.943915)scale(0.697382)"/>
     <use xlink:href="#CMR17-3a" transform="translate(106.385174 -14.943915)scale(0.697382)"/>
    </g>
   </g>
   <g id="xtick_1">
    <g id="line2d_2">
     <path d="M 196.416964 322.102557 
L 192.884731 325.086929 
" style="fill: none; stroke: #000000; stroke-width: 0.8; stroke-linecap: square"/>
    </g>
    <g id="text_2">
     <!-- $\mathdefault{−7.5}$ -->
     <g transform="translate(177.479714 345.684487)scale(0.1 -0.1)">
      <defs>
       <path id="CMSY10-0" d="M 4218 1472 
C 4326 1472 4442 1472 4442 1600 
C 4442 1728 4326 1728 4218 1728 
L 755 1728 
C 646 1728 531 1728 531 1600 
C 531 1472 646 1472 755 1472 
L 4218 1472 
z
" transform="scale(0.015625)"/>
       <path id="CMR17-37" d="M 2886 3955 
L 2886 4096 
L 1382 4096 
C 634 4096 621 4166 595 4288 
L 480 4288 
L 294 3104 
L 410 3104 
C 429 3226 474 3552 550 3673 
C 589 3724 1062 3724 1171 3724 
L 2579 3724 
L 1869 2670 
C 1395 1961 1069 1003 1069 166 
C 1069 89 1069 -128 1299 -128 
C 1530 -128 1530 89 1530 172 
L 1530 466 
C 1530 1514 1709 2204 2003 2644 
L 2886 3955 
z
" transform="scale(0.015625)"/>
       <path id="CMMI12-3a" d="M 1178 307 
C 1178 492 1024 620 870 620 
C 685 620 557 467 557 313 
C 557 128 710 0 864 0 
C 1050 0 1178 153 1178 307 
z
" transform="scale(0.015625)"/>
       <path id="CMR17-35" d="M 730 3750 
C 794 3724 1056 3641 1325 3641 
C 1920 3641 2246 3961 2432 4140 
C 2432 4191 2432 4224 2394 4224 
C 2387 4224 2374 4224 2323 4198 
C 2099 4102 1837 4032 1517 4032 
C 1325 4032 1037 4055 723 4191 
C 653 4224 640 4224 634 4224 
C 602 4224 595 4217 595 4090 
L 595 2231 
C 595 2113 595 2080 659 2080 
C 691 2080 704 2093 736 2139 
C 941 2435 1222 2560 1542 2560 
C 1766 2560 2246 2415 2246 1293 
C 2246 1087 2246 716 2054 422 
C 1894 159 1645 25 1370 25 
C 947 25 518 319 403 812 
C 429 806 480 793 506 793 
C 589 793 749 838 749 1036 
C 749 1209 627 1280 506 1280 
C 358 1280 262 1190 262 1011 
C 262 454 704 -128 1382 -128 
C 2042 -128 2669 441 2669 1267 
C 2669 2054 2170 2662 1549 2662 
C 1222 2662 947 2540 730 2304 
L 730 3750 
z
" transform="scale(0.015625)"/>
      </defs>
      <use xlink:href="#CMSY10-0" transform="scale(0.996264)"/>
      <use xlink:href="#CMR17-37" transform="translate(77.487468 0)scale(0.996264)"/>
      <use xlink:href="#CMMI12-3a" transform="translate(123.177945 0)scale(0.996264)"/>
      <use xlink:href="#CMR17-35" transform="translate(150.275122 0)scale(0.996264)"/>
     </g>
    </g>
   </g>
   <g id="xtick_2">
    <g id="line2d_3">
     <path d="M 221.879273 330.410329 
L 218.380819 333.430457 
" style="fill: none; stroke: #000000; stroke-width: 0.8; stroke-linecap: square"/>
    </g>
    <g id="text_3">
     <!-- $\mathdefault{−5.0}$ -->
     <g transform="translate(202.969877 354.118065)scale(0.1 -0.1)">
      <defs>
       <path id="CMR17-30" d="M 2688 2038 
C 2688 2430 2682 3099 2413 3613 
C 2176 4063 1798 4224 1466 4224 
C 1158 4224 768 4082 525 3620 
C 269 3137 243 2539 243 2038 
C 243 1671 250 1112 448 623 
C 723 -39 1216 -128 1466 -128 
C 1760 -128 2208 -7 2470 604 
C 2662 1048 2688 1568 2688 2038 
z
M 1466 -26 
C 1056 -26 813 328 723 816 
C 653 1196 653 1749 653 2109 
C 653 2604 653 3015 736 3407 
C 858 3954 1216 4121 1466 4121 
C 1728 4121 2067 3947 2189 3420 
C 2272 3054 2278 2623 2278 2109 
C 2278 1691 2278 1176 2202 797 
C 2067 96 1690 -26 1466 -26 
z
" transform="scale(0.015625)"/>
      </defs>
      <use xlink:href="#CMSY10-0" transform="scale(0.996264)"/>
      <use xlink:href="#CMR17-35" transform="translate(77.487468 0)scale(0.996264)"/>
      <use xlink:href="#CMMI12-3a" transform="translate(123.177945 0)scale(0.996264)"/>
      <use xlink:href="#CMR17-30" transform="translate(150.275122 0)scale(0.996264)"/>
     </g>
    </g>
   </g>
   <g id="xtick_3">
    <g id="line2d_4">
     <path d="M 247.647241 338.817831 
L 244.183635 341.874362 
" style="fill: none; stroke: #000000; stroke-width: 0.8; stroke-linecap: square"/>
    </g>
    <g id="text_4">
     <!-- $\mathdefault{−2.5}$ -->
     <g transform="translate(228.767 362.653202)scale(0.1 -0.1)">
      <defs>
       <path id="CMR17-32" d="M 2669 990 
L 2554 990 
C 2490 537 2438 460 2413 422 
C 2381 371 1920 371 1830 371 
L 602 371 
C 832 620 1280 1073 1824 1596 
C 2214 1966 2669 2400 2669 3033 
C 2669 3788 2067 4224 1395 4224 
C 691 4224 262 3603 262 3027 
C 262 2777 448 2745 525 2745 
C 589 2745 781 2783 781 3007 
C 781 3206 614 3264 525 3264 
C 486 3264 448 3257 422 3244 
C 544 3788 915 4057 1306 4057 
C 1862 4057 2227 3616 2227 3033 
C 2227 2477 1901 1998 1536 1583 
L 262 147 
L 262 0 
L 2515 0 
L 2669 990 
z
" transform="scale(0.015625)"/>
      </defs>
      <use xlink:href="#CMSY10-0" transform="scale(0.996264)"/>
      <use xlink:href="#CMR17-32" transform="translate(77.487468 0)scale(0.996264)"/>
      <use xlink:href="#CMMI12-3a" transform="translate(123.177945 0)scale(0.996264)"/>
      <use xlink:href="#CMR17-35" transform="translate(150.275122 0)scale(0.996264)"/>
     </g>
    </g>
   </g>
   <g id="xtick_4">
    <g id="line2d_5">
     <path d="M 273.726405 347.326869 
L 270.298749 350.420466 
" style="fill: none; stroke: #000000; stroke-width: 0.8; stroke-linecap: square"/>
    </g>
    <g id="text_5">
     <!-- $\mathdefault{0.0}$ -->
     <g transform="translate(258.751034 371.291745)scale(0.1 -0.1)">
      <use xlink:href="#CMR17-30" transform="scale(0.996264)"/>
      <use xlink:href="#CMMI12-3a" transform="translate(45.690477 0)scale(0.996264)"/>
      <use xlink:href="#CMR17-30" transform="translate(72.787654 0)scale(0.996264)"/>
     </g>
    </g>
   </g>
   <g id="xtick_5">
    <g id="line2d_6">
     <path d="M 300.122438 355.939294 
L 296.731865 359.070635 
" style="fill: none; stroke: #000000; stroke-width: 0.8; stroke-linecap: square"/>
    </g>
    <g id="text_6">
     <!-- $\mathdefault{2.5}$ -->
     <g transform="translate(285.178948 380.035584)scale(0.1 -0.1)">
      <use xlink:href="#CMR17-32" transform="scale(0.996264)"/>
      <use xlink:href="#CMMI12-3a" transform="translate(45.690477 0)scale(0.996264)"/>
      <use xlink:href="#CMR17-35" transform="translate(72.787654 0)scale(0.996264)"/>
     </g>
    </g>
   </g>
   <g id="xtick_6">
    <g id="line2d_7">
     <path d="M 326.84115 364.657002 
L 323.488827 367.826781 
" style="fill: none; stroke: #000000; stroke-width: 0.8; stroke-linecap: square"/>
    </g>
    <g id="text_7">
     <!-- $\mathdefault{5.0}$ -->
     <g transform="translate(311.93097 388.886656)scale(0.1 -0.1)">
      <use xlink:href="#CMR17-35" transform="scale(0.996264)"/>
      <use xlink:href="#CMMI12-3a" transform="translate(45.690477 0)scale(0.996264)"/>
      <use xlink:href="#CMR17-30" transform="translate(72.787654 0)scale(0.996264)"/>
     </g>
    </g>
   </g>
   <g id="xtick_7">
    <g id="line2d_8">
     <path d="M 353.888494 373.481935 
L 350.575622 376.690865 
" style="fill: none; stroke: #000000; stroke-width: 0.8; stroke-linecap: square"/>
    </g>
    <g id="text_8">
     <!-- $\mathdefault{7.5}$ -->
     <g transform="translate(339.013098 397.846945)scale(0.1 -0.1)">
      <use xlink:href="#CMR17-37" transform="scale(0.996264)"/>
      <use xlink:href="#CMMI12-3a" transform="translate(45.690477 0)scale(0.996264)"/>
      <use xlink:href="#CMR17-35" transform="translate(72.787654 0)scale(0.996264)"/>
     </g>
    </g>
   </g>
   <g id="xtick_8">
    <g id="line2d_9">
     <path d="M 381.27057 382.416083 
L 377.998388 385.664894 
" style="fill: none; stroke: #000000; stroke-width: 0.8; stroke-linecap: square"/>
    </g>
    <g id="text_9">
     <!-- $\mathdefault{10.0}$ -->
     <g transform="translate(363.940812 406.918486)scale(0.1 -0.1)">
      <use xlink:href="#CMR17-31" transform="scale(0.996264)"/>
      <use xlink:href="#CMR17-30" transform="translate(45.690477 0)scale(0.996264)"/>
      <use xlink:href="#CMMI12-3a" transform="translate(91.380954 0)scale(0.996264)"/>
      <use xlink:href="#CMR17-30" transform="translate(118.478131 0)scale(0.996264)"/>
     </g>
    </g>
   </g>
   <g id="xtick_9">
    <g id="line2d_10">
     <path d="M 408.993631 391.461488 
L 405.763414 394.750927 
" style="fill: none; stroke: #000000; stroke-width: 0.8; stroke-linecap: square"/>
    </g>
    <g id="text_10">
     <!-- $\mathdefault{12.5}$ -->
     <g transform="translate(391.701749 416.103364)scale(0.1 -0.1)">
      <use xlink:href="#CMR17-31" transform="scale(0.996264)"/>
      <use xlink:href="#CMR17-32" transform="translate(45.690477 0)scale(0.996264)"/>
      <use xlink:href="#CMMI12-3a" transform="translate(91.380954 0)scale(0.996264)"/>
      <use xlink:href="#CMR17-35" transform="translate(118.478131 0)scale(0.996264)"/>
     </g>
    </g>
   </g>
  </g>
  <g id="axis3d_2">
   <g id="line2d_11">
    <path d="M 538.788767 269.617578 
L 416.320301 395.300351 
" style="fill: none; stroke: #000000; stroke-width: 0.8; stroke-linecap: square"/>
   </g>
   <g id="text_11">
    <!-- $\tilde{x}_{2,:}$ -->
    <g transform="translate(501.621649 368.177913)rotate(-45.742112)scale(0.18 -0.18)">
     <use xlink:href="#CMR17-7e" transform="translate(7.581509 0.006461)scale(0.996264)"/>
     <use xlink:href="#CMMI12-78" transform="scale(0.996264)"/>
     <use xlink:href="#CMR17-32" transform="translate(55.43406 -14.943915)scale(0.697382)"/>
     <use xlink:href="#CMMI12-3b" transform="translate(87.417241 -14.943915)scale(0.697382)"/>
     <use xlink:href="#CMR17-3a" transform="translate(106.385174 -14.943915)scale(0.697382)"/>
    </g>
   </g>
   <g id="xtick_10">
    <g id="line2d_12">
     <path d="M 430.485293 378.164226 
L 436.275127 380.027196 
" style="fill: none; stroke: #000000; stroke-width: 0.8; stroke-linecap: square"/>
    </g>
    <g id="text_12">
     <!-- $\mathdefault{0.0}$ -->
     <g transform="translate(438.860267 399.048575)scale(0.1 -0.1)">
      <use xlink:href="#CMR17-30" transform="scale(0.996264)"/>
      <use xlink:href="#CMMI12-3a" transform="translate(45.690477 0)scale(0.996264)"/>
      <use xlink:href="#CMR17-30" transform="translate(72.787654 0)scale(0.996264)"/>
     </g>
    </g>
   </g>
   <g id="xtick_11">
    <g id="line2d_13">
     <path d="M 445.435863 362.848747 
L 451.183426 364.672505 
" style="fill: none; stroke: #000000; stroke-width: 0.8; stroke-linecap: square"/>
    </g>
    <g id="text_13">
     <!-- $\mathdefault{2.5}$ -->
     <g transform="translate(453.666909 383.572966)scale(0.1 -0.1)">
      <use xlink:href="#CMR17-32" transform="scale(0.996264)"/>
      <use xlink:href="#CMMI12-3a" transform="translate(45.690477 0)scale(0.996264)"/>
      <use xlink:href="#CMR17-35" transform="translate(72.787654 0)scale(0.996264)"/>
     </g>
    </g>
   </g>
   <g id="xtick_12">
    <g id="line2d_14">
     <path d="M 460.073584 347.853753 
L 465.779368 349.639524 
" style="fill: none; stroke: #000000; stroke-width: 0.8; stroke-linecap: square"/>
    </g>
    <g id="text_14">
     <!-- $\mathdefault{5.0}$ -->
     <g transform="translate(468.163467 368.421452)scale(0.1 -0.1)">
      <use xlink:href="#CMR17-35" transform="scale(0.996264)"/>
      <use xlink:href="#CMMI12-3a" transform="translate(45.690477 0)scale(0.996264)"/>
      <use xlink:href="#CMR17-30" transform="translate(72.787654 0)scale(0.996264)"/>
     </g>
    </g>
   </g>
   <g id="xtick_13">
    <g id="line2d_15">
     <path d="M 474.408175 333.169289 
L 480.072668 334.918247 
" style="fill: none; stroke: #000000; stroke-width: 0.8; stroke-linecap: square"/>
    </g>
    <g id="text_15">
     <!-- $\mathdefault{7.5}$ -->
     <g transform="translate(482.359581 353.583956)scale(0.1 -0.1)">
      <use xlink:href="#CMR17-37" transform="scale(0.996264)"/>
      <use xlink:href="#CMMI12-3a" transform="translate(45.690477 0)scale(0.996264)"/>
      <use xlink:href="#CMR17-35" transform="translate(72.787654 0)scale(0.996264)"/>
     </g>
    </g>
   </g>
   <g id="xtick_14">
    <g id="line2d_16">
     <path d="M 488.448954 318.785806 
L 494.072641 320.499078 
" style="fill: none; stroke: #000000; stroke-width: 0.8; stroke-linecap: square"/>
    </g>
    <g id="text_16">
     <!-- $\mathdefault{10.0}$ -->
     <g transform="translate(493.773827 339.050816)scale(0.1 -0.1)">
      <use xlink:href="#CMR17-31" transform="scale(0.996264)"/>
      <use xlink:href="#CMR17-30" transform="translate(45.690477 0)scale(0.996264)"/>
      <use xlink:href="#CMMI12-3a" transform="translate(91.380954 0)scale(0.996264)"/>
      <use xlink:href="#CMR17-30" transform="translate(118.478131 0)scale(0.996264)"/>
     </g>
    </g>
   </g>
   <g id="xtick_15">
    <g id="line2d_17">
     <path d="M 502.204865 304.694146 
L 507.788227 306.372814 
" style="fill: none; stroke: #000000; stroke-width: 0.8; stroke-linecap: square"/>
    </g>
    <g id="text_17">
     <!-- $\mathdefault{12.5}$ -->
     <g transform="translate(507.39641 324.812764)scale(0.1 -0.1)">
      <use xlink:href="#CMR17-31" transform="scale(0.996264)"/>
      <use xlink:href="#CMR17-32" transform="translate(45.690477 0)scale(0.996264)"/>
      <use xlink:href="#CMMI12-3a" transform="translate(91.380954 0)scale(0.996264)"/>
      <use xlink:href="#CMR17-35" transform="translate(118.478131 0)scale(0.996264)"/>
     </g>
    </g>
   </g>
   <g id="xtick_16">
    <g id="line2d_18">
     <path d="M 515.684488 290.885517 
L 521.228002 292.530617 
" style="fill: none; stroke: #000000; stroke-width: 0.8; stroke-linecap: square"/>
    </g>
    <g id="text_18">
     <!-- $\mathdefault{15.0}$ -->
     <g transform="translate(520.745174 310.8609)scale(0.1 -0.1)">
      <use xlink:href="#CMR17-31" transform="scale(0.996264)"/>
      <use xlink:href="#CMR17-35" transform="translate(45.690477 0)scale(0.996264)"/>
      <use xlink:href="#CMMI12-3a" transform="translate(91.380954 0)scale(0.996264)"/>
      <use xlink:href="#CMR17-30" transform="translate(118.478131 0)scale(0.996264)"/>
     </g>
    </g>
   </g>
   <g id="xtick_17">
    <g id="line2d_19">
     <path d="M 528.896065 277.351476 
L 534.400205 278.964006 
" style="fill: none; stroke: #000000; stroke-width: 0.8; stroke-linecap: square"/>
    </g>
    <g id="text_19">
     <!-- $\mathdefault{17.5}$ -->
     <g transform="translate(533.828294 297.186684)scale(0.1 -0.1)">
      <use xlink:href="#CMR17-31" transform="scale(0.996264)"/>
      <use xlink:href="#CMR17-37" transform="translate(45.690477 0)scale(0.996264)"/>
      <use xlink:href="#CMMI12-3a" transform="translate(91.380954 0)scale(0.996264)"/>
      <use xlink:href="#CMR17-35" transform="translate(118.478131 0)scale(0.996264)"/>
     </g>
    </g>
   </g>
  </g>
  <g id="axis3d_3">
   <g id="line2d_20">
    <path d="M 538.788767 269.617578 
L 546.549621 100.140361 
" style="fill: none; stroke: #000000; stroke-width: 0.8; stroke-linecap: square"/>
   </g>
   <g id="text_20">
    <!-- $\tilde{x}_{3,:}$ -->
    <g transform="translate(585.842946 192.929266)rotate(-87.378092)scale(0.18 -0.18)">
     <defs>
      <path id="CMR17-33" d="M 1414 2176 
C 1984 2176 2234 1673 2234 1094 
C 2234 322 1824 25 1453 25 
C 1114 25 563 193 390 691 
C 422 678 454 678 486 678 
C 640 678 755 780 755 947 
C 755 1132 614 1216 486 1216 
C 378 1216 211 1164 211 927 
C 211 335 787 -128 1466 -128 
C 2176 -128 2720 432 2720 1087 
C 2720 1718 2208 2176 1600 2246 
C 2086 2347 2554 2776 2554 3353 
C 2554 3856 2048 4224 1472 4224 
C 890 4224 378 3862 378 3347 
C 378 3123 544 3084 627 3084 
C 762 3084 877 3167 877 3334 
C 877 3500 762 3584 627 3584 
C 602 3584 570 3584 544 3571 
C 730 3999 1235 4076 1459 4076 
C 1683 4076 2106 3966 2106 3347 
C 2106 3167 2080 2851 1862 2574 
C 1670 2329 1453 2316 1242 2297 
C 1210 2297 1062 2284 1037 2284 
C 992 2278 966 2272 966 2227 
C 966 2182 973 2176 1101 2176 
L 1414 2176 
z
" transform="scale(0.015625)"/>
     </defs>
     <use xlink:href="#CMR17-7e" transform="translate(7.581509 0.006461)scale(0.996264)"/>
     <use xlink:href="#CMMI12-78" transform="scale(0.996264)"/>
     <use xlink:href="#CMR17-33" transform="translate(55.43406 -14.943915)scale(0.697382)"/>
     <use xlink:href="#CMMI12-3b" transform="translate(87.417241 -14.943915)scale(0.697382)"/>
     <use xlink:href="#CMR17-3a" transform="translate(106.385174 -14.943915)scale(0.697382)"/>
    </g>
   </g>
   <g id="xtick_18">
    <g id="line2d_21">
     <path d="M 537.193989 264.000946 
L 542.681579 265.589835 
" style="fill: none; stroke: #000000; stroke-width: 0.8; stroke-linecap: square"/>
    </g>
    <g id="text_21">
     <!-- $\mathdefault{−15.0}$ -->
     <g transform="translate(544.583615 268.847322)scale(0.1 -0.1)">
      <use xlink:href="#CMSY10-0" transform="scale(0.996264)"/>
      <use xlink:href="#CMR17-31" transform="translate(77.487468 0)scale(0.996264)"/>
      <use xlink:href="#CMR17-35" transform="translate(123.177945 0)scale(0.996264)"/>
      <use xlink:href="#CMMI12-3a" transform="translate(168.868422 0)scale(0.996264)"/>
      <use xlink:href="#CMR17-30" transform="translate(195.965599 0)scale(0.996264)"/>
     </g>
    </g>
   </g>
   <g id="xtick_19">
    <g id="line2d_22">
     <path d="M 538.133248 243.268647 
L 543.652025 244.841419 
" style="fill: none; stroke: #000000; stroke-width: 0.8; stroke-linecap: square"/>
    </g>
    <g id="text_22">
     <!-- $\mathdefault{−12.5}$ -->
     <g transform="translate(545.63133 248.136074)scale(0.1 -0.1)">
      <use xlink:href="#CMSY10-0" transform="scale(0.996264)"/>
      <use xlink:href="#CMR17-31" transform="translate(77.487468 0)scale(0.996264)"/>
      <use xlink:href="#CMR17-32" transform="translate(123.177945 0)scale(0.996264)"/>
      <use xlink:href="#CMMI12-3a" transform="translate(168.868422 0)scale(0.996264)"/>
      <use xlink:href="#CMR17-35" transform="translate(195.965599 0)scale(0.996264)"/>
     </g>
    </g>
   </g>
   <g id="xtick_20">
    <g id="line2d_23">
     <path d="M 539.082841 222.308206 
L 544.633164 223.864408 
" style="fill: none; stroke: #000000; stroke-width: 0.8; stroke-linecap: square"/>
    </g>
    <g id="text_23">
     <!-- $\mathdefault{−10.0}$ -->
     <g transform="translate(546.690556 227.197274)scale(0.1 -0.1)">
      <use xlink:href="#CMSY10-0" transform="scale(0.996264)"/>
      <use xlink:href="#CMR17-31" transform="translate(77.487468 0)scale(0.996264)"/>
      <use xlink:href="#CMR17-30" transform="translate(123.177945 0)scale(0.996264)"/>
      <use xlink:href="#CMMI12-3a" transform="translate(168.868422 0)scale(0.996264)"/>
      <use xlink:href="#CMR17-30" transform="translate(195.965599 0)scale(0.996264)"/>
     </g>
    </g>
   </g>
   <g id="xtick_21">
    <g id="line2d_24">
     <path d="M 540.042943 201.115836 
L 545.625172 202.655003 
" style="fill: none; stroke: #000000; stroke-width: 0.8; stroke-linecap: square"/>
    </g>
    <g id="text_24">
     <!-- $\mathdefault{−7.5}$ -->
     <g transform="translate(550.252151 206.027149)scale(0.1 -0.1)">
      <use xlink:href="#CMSY10-0" transform="scale(0.996264)"/>
      <use xlink:href="#CMR17-37" transform="translate(77.487468 0)scale(0.996264)"/>
      <use xlink:href="#CMMI12-3a" transform="translate(123.177945 0)scale(0.996264)"/>
      <use xlink:href="#CMR17-35" transform="translate(150.275122 0)scale(0.996264)"/>
     </g>
    </g>
   </g>
   <g id="xtick_22">
    <g id="line2d_25">
     <path d="M 541.013727 179.687666 
L 546.628231 181.209321 
" style="fill: none; stroke: #000000; stroke-width: 0.8; stroke-linecap: square"/>
    </g>
    <g id="text_25">
     <!-- $\mathdefault{−5.0}$ -->
     <g transform="translate(551.334976 184.621846)scale(0.1 -0.1)">
      <use xlink:href="#CMSY10-0" transform="scale(0.996264)"/>
      <use xlink:href="#CMR17-35" transform="translate(77.487468 0)scale(0.996264)"/>
      <use xlink:href="#CMMI12-3a" transform="translate(123.177945 0)scale(0.996264)"/>
      <use xlink:href="#CMR17-30" transform="translate(150.275122 0)scale(0.996264)"/>
     </g>
    </g>
   </g>
   <g id="xtick_23">
    <g id="line2d_26">
     <path d="M 541.995373 158.019738 
L 547.642528 159.523392 
" style="fill: none; stroke: #000000; stroke-width: 0.8; stroke-linecap: square"/>
    </g>
    <g id="text_26">
     <!-- $\mathdefault{−2.5}$ -->
     <g transform="translate(552.429897 162.977423)scale(0.1 -0.1)">
      <use xlink:href="#CMSY10-0" transform="scale(0.996264)"/>
      <use xlink:href="#CMR17-32" transform="translate(77.487468 0)scale(0.996264)"/>
      <use xlink:href="#CMMI12-3a" transform="translate(123.177945 0)scale(0.996264)"/>
      <use xlink:href="#CMR17-35" transform="translate(150.275122 0)scale(0.996264)"/>
     </g>
    </g>
   </g>
   <g id="xtick_24">
    <g id="line2d_27">
     <path d="M 542.988064 136.108006 
L 548.66825 137.593156 
" style="fill: none; stroke: #000000; stroke-width: 0.8; stroke-linecap: square"/>
    </g>
    <g id="text_27">
     <!-- $\mathdefault{0.0}$ -->
     <g transform="translate(557.41149 141.089851)scale(0.1 -0.1)">
      <use xlink:href="#CMR17-30" transform="scale(0.996264)"/>
      <use xlink:href="#CMMI12-3a" transform="translate(45.690477 0)scale(0.996264)"/>
      <use xlink:href="#CMR17-30" transform="translate(72.787654 0)scale(0.996264)"/>
     </g>
    </g>
   </g>
   <g id="xtick_25">
    <g id="line2d_28">
     <path d="M 543.991988 113.948331 
L 549.705594 115.41446 
" style="fill: none; stroke: #000000; stroke-width: 0.8; stroke-linecap: square"/>
    </g>
    <g id="text_28">
     <!-- $\mathdefault{2.5}$ -->
     <g transform="translate(558.53122 118.95501)scale(0.1 -0.1)">
      <use xlink:href="#CMR17-32" transform="scale(0.996264)"/>
      <use xlink:href="#CMMI12-3a" transform="translate(45.690477 0)scale(0.996264)"/>
      <use xlink:href="#CMR17-35" transform="translate(72.787654 0)scale(0.996264)"/>
     </g>
    </g>
   </g>
  </g>
  <g id="axes_1">
   <g id="line2d_29">
    <path d="M 395.058235 338.074207 
L 366.065488 269.171041 
" clip-path="url(#p0b1bad31fa)" style="fill: none; stroke: #ff0029; stroke-width: 1.5; stroke-linecap: square"/>
    <defs>
     <path id="mb190bdfca3" d="M 0 1 
C 0.265203 1 0.51958 0.894634 0.707107 0.707107 
C 0.894634 0.51958 1 0.265203 1 0 
C 1 -0.265203 0.894634 -0.51958 0.707107 -0.707107 
C 0.51958 -0.894634 0.265203 -1 0 -1 
C -0.265203 -1 -0.51958 -0.894634 -0.707107 -0.707107 
C -0.894634 -0.51958 -1 -0.265203 -1 0 
C -1 0.265203 -0.894634 0.51958 -0.707107 0.707107 
C -0.51958 0.894634 -0.265203 1 0 1 
z
" style="stroke: #ff0029"/>
    </defs>
    <g clip-path="url(#p0b1bad31fa)">
     <use xlink:href="#mb190bdfca3" x="395.058235" y="338.074207" style="fill: #ff0029; stroke: #ff0029"/>
     <use xlink:href="#mb190bdfca3" x="366.065488" y="269.171041" style="fill: #ff0029; stroke: #ff0029"/>
    </g>
   </g>
   <g id="line2d_30">
    <path d="M 366.065488 269.171041 
L 268.973578 177.72981 
" clip-path="url(#p0b1bad31fa)" style="fill: none; stroke: #ff0600; stroke-width: 1.5; stroke-linecap: square"/>
    <defs>
     <path id="mb23dc48f2e" d="M 0 1 
C 0.265203 1 0.51958 0.894634 0.707107 0.707107 
C 0.894634 0.51958 1 0.265203 1 0 
C 1 -0.265203 0.894634 -0.51958 0.707107 -0.707107 
C 0.51958 -0.894634 0.265203 -1 0 -1 
C -0.265203 -1 -0.51958 -0.894634 -0.707107 -0.707107 
C -0.894634 -0.51958 -1 -0.265203 -1 0 
C -1 0.265203 -0.894634 0.51958 -0.707107 0.707107 
C -0.51958 0.894634 -0.265203 1 0 1 
z
" style="stroke: #ff0600"/>
    </defs>
    <g clip-path="url(#p0b1bad31fa)">
     <use xlink:href="#mb23dc48f2e" x="366.065488" y="269.171041" style="fill: #ff0600; stroke: #ff0600"/>
     <use xlink:href="#mb23dc48f2e" x="268.973578" y="177.72981" style="fill: #ff0600; stroke: #ff0600"/>
    </g>
   </g>
   <g id="line2d_31">
    <path d="M 268.973578 177.72981 
L 287.383367 177.979776 
" clip-path="url(#p0b1bad31fa)" style="fill: none; stroke: #ff3600; stroke-width: 1.5; stroke-linecap: square"/>
    <defs>
     <path id="mb0718c3eac" d="M 0 1 
C 0.265203 1 0.51958 0.894634 0.707107 0.707107 
C 0.894634 0.51958 1 0.265203 1 0 
C 1 -0.265203 0.894634 -0.51958 0.707107 -0.707107 
C 0.51958 -0.894634 0.265203 -1 0 -1 
C -0.265203 -1 -0.51958 -0.894634 -0.707107 -0.707107 
C -0.894634 -0.51958 -1 -0.265203 -1 0 
C -1 0.265203 -0.894634 0.51958 -0.707107 0.707107 
C -0.51958 0.894634 -0.265203 1 0 1 
z
" style="stroke: #ff3600"/>
    </defs>
    <g clip-path="url(#p0b1bad31fa)">
     <use xlink:href="#mb0718c3eac" x="268.973578" y="177.72981" style="fill: #ff3600; stroke: #ff3600"/>
     <use xlink:href="#mb0718c3eac" x="287.383367" y="177.979776" style="fill: #ff3600; stroke: #ff3600"/>
    </g>
   </g>
   <g id="line2d_32">
    <path d="M 287.383367 177.979776 
L 309.524598 168.310318 
" clip-path="url(#p0b1bad31fa)" style="fill: none; stroke: #ff6500; stroke-width: 1.5; stroke-linecap: square"/>
    <defs>
     <path id="mea5ffcb0a0" d="M 0 1 
C 0.265203 1 0.51958 0.894634 0.707107 0.707107 
C 0.894634 0.51958 1 0.265203 1 0 
C 1 -0.265203 0.894634 -0.51958 0.707107 -0.707107 
C 0.51958 -0.894634 0.265203 -1 0 -1 
C -0.265203 -1 -0.51958 -0.894634 -0.707107 -0.707107 
C -0.894634 -0.51958 -1 -0.265203 -1 0 
C -1 0.265203 -0.894634 0.51958 -0.707107 0.707107 
C -0.51958 0.894634 -0.265203 1 0 1 
z
" style="stroke: #ff6500"/>
    </defs>
    <g clip-path="url(#p0b1bad31fa)">
     <use xlink:href="#mea5ffcb0a0" x="287.383367" y="177.979776" style="fill: #ff6500; stroke: #ff6500"/>
     <use xlink:href="#mea5ffcb0a0" x="309.524598" y="168.310318" style="fill: #ff6500; stroke: #ff6500"/>
    </g>
   </g>
   <g id="line2d_33">
    <path d="M 309.524598 168.310318 
L 367.225839 276.204664 
" clip-path="url(#p0b1bad31fa)" style="fill: none; stroke: #ff9500; stroke-width: 1.5; stroke-linecap: square"/>
    <defs>
     <path id="me53f4a4b24" d="M 0 1 
C 0.265203 1 0.51958 0.894634 0.707107 0.707107 
C 0.894634 0.51958 1 0.265203 1 0 
C 1 -0.265203 0.894634 -0.51958 0.707107 -0.707107 
C 0.51958 -0.894634 0.265203 -1 0 -1 
C -0.265203 -1 -0.51958 -0.894634 -0.707107 -0.707107 
C -0.894634 -0.51958 -1 -0.265203 -1 0 
C -1 0.265203 -0.894634 0.51958 -0.707107 0.707107 
C -0.51958 0.894634 -0.265203 1 0 1 
z
" style="stroke: #ff9500"/>
    </defs>
    <g clip-path="url(#p0b1bad31fa)">
     <use xlink:href="#me53f4a4b24" x="309.524598" y="168.310318" style="fill: #ff9500; stroke: #ff9500"/>
     <use xlink:href="#me53f4a4b24" x="367.225839" y="276.204664" style="fill: #ff9500; stroke: #ff9500"/>
    </g>
   </g>
   <g id="line2d_34">
    <path d="M 367.225839 276.204664 
L 458.275052 157.296635 
" clip-path="url(#p0b1bad31fa)" style="fill: none; stroke: #ffc400; stroke-width: 1.5; stroke-linecap: square"/>
    <defs>
     <path id="m23e2cbeeb1" d="M 0 1 
C 0.265203 1 0.51958 0.894634 0.707107 0.707107 
C 0.894634 0.51958 1 0.265203 1 0 
C 1 -0.265203 0.894634 -0.51958 0.707107 -0.707107 
C 0.51958 -0.894634 0.265203 -1 0 -1 
C -0.265203 -1 -0.51958 -0.894634 -0.707107 -0.707107 
C -0.894634 -0.51958 -1 -0.265203 -1 0 
C -1 0.265203 -0.894634 0.51958 -0.707107 0.707107 
C -0.51958 0.894634 -0.265203 1 0 1 
z
" style="stroke: #ffc400"/>
    </defs>
    <g clip-path="url(#p0b1bad31fa)">
     <use xlink:href="#m23e2cbeeb1" x="367.225839" y="276.204664" style="fill: #ffc400; stroke: #ffc400"/>
     <use xlink:href="#m23e2cbeeb1" x="458.275052" y="157.296635" style="fill: #ffc400; stroke: #ffc400"/>
    </g>
   </g>
   <g id="line2d_35">
    <path d="M 458.275052 157.296635 
L 300.829142 150.406877 
" clip-path="url(#p0b1bad31fa)" style="fill: none; stroke: #fff400; stroke-width: 1.5; stroke-linecap: square"/>
    <defs>
     <path id="m23a35a2c4a" d="M 0 1 
C 0.265203 1 0.51958 0.894634 0.707107 0.707107 
C 0.894634 0.51958 1 0.265203 1 0 
C 1 -0.265203 0.894634 -0.51958 0.707107 -0.707107 
C 0.51958 -0.894634 0.265203 -1 0 -1 
C -0.265203 -1 -0.51958 -0.894634 -0.707107 -0.707107 
C -0.894634 -0.51958 -1 -0.265203 -1 0 
C -1 0.265203 -0.894634 0.51958 -0.707107 0.707107 
C -0.51958 0.894634 -0.265203 1 0 1 
z
" style="stroke: #fff400"/>
    </defs>
    <g clip-path="url(#p0b1bad31fa)">
     <use xlink:href="#m23a35a2c4a" x="458.275052" y="157.296635" style="fill: #fff400; stroke: #fff400"/>
     <use xlink:href="#m23a35a2c4a" x="300.829142" y="150.406877" style="fill: #fff400; stroke: #fff400"/>
    </g>
   </g>
   <g id="line2d_36">
    <path d="M 300.829142 150.406877 
L 380.446216 206.600039 
" clip-path="url(#p0b1bad31fa)" style="fill: none; stroke: #dbff00; stroke-width: 1.5; stroke-linecap: square"/>
    <defs>
     <path id="md1fd3e7335" d="M 0 1 
C 0.265203 1 0.51958 0.894634 0.707107 0.707107 
C 0.894634 0.51958 1 0.265203 1 0 
C 1 -0.265203 0.894634 -0.51958 0.707107 -0.707107 
C 0.51958 -0.894634 0.265203 -1 0 -1 
C -0.265203 -1 -0.51958 -0.894634 -0.707107 -0.707107 
C -0.894634 -0.51958 -1 -0.265203 -1 0 
C -1 0.265203 -0.894634 0.51958 -0.707107 0.707107 
C -0.51958 0.894634 -0.265203 1 0 1 
z
" style="stroke: #dbff00"/>
    </defs>
    <g clip-path="url(#p0b1bad31fa)">
     <use xlink:href="#md1fd3e7335" x="300.829142" y="150.406877" style="fill: #dbff00; stroke: #dbff00"/>
     <use xlink:href="#md1fd3e7335" x="380.446216" y="206.600039" style="fill: #dbff00; stroke: #dbff00"/>
    </g>
   </g>
   <g id="line2d_37">
    <path d="M 380.446216 206.600039 
L 369.323766 146.283984 
" clip-path="url(#p0b1bad31fa)" style="fill: none; stroke: #abff00; stroke-width: 1.5; stroke-linecap: square"/>
    <defs>
     <path id="m10775f6780" d="M 0 1 
C 0.265203 1 0.51958 0.894634 0.707107 0.707107 
C 0.894634 0.51958 1 0.265203 1 0 
C 1 -0.265203 0.894634 -0.51958 0.707107 -0.707107 
C 0.51958 -0.894634 0.265203 -1 0 -1 
C -0.265203 -1 -0.51958 -0.894634 -0.707107 -0.707107 
C -0.894634 -0.51958 -1 -0.265203 -1 0 
C -1 0.265203 -0.894634 0.51958 -0.707107 0.707107 
C -0.51958 0.894634 -0.265203 1 0 1 
z
" style="stroke: #abff00"/>
    </defs>
    <g clip-path="url(#p0b1bad31fa)">
     <use xlink:href="#m10775f6780" x="380.446216" y="206.600039" style="fill: #abff00; stroke: #abff00"/>
     <use xlink:href="#m10775f6780" x="369.323766" y="146.283984" style="fill: #abff00; stroke: #abff00"/>
    </g>
   </g>
   <g id="line2d_38">
    <path d="M 369.323766 146.283984 
L 362.850433 148.801491 
" clip-path="url(#p0b1bad31fa)" style="fill: none; stroke: #7cff00; stroke-width: 1.5; stroke-linecap: square"/>
    <defs>
     <path id="mb624f10486" d="M 0 1 
C 0.265203 1 0.51958 0.894634 0.707107 0.707107 
C 0.894634 0.51958 1 0.265203 1 0 
C 1 -0.265203 0.894634 -0.51958 0.707107 -0.707107 
C 0.51958 -0.894634 0.265203 -1 0 -1 
C -0.265203 -1 -0.51958 -0.894634 -0.707107 -0.707107 
C -0.894634 -0.51958 -1 -0.265203 -1 0 
C -1 0.265203 -0.894634 0.51958 -0.707107 0.707107 
C -0.51958 0.894634 -0.265203 1 0 1 
z
" style="stroke: #7cff00"/>
    </defs>
    <g clip-path="url(#p0b1bad31fa)">
     <use xlink:href="#mb624f10486" x="369.323766" y="146.283984" style="fill: #7cff00; stroke: #7cff00"/>
     <use xlink:href="#mb624f10486" x="362.850433" y="148.801491" style="fill: #7cff00; stroke: #7cff00"/>
    </g>
   </g>
   <g id="line2d_39">
    <path d="M 362.850433 148.801491 
L 341.623352 182.576712 
" clip-path="url(#p0b1bad31fa)" style="fill: none; stroke: #4cff00; stroke-width: 1.5; stroke-linecap: square"/>
    <defs>
     <path id="mc3f6687a78" d="M 0 1 
C 0.265203 1 0.51958 0.894634 0.707107 0.707107 
C 0.894634 0.51958 1 0.265203 1 0 
C 1 -0.265203 0.894634 -0.51958 0.707107 -0.707107 
C 0.51958 -0.894634 0.265203 -1 0 -1 
C -0.265203 -1 -0.51958 -0.894634 -0.707107 -0.707107 
C -0.894634 -0.51958 -1 -0.265203 -1 0 
C -1 0.265203 -0.894634 0.51958 -0.707107 0.707107 
C -0.51958 0.894634 -0.265203 1 0 1 
z
" style="stroke: #4cff00"/>
    </defs>
    <g clip-path="url(#p0b1bad31fa)">
     <use xlink:href="#mc3f6687a78" x="362.850433" y="148.801491" style="fill: #4cff00; stroke: #4cff00"/>
     <use xlink:href="#mc3f6687a78" x="341.623352" y="182.576712" style="fill: #4cff00; stroke: #4cff00"/>
    </g>
   </g>
   <g id="line2d_40">
    <path d="M 341.623352 182.576712 
L 456.299758 149.512565 
" clip-path="url(#p0b1bad31fa)" style="fill: none; stroke: #1dff00; stroke-width: 1.5; stroke-linecap: square"/>
    <defs>
     <path id="ma83a1906a4" d="M 0 1 
C 0.265203 1 0.51958 0.894634 0.707107 0.707107 
C 0.894634 0.51958 1 0.265203 1 0 
C 1 -0.265203 0.894634 -0.51958 0.707107 -0.707107 
C 0.51958 -0.894634 0.265203 -1 0 -1 
C -0.265203 -1 -0.51958 -0.894634 -0.707107 -0.707107 
C -0.894634 -0.51958 -1 -0.265203 -1 0 
C -1 0.265203 -0.894634 0.51958 -0.707107 0.707107 
C -0.51958 0.894634 -0.265203 1 0 1 
z
" style="stroke: #1dff00"/>
    </defs>
    <g clip-path="url(#p0b1bad31fa)">
     <use xlink:href="#ma83a1906a4" x="341.623352" y="182.576712" style="fill: #1dff00; stroke: #1dff00"/>
     <use xlink:href="#ma83a1906a4" x="456.299758" y="149.512565" style="fill: #1dff00; stroke: #1dff00"/>
    </g>
   </g>
   <g id="line2d_41">
    <path d="M 456.299758 149.512565 
L 271.099968 185.014501 
" clip-path="url(#p0b1bad31fa)" style="fill: none; stroke: #00ff13; stroke-width: 1.5; stroke-linecap: square"/>
    <defs>
     <path id="m1ccac3f8ff" d="M 0 1 
C 0.265203 1 0.51958 0.894634 0.707107 0.707107 
C 0.894634 0.51958 1 0.265203 1 0 
C 1 -0.265203 0.894634 -0.51958 0.707107 -0.707107 
C 0.51958 -0.894634 0.265203 -1 0 -1 
C -0.265203 -1 -0.51958 -0.894634 -0.707107 -0.707107 
C -0.894634 -0.51958 -1 -0.265203 -1 0 
C -1 0.265203 -0.894634 0.51958 -0.707107 0.707107 
C -0.51958 0.894634 -0.265203 1 0 1 
z
" style="stroke: #00ff13"/>
    </defs>
    <g clip-path="url(#p0b1bad31fa)">
     <use xlink:href="#m1ccac3f8ff" x="456.299758" y="149.512565" style="fill: #00ff13; stroke: #00ff13"/>
     <use xlink:href="#m1ccac3f8ff" x="271.099968" y="185.014501" style="fill: #00ff13; stroke: #00ff13"/>
    </g>
   </g>
   <g id="line2d_42">
    <path d="M 271.099968 185.014501 
L 419.210302 174.219204 
" clip-path="url(#p0b1bad31fa)" style="fill: none; stroke: #00ff42; stroke-width: 1.5; stroke-linecap: square"/>
    <defs>
     <path id="m8744e148e3" d="M 0 1 
C 0.265203 1 0.51958 0.894634 0.707107 0.707107 
C 0.894634 0.51958 1 0.265203 1 0 
C 1 -0.265203 0.894634 -0.51958 0.707107 -0.707107 
C 0.51958 -0.894634 0.265203 -1 0 -1 
C -0.265203 -1 -0.51958 -0.894634 -0.707107 -0.707107 
C -0.894634 -0.51958 -1 -0.265203 -1 0 
C -1 0.265203 -0.894634 0.51958 -0.707107 0.707107 
C -0.51958 0.894634 -0.265203 1 0 1 
z
" style="stroke: #00ff42"/>
    </defs>
    <g clip-path="url(#p0b1bad31fa)">
     <use xlink:href="#m8744e148e3" x="271.099968" y="185.014501" style="fill: #00ff42; stroke: #00ff42"/>
     <use xlink:href="#m8744e148e3" x="419.210302" y="174.219204" style="fill: #00ff42; stroke: #00ff42"/>
    </g>
   </g>
   <g id="line2d_43">
    <path d="M 419.210302 174.219204 
L 447.487115 270.897269 
" clip-path="url(#p0b1bad31fa)" style="fill: none; stroke: #00ff71; stroke-width: 1.5; stroke-linecap: square"/>
    <defs>
     <path id="m0b1e28e6df" d="M 0 1 
C 0.265203 1 0.51958 0.894634 0.707107 0.707107 
C 0.894634 0.51958 1 0.265203 1 0 
C 1 -0.265203 0.894634 -0.51958 0.707107 -0.707107 
C 0.51958 -0.894634 0.265203 -1 0 -1 
C -0.265203 -1 -0.51958 -0.894634 -0.707107 -0.707107 
C -0.894634 -0.51958 -1 -0.265203 -1 0 
C -1 0.265203 -0.894634 0.51958 -0.707107 0.707107 
C -0.51958 0.894634 -0.265203 1 0 1 
z
" style="stroke: #00ff71"/>
    </defs>
    <g clip-path="url(#p0b1bad31fa)">
     <use xlink:href="#m0b1e28e6df" x="419.210302" y="174.219204" style="fill: #00ff71; stroke: #00ff71"/>
     <use xlink:href="#m0b1e28e6df" x="447.487115" y="270.897269" style="fill: #00ff71; stroke: #00ff71"/>
    </g>
   </g>
   <g id="line2d_44">
    <path d="M 447.487115 270.897269 
L 445.597809 265.54133 
" clip-path="url(#p0b1bad31fa)" style="fill: none; stroke: #00ffa1; stroke-width: 1.5; stroke-linecap: square"/>
    <defs>
     <path id="mdeaa6673ce" d="M 0 1 
C 0.265203 1 0.51958 0.894634 0.707107 0.707107 
C 0.894634 0.51958 1 0.265203 1 0 
C 1 -0.265203 0.894634 -0.51958 0.707107 -0.707107 
C 0.51958 -0.894634 0.265203 -1 0 -1 
C -0.265203 -1 -0.51958 -0.894634 -0.707107 -0.707107 
C -0.894634 -0.51958 -1 -0.265203 -1 0 
C -1 0.265203 -0.894634 0.51958 -0.707107 0.707107 
C -0.51958 0.894634 -0.265203 1 0 1 
z
" style="stroke: #00ffa1"/>
    </defs>
    <g clip-path="url(#p0b1bad31fa)">
     <use xlink:href="#mdeaa6673ce" x="447.487115" y="270.897269" style="fill: #00ffa1; stroke: #00ffa1"/>
     <use xlink:href="#mdeaa6673ce" x="445.597809" y="265.54133" style="fill: #00ffa1; stroke: #00ffa1"/>
    </g>
   </g>
   <g id="line2d_45">
    <path d="M 445.597809 265.54133 
L 432.979349 262.564166 
" clip-path="url(#p0b1bad31fa)" style="fill: none; stroke: #00ffd0; stroke-width: 1.5; stroke-linecap: square"/>
    <defs>
     <path id="mf47f2ea4ee" d="M 0 1 
C 0.265203 1 0.51958 0.894634 0.707107 0.707107 
C 0.894634 0.51958 1 0.265203 1 0 
C 1 -0.265203 0.894634 -0.51958 0.707107 -0.707107 
C 0.51958 -0.894634 0.265203 -1 0 -1 
C -0.265203 -1 -0.51958 -0.894634 -0.707107 -0.707107 
C -0.894634 -0.51958 -1 -0.265203 -1 0 
C -1 0.265203 -0.894634 0.51958 -0.707107 0.707107 
C -0.51958 0.894634 -0.265203 1 0 1 
z
" style="stroke: #00ffd0"/>
    </defs>
    <g clip-path="url(#p0b1bad31fa)">
     <use xlink:href="#mf47f2ea4ee" x="445.597809" y="265.54133" style="fill: #00ffd0; stroke: #00ffd0"/>
     <use xlink:href="#mf47f2ea4ee" x="432.979349" y="262.564166" style="fill: #00ffd0; stroke: #00ffd0"/>
    </g>
   </g>
   <g id="line2d_46">
    <path d="M 432.979349 262.564166 
L 425.680139 258.231514 
" clip-path="url(#p0b1bad31fa)" style="fill: none; stroke: #00ffff; stroke-width: 1.5; stroke-linecap: square"/>
    <defs>
     <path id="m176b56a0ff" d="M 0 1 
C 0.265203 1 0.51958 0.894634 0.707107 0.707107 
C 0.894634 0.51958 1 0.265203 1 0 
C 1 -0.265203 0.894634 -0.51958 0.707107 -0.707107 
C 0.51958 -0.894634 0.265203 -1 0 -1 
C -0.265203 -1 -0.51958 -0.894634 -0.707107 -0.707107 
C -0.894634 -0.51958 -1 -0.265203 -1 0 
C -1 0.265203 -0.894634 0.51958 -0.707107 0.707107 
C -0.51958 0.894634 -0.265203 1 0 1 
z
" style="stroke: #00ffff"/>
    </defs>
    <g clip-path="url(#p0b1bad31fa)">
     <use xlink:href="#m176b56a0ff" x="432.979349" y="262.564166" style="fill: #00ffff; stroke: #00ffff"/>
     <use xlink:href="#m176b56a0ff" x="425.680139" y="258.231514" style="fill: #00ffff; stroke: #00ffff"/>
    </g>
   </g>
   <g id="line2d_47">
    <path d="M 425.680139 258.231514 
L 418.713088 253.209564 
" clip-path="url(#p0b1bad31fa)" style="fill: none; stroke: #00cfff; stroke-width: 1.5; stroke-linecap: square"/>
    <defs>
     <path id="mdfba18d725" d="M 0 1 
C 0.265203 1 0.51958 0.894634 0.707107 0.707107 
C 0.894634 0.51958 1 0.265203 1 0 
C 1 -0.265203 0.894634 -0.51958 0.707107 -0.707107 
C 0.51958 -0.894634 0.265203 -1 0 -1 
C -0.265203 -1 -0.51958 -0.894634 -0.707107 -0.707107 
C -0.894634 -0.51958 -1 -0.265203 -1 0 
C -1 0.265203 -0.894634 0.51958 -0.707107 0.707107 
C -0.51958 0.894634 -0.265203 1 0 1 
z
" style="stroke: #00cfff"/>
    </defs>
    <g clip-path="url(#p0b1bad31fa)">
     <use xlink:href="#mdfba18d725" x="425.680139" y="258.231514" style="fill: #00cfff; stroke: #00cfff"/>
     <use xlink:href="#mdfba18d725" x="418.713088" y="253.209564" style="fill: #00cfff; stroke: #00cfff"/>
    </g>
   </g>
   <g id="line2d_48">
    <path d="M 418.713088 253.209564 
L 408.937394 246.745184 
" clip-path="url(#p0b1bad31fa)" style="fill: none; stroke: #009fff; stroke-width: 1.5; stroke-linecap: square"/>
    <defs>
     <path id="m6edd89ba60" d="M 0 1 
C 0.265203 1 0.51958 0.894634 0.707107 0.707107 
C 0.894634 0.51958 1 0.265203 1 0 
C 1 -0.265203 0.894634 -0.51958 0.707107 -0.707107 
C 0.51958 -0.894634 0.265203 -1 0 -1 
C -0.265203 -1 -0.51958 -0.894634 -0.707107 -0.707107 
C -0.894634 -0.51958 -1 -0.265203 -1 0 
C -1 0.265203 -0.894634 0.51958 -0.707107 0.707107 
C -0.51958 0.894634 -0.265203 1 0 1 
z
" style="stroke: #009fff"/>
    </defs>
    <g clip-path="url(#p0b1bad31fa)">
     <use xlink:href="#m6edd89ba60" x="418.713088" y="253.209564" style="fill: #009fff; stroke: #009fff"/>
     <use xlink:href="#m6edd89ba60" x="408.937394" y="246.745184" style="fill: #009fff; stroke: #009fff"/>
    </g>
   </g>
   <g id="line2d_49">
    <path d="M 408.937394 246.745184 
L 363.010947 215.086942 
" clip-path="url(#p0b1bad31fa)" style="fill: none; stroke: #006fff; stroke-width: 1.5; stroke-linecap: square"/>
    <defs>
     <path id="mb0e8184291" d="M 0 1 
C 0.265203 1 0.51958 0.894634 0.707107 0.707107 
C 0.894634 0.51958 1 0.265203 1 0 
C 1 -0.265203 0.894634 -0.51958 0.707107 -0.707107 
C 0.51958 -0.894634 0.265203 -1 0 -1 
C -0.265203 -1 -0.51958 -0.894634 -0.707107 -0.707107 
C -0.894634 -0.51958 -1 -0.265203 -1 0 
C -1 0.265203 -0.894634 0.51958 -0.707107 0.707107 
C -0.51958 0.894634 -0.265203 1 0 1 
z
" style="stroke: #006fff"/>
    </defs>
    <g clip-path="url(#p0b1bad31fa)">
     <use xlink:href="#mb0e8184291" x="408.937394" y="246.745184" style="fill: #006fff; stroke: #006fff"/>
     <use xlink:href="#mb0e8184291" x="363.010947" y="215.086942" style="fill: #006fff; stroke: #006fff"/>
    </g>
   </g>
   <g id="line2d_50">
    <path d="M 363.010947 215.086942 
L 383.621149 193.293283 
" clip-path="url(#p0b1bad31fa)" style="fill: none; stroke: #0040ff; stroke-width: 1.5; stroke-linecap: square"/>
    <defs>
     <path id="mc81bc2f2ce" d="M 0 1 
C 0.265203 1 0.51958 0.894634 0.707107 0.707107 
C 0.894634 0.51958 1 0.265203 1 0 
C 1 -0.265203 0.894634 -0.51958 0.707107 -0.707107 
C 0.51958 -0.894634 0.265203 -1 0 -1 
C -0.265203 -1 -0.51958 -0.894634 -0.707107 -0.707107 
C -0.894634 -0.51958 -1 -0.265203 -1 0 
C -1 0.265203 -0.894634 0.51958 -0.707107 0.707107 
C -0.51958 0.894634 -0.265203 1 0 1 
z
" style="stroke: #0040ff"/>
    </defs>
    <g clip-path="url(#p0b1bad31fa)">
     <use xlink:href="#mc81bc2f2ce" x="363.010947" y="215.086942" style="fill: #0040ff; stroke: #0040ff"/>
     <use xlink:href="#mc81bc2f2ce" x="383.621149" y="193.293283" style="fill: #0040ff; stroke: #0040ff"/>
    </g>
   </g>
   <g id="line2d_51">
    <path d="M 383.621149 193.293283 
L 305.471596 229.055905 
" clip-path="url(#p0b1bad31fa)" style="fill: none; stroke: #0010ff; stroke-width: 1.5; stroke-linecap: square"/>
    <defs>
     <path id="m594dd6c738" d="M 0 1 
C 0.265203 1 0.51958 0.894634 0.707107 0.707107 
C 0.894634 0.51958 1 0.265203 1 0 
C 1 -0.265203 0.894634 -0.51958 0.707107 -0.707107 
C 0.51958 -0.894634 0.265203 -1 0 -1 
C -0.265203 -1 -0.51958 -0.894634 -0.707107 -0.707107 
C -0.894634 -0.51958 -1 -0.265203 -1 0 
C -1 0.265203 -0.894634 0.51958 -0.707107 0.707107 
C -0.51958 0.894634 -0.265203 1 0 1 
z
" style="stroke: #0010ff"/>
    </defs>
    <g clip-path="url(#p0b1bad31fa)">
     <use xlink:href="#m594dd6c738" x="383.621149" y="193.293283" style="fill: #0010ff; stroke: #0010ff"/>
     <use xlink:href="#m594dd6c738" x="305.471596" y="229.055905" style="fill: #0010ff; stroke: #0010ff"/>
    </g>
   </g>
   <g id="line2d_52">
    <path d="M 305.471596 229.055905 
L 349.788938 330.489555 
" clip-path="url(#p0b1bad31fa)" style="fill: none; stroke: #2000ff; stroke-width: 1.5; stroke-linecap: square"/>
    <defs>
     <path id="m6555ec3dac" d="M 0 1 
C 0.265203 1 0.51958 0.894634 0.707107 0.707107 
C 0.894634 0.51958 1 0.265203 1 0 
C 1 -0.265203 0.894634 -0.51958 0.707107 -0.707107 
C 0.51958 -0.894634 0.265203 -1 0 -1 
C -0.265203 -1 -0.51958 -0.894634 -0.707107 -0.707107 
C -0.894634 -0.51958 -1 -0.265203 -1 0 
C -1 0.265203 -0.894634 0.51958 -0.707107 0.707107 
C -0.51958 0.894634 -0.265203 1 0 1 
z
" style="stroke: #2000ff"/>
    </defs>
    <g clip-path="url(#p0b1bad31fa)">
     <use xlink:href="#m6555ec3dac" x="305.471596" y="229.055905" style="fill: #2000ff; stroke: #2000ff"/>
     <use xlink:href="#m6555ec3dac" x="349.788938" y="330.489555" style="fill: #2000ff; stroke: #2000ff"/>
    </g>
   </g>
   <g id="line2d_53">
    <path d="M 349.788938 330.489555 
L 343.383317 177.770779 
" clip-path="url(#p0b1bad31fa)" style="fill: none; stroke: #5000ff; stroke-width: 1.5; stroke-linecap: square"/>
    <defs>
     <path id="m1d39a552db" d="M 0 1 
C 0.265203 1 0.51958 0.894634 0.707107 0.707107 
C 0.894634 0.51958 1 0.265203 1 0 
C 1 -0.265203 0.894634 -0.51958 0.707107 -0.707107 
C 0.51958 -0.894634 0.265203 -1 0 -1 
C -0.265203 -1 -0.51958 -0.894634 -0.707107 -0.707107 
C -0.894634 -0.51958 -1 -0.265203 -1 0 
C -1 0.265203 -0.894634 0.51958 -0.707107 0.707107 
C -0.51958 0.894634 -0.265203 1 0 1 
z
" style="stroke: #5000ff"/>
    </defs>
    <g clip-path="url(#p0b1bad31fa)">
     <use xlink:href="#m1d39a552db" x="349.788938" y="330.489555" style="fill: #5000ff; stroke: #5000ff"/>
     <use xlink:href="#m1d39a552db" x="343.383317" y="177.770779" style="fill: #5000ff; stroke: #5000ff"/>
    </g>
   </g>
   <g id="line2d_54">
    <path d="M 343.383317 177.770779 
L 376.550741 267.70113 
" clip-path="url(#p0b1bad31fa)" style="fill: none; stroke: #8000ff; stroke-width: 1.5; stroke-linecap: square"/>
    <defs>
     <path id="mf6f53346a8" d="M 0 1 
C 0.265203 1 0.51958 0.894634 0.707107 0.707107 
C 0.894634 0.51958 1 0.265203 1 0 
C 1 -0.265203 0.894634 -0.51958 0.707107 -0.707107 
C 0.51958 -0.894634 0.265203 -1 0 -1 
C -0.265203 -1 -0.51958 -0.894634 -0.707107 -0.707107 
C -0.894634 -0.51958 -1 -0.265203 -1 0 
C -1 0.265203 -0.894634 0.51958 -0.707107 0.707107 
C -0.51958 0.894634 -0.265203 1 0 1 
z
" style="stroke: #8000ff"/>
    </defs>
    <g clip-path="url(#p0b1bad31fa)">
     <use xlink:href="#mf6f53346a8" x="343.383317" y="177.770779" style="fill: #8000ff; stroke: #8000ff"/>
     <use xlink:href="#mf6f53346a8" x="376.550741" y="267.70113" style="fill: #8000ff; stroke: #8000ff"/>
    </g>
   </g>
   <g id="line2d_55">
    <path d="M 376.550741 267.70113 
L 328.590652 181.177244 
" clip-path="url(#p0b1bad31fa)" style="fill: none; stroke: #af00ff; stroke-width: 1.5; stroke-linecap: square"/>
    <defs>
     <path id="m254620f201" d="M 0 1 
C 0.265203 1 0.51958 0.894634 0.707107 0.707107 
C 0.894634 0.51958 1 0.265203 1 0 
C 1 -0.265203 0.894634 -0.51958 0.707107 -0.707107 
C 0.51958 -0.894634 0.265203 -1 0 -1 
C -0.265203 -1 -0.51958 -0.894634 -0.707107 -0.707107 
C -0.894634 -0.51958 -1 -0.265203 -1 0 
C -1 0.265203 -0.894634 0.51958 -0.707107 0.707107 
C -0.51958 0.894634 -0.265203 1 0 1 
z
" style="stroke: #af00ff"/>
    </defs>
    <g clip-path="url(#p0b1bad31fa)">
     <use xlink:href="#m254620f201" x="376.550741" y="267.70113" style="fill: #af00ff; stroke: #af00ff"/>
     <use xlink:href="#m254620f201" x="328.590652" y="181.177244" style="fill: #af00ff; stroke: #af00ff"/>
    </g>
   </g>
   <g id="line2d_56">
    <path d="M 328.590652 181.177244 
L 331.945051 216.383897 
" clip-path="url(#p0b1bad31fa)" style="fill: none; stroke: #df00ff; stroke-width: 1.5; stroke-linecap: square"/>
    <defs>
     <path id="m9ff08802b5" d="M 0 1 
C 0.265203 1 0.51958 0.894634 0.707107 0.707107 
C 0.894634 0.51958 1 0.265203 1 0 
C 1 -0.265203 0.894634 -0.51958 0.707107 -0.707107 
C 0.51958 -0.894634 0.265203 -1 0 -1 
C -0.265203 -1 -0.51958 -0.894634 -0.707107 -0.707107 
C -0.894634 -0.51958 -1 -0.265203 -1 0 
C -1 0.265203 -0.894634 0.51958 -0.707107 0.707107 
C -0.51958 0.894634 -0.265203 1 0 1 
z
" style="stroke: #df00ff"/>
    </defs>
    <g clip-path="url(#p0b1bad31fa)">
     <use xlink:href="#m9ff08802b5" x="328.590652" y="181.177244" style="fill: #df00ff; stroke: #df00ff"/>
     <use xlink:href="#m9ff08802b5" x="331.945051" y="216.383897" style="fill: #df00ff; stroke: #df00ff"/>
    </g>
   </g>
   <g id="line2d_57">
    <path d="M 331.945051 216.383897 
L 267.063694 166.246294 
" clip-path="url(#p0b1bad31fa)" style="fill: none; stroke: #ff00ef; stroke-width: 1.5; stroke-linecap: square"/>
    <defs>
     <path id="m77c0fbeac0" d="M 0 1 
C 0.265203 1 0.51958 0.894634 0.707107 0.707107 
C 0.894634 0.51958 1 0.265203 1 0 
C 1 -0.265203 0.894634 -0.51958 0.707107 -0.707107 
C 0.51958 -0.894634 0.265203 -1 0 -1 
C -0.265203 -1 -0.51958 -0.894634 -0.707107 -0.707107 
C -0.894634 -0.51958 -1 -0.265203 -1 0 
C -1 0.265203 -0.894634 0.51958 -0.707107 0.707107 
C -0.51958 0.894634 -0.265203 1 0 1 
z
" style="stroke: #ff00ef"/>
    </defs>
    <g clip-path="url(#p0b1bad31fa)">
     <use xlink:href="#m77c0fbeac0" x="331.945051" y="216.383897" style="fill: #ff00ef; stroke: #ff00ef"/>
     <use xlink:href="#m77c0fbeac0" x="267.063694" y="166.246294" style="fill: #ff00ef; stroke: #ff00ef"/>
    </g>
   </g>
   <g id="line2d_58">
    <path d="M 208.901805 313.369825 
" clip-path="url(#p0b1bad31fa)" style="fill: none; stroke: #ffffff; stroke-width: 1.5; stroke-linecap: square"/>
   </g>
   <g id="line2d_59">
    <path d="M 201.924059 146.796232 
" clip-path="url(#p0b1bad31fa)" style="fill: none; stroke: #ffffff; stroke-width: 1.5; stroke-linecap: square"/>
   </g>
   <g id="line2d_60">
    <path d="M 326.593541 213.80184 
" clip-path="url(#p0b1bad31fa)" style="fill: none; stroke: #ffffff; stroke-width: 1.5; stroke-linecap: square"/>
   </g>
   <g id="line2d_61">
    <path d="M 324.988401 55.605495 
" clip-path="url(#p0b1bad31fa)" style="fill: none; stroke: #ffffff; stroke-width: 1.5; stroke-linecap: square"/>
   </g>
   <g id="line2d_62">
    <path d="M 409.485631 378.21561 
" clip-path="url(#p0b1bad31fa)" style="fill: none; stroke: #ffffff; stroke-width: 1.5; stroke-linecap: square"/>
   </g>
   <g id="line2d_63">
    <path d="M 411.538946 206.50116 
" clip-path="url(#p0b1bad31fa)" style="fill: none; stroke: #ffffff; stroke-width: 1.5; stroke-linecap: square"/>
   </g>
   <g id="line2d_64">
    <path d="M 517.219569 269.463351 
" clip-path="url(#p0b1bad31fa)" style="fill: none; stroke: #ffffff; stroke-width: 1.5; stroke-linecap: square"/>
   </g>
   <g id="line2d_65">
    <path d="M 523.752281 106.511917 
" clip-path="url(#p0b1bad31fa)" style="fill: none; stroke: #ffffff; stroke-width: 1.5; stroke-linecap: square"/>
   </g>
  </g>
 </g>
 <defs>
  <clipPath id="p0b1bad31fa">
   <rect x="154.8" y="10.8" width="410.4" height="410.4"/>
  </clipPath>
 </defs>
</svg>
