<?xml version="1.0" encoding="utf-8" standalone="no"?>
<!DOCTYPE svg PUBLIC "-//W3C//DTD SVG 1.1//EN"
  "http://www.w3.org/Graphics/SVG/1.1/DTD/svg11.dtd">
<svg xmlns:xlink="http://www.w3.org/1999/xlink" width="720pt" height="432pt" viewBox="0 0 720 432" xmlns="http://www.w3.org/2000/svg" version="1.1">
 <metadata>
  <rdf:RDF xmlns:dc="http://purl.org/dc/elements/1.1/" xmlns:cc="http://creativecommons.org/ns#" xmlns:rdf="http://www.w3.org/1999/02/22-rdf-syntax-ns#">
   <cc:Work>
    <dc:type rdf:resource="http://purl.org/dc/dcmitype/StillImage"/>
    <dc:date>2022-03-16T19:26:45.305503</dc:date>
    <dc:format>image/svg+xml</dc:format>
    <dc:creator>
     <cc:Agent>
      <dc:title>Matplotlib v3.5.0, https://matplotlib.org/</dc:title>
     </cc:Agent>
    </dc:creator>
   </cc:Work>
  </rdf:RDF>
 </metadata>
 <defs>
  <style type="text/css">*{stroke-linejoin: round; stroke-linecap: butt}</style>
 </defs>
 <g id="figure_1">
  <g id="patch_1">
   <path d="M 0 432 
L 720 432 
L 720 0 
L 0 0 
z
" style="fill: #ffffff"/>
  </g>
  <g id="patch_2">
   <path d="M 154.8 421.2 
L 565.2 421.2 
L 565.2 10.8 
L 154.8 10.8 
z
" style="fill: #ffffff"/>
  </g>
  <g id="pane3d_1">
   <g id="patch_3">
    <path d="M 223.032918 259.531946 
L 466.808001 244.481537 
L 469.968711 69.52395 
L 218.508452 82.055814 
" style="fill: none; opacity: 0.5; stroke: #f2f2f2; stroke-linejoin: miter"/>
   </g>
  </g>
  <g id="pane3d_2">
   <g id="patch_4">
    <path d="M 466.808001 244.481537 
L 521.530911 346.665537 
L 526.967532 154.864532 
L 469.968711 69.52395 
" style="fill: none; opacity: 0.5; stroke: #e6e6e6; stroke-linejoin: miter"/>
   </g>
  </g>
  <g id="pane3d_3">
   <g id="patch_5">
    <path d="M 223.032918 259.531946 
L 250.786704 365.33438 
L 521.530911 346.665537 
L 466.808001 244.481537 
" style="fill: none; opacity: 0.5; stroke: #ececec; stroke-linejoin: miter"/>
   </g>
  </g>
  <g id="axis3d_1">
   <g id="line2d_1">
    <path d="M 223.032918 259.531946 
L 250.786704 365.33438 
" style="fill: none; stroke: #000000; stroke-width: 0.8; stroke-linecap: square"/>
   </g>
   <g id="text_1">
    <!-- $\tilde{x}_{1,:}$ -->
    <g transform="translate(200.048309 322.272688)rotate(-284.698499)scale(0.18 -0.18)">
     <defs>
      <path id="CMR17-7e" d="M 2400 4198 
C 2182 3987 2061 3865 1862 3865 
C 1722 3865 1626 3936 1491 4032 
C 1363 4121 1261 4198 1120 4198 
C 890 4198 730 4012 461 3718 
L 531 3648 
C 749 3859 870 3980 1069 3980 
C 1210 3980 1306 3910 1440 3814 
C 1568 3724 1670 3648 1811 3648 
C 2042 3648 2202 3833 2470 4128 
L 2400 4198 
z
" transform="scale(0.015625)"/>
      <path id="CMMI12-78" d="M 3034 2624 
C 2829 2585 2752 2431 2752 2310 
C 2752 2156 2874 2105 2963 2105 
C 3155 2105 3290 2271 3290 2444 
C 3290 2694 2982 2816 2714 2816 
C 2323 2816 2106 2451 2048 2329 
C 1901 2790 1504 2816 1389 2816 
C 736 2816 390 1993 390 1849 
C 390 1823 416 1790 461 1790 
C 512 1790 525 1829 538 1855 
C 755 2572 1184 2687 1370 2687 
C 1658 2687 1715 2438 1715 2284 
C 1715 2143 1677 1993 1600 1678 
L 1382 778 
C 1286 390 1101 64 762 64 
C 730 64 570 64 435 126 
C 666 166 717 358 717 435 
C 717 563 621 640 499 640 
C 346 640 179 505 179 300 
C 179 57 480 -64 755 -64 
C 1062 -64 1280 153 1414 415 
C 1517 64 1837 -64 2074 -64 
C 2726 -64 3072 751 3072 896 
C 3072 929 3046 955 3008 955 
C 2950 955 2944 922 2925 870 
C 2752 300 2381 64 2093 64 
C 1869 64 1747 204 1747 467 
C 1747 607 1773 712 1875 1146 
L 2099 2039 
C 2195 2425 2413 2687 2707 2687 
C 2720 2687 2899 2687 3034 2624 
z
" transform="scale(0.015625)"/>
      <path id="CMR17-31" d="M 1702 4083 
C 1702 4217 1696 4224 1606 4224 
C 1357 3927 979 3833 621 3820 
C 602 3820 570 3820 563 3808 
C 557 3795 557 3782 557 3648 
C 755 3648 1088 3686 1344 3839 
L 1344 467 
C 1344 243 1331 166 781 166 
L 589 166 
L 589 0 
C 896 6 1216 12 1523 12 
C 1830 12 2150 6 2458 0 
L 2458 166 
L 2266 166 
C 1715 166 1702 236 1702 467 
L 1702 4083 
z
" transform="scale(0.015625)"/>
      <path id="CMMI12-3b" d="M 1248 -26 
C 1248 345 1126 620 864 620 
C 659 620 557 454 557 313 
C 557 172 653 0 870 0 
C 954 0 1024 25 1082 83 
C 1094 96 1101 96 1107 96 
C 1120 96 1120 6 1120 -26 
C 1120 -233 1082 -642 710 -1051 
C 640 -1127 640 -1140 640 -1152 
C 640 -1184 672 -1216 704 -1216 
C 755 -1216 1248 -749 1248 -26 
z
" transform="scale(0.015625)"/>
      <path id="CMR17-3a" d="M 1062 2489 
C 1062 2649 934 2752 800 2752 
C 672 2752 538 2649 538 2489 
C 538 2329 666 2227 800 2227 
C 928 2227 1062 2329 1062 2489 
z
M 1062 262 
C 1062 422 934 524 800 524 
C 672 524 538 422 538 262 
C 538 102 666 0 800 0 
C 928 0 1062 102 1062 262 
z
" transform="scale(0.015625)"/>
     </defs>
     <use xlink:href="#CMR17-7e" transform="translate(7.581509 0.006461)scale(0.996264)"/>
     <use xlink:href="#CMMI12-78" transform="scale(0.996264)"/>
     <use xlink:href="#CMR17-31" transform="translate(55.43406 -14.943915)scale(0.697382)"/>
     <use xlink:href="#CMMI12-3b" transform="translate(87.417241 -14.943915)scale(0.697382)"/>
     <use xlink:href="#CMR17-3a" transform="translate(106.385174 -14.943915)scale(0.697382)"/>
    </g>
   </g>
   <g id="xtick_1">
    <g id="line2d_2">
     <path d="M 227.668608 269.44114 
L 221.656395 269.816435 
" style="fill: none; stroke: #000000; stroke-width: 0.8; stroke-linecap: square"/>
    </g>
    <g id="text_2">
     <!-- $\mathdefault{1.0}$ -->
     <g transform="translate(206.068469 286.656619)scale(0.1 -0.1)">
      <defs>
       <path id="CMMI12-3a" d="M 1178 307 
C 1178 492 1024 620 870 620 
C 685 620 557 467 557 313 
C 557 128 710 0 864 0 
C 1050 0 1178 153 1178 307 
z
" transform="scale(0.015625)"/>
       <path id="CMR17-30" d="M 2688 2038 
C 2688 2430 2682 3099 2413 3613 
C 2176 4063 1798 4224 1466 4224 
C 1158 4224 768 4082 525 3620 
C 269 3137 243 2539 243 2038 
C 243 1671 250 1112 448 623 
C 723 -39 1216 -128 1466 -128 
C 1760 -128 2208 -7 2470 604 
C 2662 1048 2688 1568 2688 2038 
z
M 1466 -26 
C 1056 -26 813 328 723 816 
C 653 1196 653 1749 653 2109 
C 653 2604 653 3015 736 3407 
C 858 3954 1216 4121 1466 4121 
C 1728 4121 2067 3947 2189 3420 
C 2272 3054 2278 2623 2278 2109 
C 2278 1691 2278 1176 2202 797 
C 2067 96 1690 -26 1466 -26 
z
" transform="scale(0.015625)"/>
      </defs>
      <use xlink:href="#CMR17-31" transform="scale(0.996264)"/>
      <use xlink:href="#CMMI12-3a" transform="translate(45.690477 0)scale(0.996264)"/>
      <use xlink:href="#CMR17-30" transform="translate(72.787654 0)scale(0.996264)"/>
     </g>
    </g>
   </g>
   <g id="xtick_2">
    <g id="line2d_3">
     <path d="M 230.572847 280.421132 
L 224.490932 280.805327 
" style="fill: none; stroke: #000000; stroke-width: 0.8; stroke-linecap: square"/>
    </g>
    <g id="text_3">
     <!-- $\mathdefault{1.5}$ -->
     <g transform="translate(208.791401 297.750822)scale(0.1 -0.1)">
      <defs>
       <path id="CMR17-35" d="M 730 3750 
C 794 3724 1056 3641 1325 3641 
C 1920 3641 2246 3961 2432 4140 
C 2432 4191 2432 4224 2394 4224 
C 2387 4224 2374 4224 2323 4198 
C 2099 4102 1837 4032 1517 4032 
C 1325 4032 1037 4055 723 4191 
C 653 4224 640 4224 634 4224 
C 602 4224 595 4217 595 4090 
L 595 2231 
C 595 2113 595 2080 659 2080 
C 691 2080 704 2093 736 2139 
C 941 2435 1222 2560 1542 2560 
C 1766 2560 2246 2415 2246 1293 
C 2246 1087 2246 716 2054 422 
C 1894 159 1645 25 1370 25 
C 947 25 518 319 403 812 
C 429 806 480 793 506 793 
C 589 793 749 838 749 1036 
C 749 1209 627 1280 506 1280 
C 358 1280 262 1190 262 1011 
C 262 454 704 -128 1382 -128 
C 2042 -128 2669 441 2669 1267 
C 2669 2054 2170 2662 1549 2662 
C 1222 2662 947 2540 730 2304 
L 730 3750 
z
" transform="scale(0.015625)"/>
      </defs>
      <use xlink:href="#CMR17-31" transform="scale(0.996264)"/>
      <use xlink:href="#CMMI12-3a" transform="translate(45.690477 0)scale(0.996264)"/>
      <use xlink:href="#CMR17-35" transform="translate(72.787654 0)scale(0.996264)"/>
     </g>
    </g>
   </g>
   <g id="xtick_3">
    <g id="line2d_4">
     <path d="M 233.546358 291.66302 
L 227.393106 292.056435 
" style="fill: none; stroke: #000000; stroke-width: 0.8; stroke-linecap: square"/>
    </g>
    <g id="text_4">
     <!-- $\mathdefault{2.0}$ -->
     <g transform="translate(211.579238 309.109472)scale(0.1 -0.1)">
      <defs>
       <path id="CMR17-32" d="M 2669 990 
L 2554 990 
C 2490 537 2438 460 2413 422 
C 2381 371 1920 371 1830 371 
L 602 371 
C 832 620 1280 1073 1824 1596 
C 2214 1966 2669 2400 2669 3033 
C 2669 3788 2067 4224 1395 4224 
C 691 4224 262 3603 262 3027 
C 262 2777 448 2745 525 2745 
C 589 2745 781 2783 781 3007 
C 781 3206 614 3264 525 3264 
C 486 3264 448 3257 422 3244 
C 544 3788 915 4057 1306 4057 
C 1862 4057 2227 3616 2227 3033 
C 2227 2477 1901 1998 1536 1583 
L 262 147 
L 262 0 
L 2515 0 
L 2669 990 
z
" transform="scale(0.015625)"/>
      </defs>
      <use xlink:href="#CMR17-32" transform="scale(0.996264)"/>
      <use xlink:href="#CMMI12-3a" transform="translate(45.690477 0)scale(0.996264)"/>
      <use xlink:href="#CMR17-30" transform="translate(72.787654 0)scale(0.996264)"/>
     </g>
    </g>
   </g>
   <g id="xtick_4">
    <g id="line2d_5">
     <path d="M 236.591649 303.176286 
L 230.365368 303.579258 
" style="fill: none; stroke: #000000; stroke-width: 0.8; stroke-linecap: square"/>
    </g>
    <g id="text_5">
     <!-- $\mathdefault{2.5}$ -->
     <g transform="translate(214.43433 320.74214)scale(0.1 -0.1)">
      <use xlink:href="#CMR17-32" transform="scale(0.996264)"/>
      <use xlink:href="#CMMI12-3a" transform="translate(45.690477 0)scale(0.996264)"/>
      <use xlink:href="#CMR17-35" transform="translate(72.787654 0)scale(0.996264)"/>
     </g>
    </g>
   </g>
   <g id="xtick_5">
    <g id="line2d_6">
     <path d="M 239.711352 314.970879 
L 233.410288 315.383759 
" style="fill: none; stroke: #000000; stroke-width: 0.8; stroke-linecap: square"/>
    </g>
    <g id="text_6">
     <!-- $\mathdefault{3.0}$ -->
     <g transform="translate(217.359139 332.658862)scale(0.1 -0.1)">
      <defs>
       <path id="CMR17-33" d="M 1414 2176 
C 1984 2176 2234 1673 2234 1094 
C 2234 322 1824 25 1453 25 
C 1114 25 563 193 390 691 
C 422 678 454 678 486 678 
C 640 678 755 780 755 947 
C 755 1132 614 1216 486 1216 
C 378 1216 211 1164 211 927 
C 211 335 787 -128 1466 -128 
C 2176 -128 2720 432 2720 1087 
C 2720 1718 2208 2176 1600 2246 
C 2086 2347 2554 2776 2554 3353 
C 2554 3856 2048 4224 1472 4224 
C 890 4224 378 3862 378 3347 
C 378 3123 544 3084 627 3084 
C 762 3084 877 3167 877 3334 
C 877 3500 762 3584 627 3584 
C 602 3584 570 3584 544 3571 
C 730 3999 1235 4076 1459 4076 
C 1683 4076 2106 3966 2106 3347 
C 2106 3167 2080 2851 1862 2574 
C 1670 2329 1453 2316 1242 2297 
C 1210 2297 1062 2284 1037 2284 
C 992 2278 966 2272 966 2227 
C 966 2182 973 2176 1101 2176 
L 1414 2176 
z
" transform="scale(0.015625)"/>
      </defs>
      <use xlink:href="#CMR17-33" transform="scale(0.996264)"/>
      <use xlink:href="#CMMI12-3a" transform="translate(45.690477 0)scale(0.996264)"/>
      <use xlink:href="#CMR17-30" transform="translate(72.787654 0)scale(0.996264)"/>
     </g>
    </g>
   </g>
   <g id="xtick_6">
    <g id="line2d_7">
     <path d="M 242.908227 327.057236 
L 236.530562 327.480395 
" style="fill: none; stroke: #000000; stroke-width: 0.8; stroke-linecap: square"/>
    </g>
    <g id="text_7">
     <!-- $\mathdefault{3.5}$ -->
     <g transform="translate(220.35625 344.87017)scale(0.1 -0.1)">
      <use xlink:href="#CMR17-33" transform="scale(0.996264)"/>
      <use xlink:href="#CMMI12-3a" transform="translate(45.690477 0)scale(0.996264)"/>
      <use xlink:href="#CMR17-35" transform="translate(72.787654 0)scale(0.996264)"/>
     </g>
    </g>
   </g>
   <g id="xtick_7">
    <g id="line2d_8">
     <path d="M 246.185175 339.44632 
L 239.729024 339.880146 
" style="fill: none; stroke: #000000; stroke-width: 0.8; stroke-linecap: square"/>
    </g>
    <g id="text_8">
     <!-- $\mathdefault{4.0}$ -->
     <g transform="translate(223.428379 357.387125)scale(0.1 -0.1)">
      <defs>
       <path id="CMR17-34" d="M 2150 4147 
C 2150 4281 2144 4288 2029 4288 
L 128 1254 
L 128 1088 
L 1779 1088 
L 1779 460 
C 1779 230 1766 166 1318 166 
L 1197 166 
L 1197 0 
C 1402 12 1747 12 1965 12 
C 2182 12 2528 12 2733 0 
L 2733 166 
L 2611 166 
C 2163 166 2150 230 2150 460 
L 2150 1088 
L 2803 1088 
L 2803 1254 
L 2150 1254 
L 2150 4147 
z
M 1798 3723 
L 1798 1254 
L 256 1254 
L 1798 3723 
z
" transform="scale(0.015625)"/>
      </defs>
      <use xlink:href="#CMR17-34" transform="scale(0.996264)"/>
      <use xlink:href="#CMMI12-3a" transform="translate(45.690477 0)scale(0.996264)"/>
      <use xlink:href="#CMR17-30" transform="translate(72.787654 0)scale(0.996264)"/>
     </g>
    </g>
   </g>
   <g id="xtick_8">
    <g id="line2d_9">
     <path d="M 249.545241 352.149648 
L 243.008648 352.59455 
" style="fill: none; stroke: #000000; stroke-width: 0.8; stroke-linecap: square"/>
    </g>
    <g id="text_9">
     <!-- $\mathdefault{4.5}$ -->
     <g transform="translate(226.578377 370.221348)scale(0.1 -0.1)">
      <use xlink:href="#CMR17-34" transform="scale(0.996264)"/>
      <use xlink:href="#CMMI12-3a" transform="translate(45.690477 0)scale(0.996264)"/>
      <use xlink:href="#CMR17-35" transform="translate(72.787654 0)scale(0.996264)"/>
     </g>
    </g>
   </g>
  </g>
  <g id="axis3d_2">
   <g id="line2d_10">
    <path d="M 521.530911 346.665537 
L 250.786704 365.33438 
" style="fill: none; stroke: #000000; stroke-width: 0.8; stroke-linecap: square"/>
   </g>
   <g id="text_10">
    <!-- $\tilde{x}_{2,:}$ -->
    <g transform="translate(381.544983 395.728563)rotate(-3.944518)scale(0.18 -0.18)">
     <use xlink:href="#CMR17-7e" transform="translate(7.581509 0.006461)scale(0.996264)"/>
     <use xlink:href="#CMMI12-78" transform="scale(0.996264)"/>
     <use xlink:href="#CMR17-32" transform="translate(55.43406 -14.943915)scale(0.697382)"/>
     <use xlink:href="#CMMI12-3b" transform="translate(87.417241 -14.943915)scale(0.697382)"/>
     <use xlink:href="#CMR17-3a" transform="translate(106.385174 -14.943915)scale(0.697382)"/>
    </g>
   </g>
   <g id="xtick_9">
    <g id="line2d_11">
     <path d="M 276.573042 362.598229 
L 277.386697 365.421658 
" style="fill: none; stroke: #000000; stroke-width: 0.8; stroke-linecap: square"/>
    </g>
    <g id="text_11">
     <!-- $\mathdefault{−3.0}$ -->
     <g transform="translate(268.598696 386.958239)scale(0.1 -0.1)">
      <defs>
       <path id="CMSY10-0" d="M 4218 1472 
C 4326 1472 4442 1472 4442 1600 
C 4442 1728 4326 1728 4218 1728 
L 755 1728 
C 646 1728 531 1728 531 1600 
C 531 1472 646 1472 755 1472 
L 4218 1472 
z
" transform="scale(0.015625)"/>
      </defs>
      <use xlink:href="#CMSY10-0" transform="scale(0.996264)"/>
      <use xlink:href="#CMR17-33" transform="translate(77.487468 0)scale(0.996264)"/>
      <use xlink:href="#CMMI12-3a" transform="translate(123.177945 0)scale(0.996264)"/>
      <use xlink:href="#CMR17-30" transform="translate(150.275122 0)scale(0.996264)"/>
     </g>
    </g>
   </g>
   <g id="xtick_10">
    <g id="line2d_12">
     <path d="M 307.237622 360.485764 
L 308.133903 363.29755 
" style="fill: none; stroke: #000000; stroke-width: 0.8; stroke-linecap: square"/>
    </g>
    <g id="text_12">
     <!-- $\mathdefault{−2.5}$ -->
     <g transform="translate(299.419601 384.798541)scale(0.1 -0.1)">
      <use xlink:href="#CMSY10-0" transform="scale(0.996264)"/>
      <use xlink:href="#CMR17-32" transform="translate(77.487468 0)scale(0.996264)"/>
      <use xlink:href="#CMMI12-3a" transform="translate(123.177945 0)scale(0.996264)"/>
      <use xlink:href="#CMR17-35" transform="translate(150.275122 0)scale(0.996264)"/>
     </g>
    </g>
   </g>
   <g id="xtick_11">
    <g id="line2d_13">
     <path d="M 337.776042 358.381991 
L 338.754264 361.182204 
" style="fill: none; stroke: #000000; stroke-width: 0.8; stroke-linecap: square"/>
    </g>
    <g id="text_13">
     <!-- $\mathdefault{−2.0}$ -->
     <g transform="translate(330.11304 382.647774)scale(0.1 -0.1)">
      <use xlink:href="#CMSY10-0" transform="scale(0.996264)"/>
      <use xlink:href="#CMR17-32" transform="translate(77.487468 0)scale(0.996264)"/>
      <use xlink:href="#CMMI12-3a" transform="translate(123.177945 0)scale(0.996264)"/>
      <use xlink:href="#CMR17-30" transform="translate(150.275122 0)scale(0.996264)"/>
     </g>
    </g>
   </g>
   <g id="xtick_12">
    <g id="line2d_14">
     <path d="M 368.189081 356.286855 
L 369.248561 359.075567 
" style="fill: none; stroke: #000000; stroke-width: 0.8; stroke-linecap: square"/>
    </g>
    <g id="text_14">
     <!-- $\mathdefault{−1.5}$ -->
     <g transform="translate(360.679801 380.505885)scale(0.1 -0.1)">
      <use xlink:href="#CMSY10-0" transform="scale(0.996264)"/>
      <use xlink:href="#CMR17-31" transform="translate(77.487468 0)scale(0.996264)"/>
      <use xlink:href="#CMMI12-3a" transform="translate(123.177945 0)scale(0.996264)"/>
      <use xlink:href="#CMR17-35" transform="translate(150.275122 0)scale(0.996264)"/>
     </g>
    </g>
   </g>
   <g id="xtick_13">
    <g id="line2d_15">
     <path d="M 398.477507 354.200303 
L 399.617573 356.977586 
" style="fill: none; stroke: #000000; stroke-width: 0.8; stroke-linecap: square"/>
    </g>
    <g id="text_15">
     <!-- $\mathdefault{−1.0}$ -->
     <g transform="translate(391.120666 378.372816)scale(0.1 -0.1)">
      <use xlink:href="#CMSY10-0" transform="scale(0.996264)"/>
      <use xlink:href="#CMR17-31" transform="translate(77.487468 0)scale(0.996264)"/>
      <use xlink:href="#CMMI12-3a" transform="translate(123.177945 0)scale(0.996264)"/>
      <use xlink:href="#CMR17-30" transform="translate(150.275122 0)scale(0.996264)"/>
     </g>
    </g>
   </g>
   <g id="xtick_14">
    <g id="line2d_16">
     <path d="M 428.642087 352.122283 
L 429.862069 354.888206 
" style="fill: none; stroke: #000000; stroke-width: 0.8; stroke-linecap: square"/>
    </g>
    <g id="text_16">
     <!-- $\mathdefault{−0.5}$ -->
     <g transform="translate(421.436413 376.248516)scale(0.1 -0.1)">
      <use xlink:href="#CMSY10-0" transform="scale(0.996264)"/>
      <use xlink:href="#CMR17-30" transform="translate(77.487468 0)scale(0.996264)"/>
      <use xlink:href="#CMMI12-3a" transform="translate(123.177945 0)scale(0.996264)"/>
      <use xlink:href="#CMR17-35" transform="translate(150.275122 0)scale(0.996264)"/>
     </g>
    </g>
   </g>
   <g id="xtick_15">
    <g id="line2d_17">
     <path d="M 458.683577 350.052743 
L 459.982813 352.807375 
" style="fill: none; stroke: #000000; stroke-width: 0.8; stroke-linecap: square"/>
    </g>
    <g id="text_17">
     <!-- $\mathdefault{0.0}$ -->
     <g transform="translate(455.502183 374.132928)scale(0.1 -0.1)">
      <use xlink:href="#CMR17-30" transform="scale(0.996264)"/>
      <use xlink:href="#CMMI12-3a" transform="translate(45.690477 0)scale(0.996264)"/>
      <use xlink:href="#CMR17-30" transform="translate(72.787654 0)scale(0.996264)"/>
     </g>
    </g>
   </g>
   <g id="xtick_16">
    <g id="line2d_18">
     <path d="M 488.602729 347.991631 
L 489.980565 350.735041 
" style="fill: none; stroke: #000000; stroke-width: 0.8; stroke-linecap: square"/>
    </g>
    <g id="text_18">
     <!-- $\mathdefault{0.5}$ -->
     <g transform="translate(485.569996 372.026001)scale(0.1 -0.1)">
      <use xlink:href="#CMR17-30" transform="scale(0.996264)"/>
      <use xlink:href="#CMMI12-3a" transform="translate(45.690477 0)scale(0.996264)"/>
      <use xlink:href="#CMR17-35" transform="translate(72.787654 0)scale(0.996264)"/>
     </g>
    </g>
   </g>
  </g>
  <g id="axis3d_3">
   <g id="line2d_19">
    <path d="M 521.530911 346.665537 
L 526.967532 154.864532 
" style="fill: none; stroke: #000000; stroke-width: 0.8; stroke-linecap: square"/>
   </g>
   <g id="text_19">
    <!-- $\tilde{x}_{3,:}$ -->
    <g transform="translate(566.532431 274.3756)rotate(-88.37638)scale(0.18 -0.18)">
     <use xlink:href="#CMR17-7e" transform="translate(7.581509 0.006461)scale(0.996264)"/>
     <use xlink:href="#CMMI12-78" transform="scale(0.996264)"/>
     <use xlink:href="#CMR17-33" transform="translate(55.43406 -14.943915)scale(0.697382)"/>
     <use xlink:href="#CMMI12-3b" transform="translate(87.417241 -14.943915)scale(0.697382)"/>
     <use xlink:href="#CMR17-3a" transform="translate(106.385174 -14.943915)scale(0.697382)"/>
    </g>
   </g>
   <g id="xtick_17">
    <g id="line2d_20">
     <path d="M 521.347946 335.006456 
L 522.814321 337.713888 
" style="fill: none; stroke: #000000; stroke-width: 0.8; stroke-linecap: square"/>
    </g>
    <g id="text_20">
     <!-- $\mathdefault{−2.0}$ -->
     <g transform="translate(529.300247 347.938103)scale(0.1 -0.1)">
      <use xlink:href="#CMSY10-0" transform="scale(0.996264)"/>
      <use xlink:href="#CMR17-32" transform="translate(77.487468 0)scale(0.996264)"/>
      <use xlink:href="#CMMI12-3a" transform="translate(123.177945 0)scale(0.996264)"/>
      <use xlink:href="#CMR17-30" transform="translate(150.275122 0)scale(0.996264)"/>
     </g>
    </g>
   </g>
   <g id="xtick_18">
    <g id="line2d_21">
     <path d="M 521.997353 312.020241 
L 523.471627 314.67632 
" style="fill: none; stroke: #000000; stroke-width: 0.8; stroke-linecap: square"/>
    </g>
    <g id="text_21">
     <!-- $\mathdefault{−1.5}$ -->
     <g transform="translate(530.02987 324.837916)scale(0.1 -0.1)">
      <use xlink:href="#CMSY10-0" transform="scale(0.996264)"/>
      <use xlink:href="#CMR17-31" transform="translate(77.487468 0)scale(0.996264)"/>
      <use xlink:href="#CMMI12-3a" transform="translate(123.177945 0)scale(0.996264)"/>
      <use xlink:href="#CMR17-35" transform="translate(150.275122 0)scale(0.996264)"/>
     </g>
    </g>
   </g>
   <g id="xtick_19">
    <g id="line2d_22">
     <path d="M 522.652196 288.841603 
L 524.13445 291.445372 
" style="fill: none; stroke: #000000; stroke-width: 0.8; stroke-linecap: square"/>
    </g>
    <g id="text_22">
     <!-- $\mathdefault{−1.0}$ -->
     <g transform="translate(530.765639 301.543178)scale(0.1 -0.1)">
      <use xlink:href="#CMSY10-0" transform="scale(0.996264)"/>
      <use xlink:href="#CMR17-31" transform="translate(77.487468 0)scale(0.996264)"/>
      <use xlink:href="#CMMI12-3a" transform="translate(123.177945 0)scale(0.996264)"/>
      <use xlink:href="#CMR17-30" transform="translate(150.275122 0)scale(0.996264)"/>
     </g>
    </g>
   </g>
   <g id="xtick_20">
    <g id="line2d_23">
     <path d="M 523.312544 265.468117 
L 524.802861 268.018599 
" style="fill: none; stroke: #000000; stroke-width: 0.8; stroke-linecap: square"/>
    </g>
    <g id="text_23">
     <!-- $\mathdefault{−0.5}$ -->
     <g transform="translate(531.507631 278.051419)scale(0.1 -0.1)">
      <use xlink:href="#CMSY10-0" transform="scale(0.996264)"/>
      <use xlink:href="#CMR17-30" transform="translate(77.487468 0)scale(0.996264)"/>
      <use xlink:href="#CMMI12-3a" transform="translate(123.177945 0)scale(0.996264)"/>
      <use xlink:href="#CMR17-35" transform="translate(150.275122 0)scale(0.996264)"/>
     </g>
    </g>
   </g>
   <g id="xtick_21">
    <g id="line2d_24">
     <path d="M 523.978466 241.897315 
L 525.47693 244.393515 
" style="fill: none; stroke: #000000; stroke-width: 0.8; stroke-linecap: square"/>
    </g>
    <g id="text_24">
     <!-- $\mathdefault{0.0}$ -->
     <g transform="translate(536.130297 254.36013)scale(0.1 -0.1)">
      <use xlink:href="#CMR17-30" transform="scale(0.996264)"/>
      <use xlink:href="#CMMI12-3a" transform="translate(45.690477 0)scale(0.996264)"/>
      <use xlink:href="#CMR17-30" transform="translate(72.787654 0)scale(0.996264)"/>
     </g>
    </g>
   </g>
   <g id="xtick_22">
    <g id="line2d_25">
     <path d="M 524.650034 218.126688 
L 526.156729 220.567589 
" style="fill: none; stroke: #000000; stroke-width: 0.8; stroke-linecap: square"/>
    </g>
    <g id="text_25">
     <!-- $\mathdefault{0.5}$ -->
     <g transform="translate(536.884974 230.466757)scale(0.1 -0.1)">
      <use xlink:href="#CMR17-30" transform="scale(0.996264)"/>
      <use xlink:href="#CMMI12-3a" transform="translate(45.690477 0)scale(0.996264)"/>
      <use xlink:href="#CMR17-35" transform="translate(72.787654 0)scale(0.996264)"/>
     </g>
    </g>
   </g>
   <g id="xtick_23">
    <g id="line2d_26">
     <path d="M 525.32732 194.153684 
L 526.842332 196.538251 
" style="fill: none; stroke: #000000; stroke-width: 0.8; stroke-linecap: square"/>
    </g>
    <g id="text_26">
     <!-- $\mathdefault{1.0}$ -->
     <g transform="translate(537.646116 206.368705)scale(0.1 -0.1)">
      <use xlink:href="#CMR17-31" transform="scale(0.996264)"/>
      <use xlink:href="#CMMI12-3a" transform="translate(45.690477 0)scale(0.996264)"/>
      <use xlink:href="#CMR17-30" transform="translate(72.787654 0)scale(0.996264)"/>
     </g>
    </g>
   </g>
   <g id="xtick_24">
    <g id="line2d_27">
     <path d="M 526.010396 169.975707 
L 527.533813 172.302885 
" style="fill: none; stroke: #000000; stroke-width: 0.8; stroke-linecap: square"/>
    </g>
    <g id="text_27">
     <!-- $\mathdefault{1.5}$ -->
     <g transform="translate(538.413806 182.06333)scale(0.1 -0.1)">
      <use xlink:href="#CMR17-31" transform="scale(0.996264)"/>
      <use xlink:href="#CMMI12-3a" transform="translate(45.690477 0)scale(0.996264)"/>
      <use xlink:href="#CMR17-35" transform="translate(72.787654 0)scale(0.996264)"/>
     </g>
    </g>
   </g>
  </g>
  <g id="axes_1">
   <g id="line2d_28">
    <path d="M 386.718916 165.140689 
L 381.315917 173.719352 
" clip-path="url(#p862f348cd6)" style="fill: none; stroke: #ff0029; stroke-width: 1.5; stroke-linecap: square"/>
    <defs>
     <path id="m53461fe9f1" d="M 0 1 
C 0.265203 1 0.51958 0.894634 0.707107 0.707107 
C 0.894634 0.51958 1 0.265203 1 0 
C 1 -0.265203 0.894634 -0.51958 0.707107 -0.707107 
C 0.51958 -0.894634 0.265203 -1 0 -1 
C -0.265203 -1 -0.51958 -0.894634 -0.707107 -0.707107 
C -0.894634 -0.51958 -1 -0.265203 -1 0 
C -1 0.265203 -0.894634 0.51958 -0.707107 0.707107 
C -0.51958 0.894634 -0.265203 1 0 1 
z
" style="stroke: #ff0029"/>
    </defs>
    <g clip-path="url(#p862f348cd6)">
     <use xlink:href="#m53461fe9f1" x="386.718916" y="165.140689" style="fill: #ff0029; stroke: #ff0029"/>
     <use xlink:href="#m53461fe9f1" x="381.315917" y="173.719352" style="fill: #ff0029; stroke: #ff0029"/>
    </g>
   </g>
   <g id="line2d_29">
    <path d="M 381.315917 173.719352 
L 375.890198 182.407464 
" clip-path="url(#p862f348cd6)" style="fill: none; stroke: #ff4a00; stroke-width: 1.5; stroke-linecap: square"/>
    <defs>
     <path id="m86b1f0d9f7" d="M 0 1 
C 0.265203 1 0.51958 0.894634 0.707107 0.707107 
C 0.894634 0.51958 1 0.265203 1 0 
C 1 -0.265203 0.894634 -0.51958 0.707107 -0.707107 
C 0.51958 -0.894634 0.265203 -1 0 -1 
C -0.265203 -1 -0.51958 -0.894634 -0.707107 -0.707107 
C -0.894634 -0.51958 -1 -0.265203 -1 0 
C -1 0.265203 -0.894634 0.51958 -0.707107 0.707107 
C -0.51958 0.894634 -0.265203 1 0 1 
z
" style="stroke: #ff4a00"/>
    </defs>
    <g clip-path="url(#p862f348cd6)">
     <use xlink:href="#m86b1f0d9f7" x="381.315917" y="173.719352" style="fill: #ff4a00; stroke: #ff4a00"/>
     <use xlink:href="#m86b1f0d9f7" x="375.890198" y="182.407464" style="fill: #ff4a00; stroke: #ff4a00"/>
    </g>
   </g>
   <g id="line2d_30">
    <path d="M 375.890198 182.407464 
L 370.417739 191.241028 
" clip-path="url(#p862f348cd6)" style="fill: none; stroke: #ffbc00; stroke-width: 1.5; stroke-linecap: square"/>
    <defs>
     <path id="med73581f41" d="M 0 1 
C 0.265203 1 0.51958 0.894634 0.707107 0.707107 
C 0.894634 0.51958 1 0.265203 1 0 
C 1 -0.265203 0.894634 -0.51958 0.707107 -0.707107 
C 0.51958 -0.894634 0.265203 -1 0 -1 
C -0.265203 -1 -0.51958 -0.894634 -0.707107 -0.707107 
C -0.894634 -0.51958 -1 -0.265203 -1 0 
C -1 0.265203 -0.894634 0.51958 -0.707107 0.707107 
C -0.51958 0.894634 -0.265203 1 0 1 
z
" style="stroke: #ffbc00"/>
    </defs>
    <g clip-path="url(#p862f348cd6)">
     <use xlink:href="#med73581f41" x="375.890198" y="182.407464" style="fill: #ffbc00; stroke: #ffbc00"/>
     <use xlink:href="#med73581f41" x="370.417739" y="191.241028" style="fill: #ffbc00; stroke: #ffbc00"/>
    </g>
   </g>
   <g id="line2d_31">
    <path d="M 370.417739 191.241028 
L 364.87329 200.260675 
" clip-path="url(#p862f348cd6)" style="fill: none; stroke: #cfff00; stroke-width: 1.5; stroke-linecap: square"/>
    <defs>
     <path id="m42754ebd17" d="M 0 1 
C 0.265203 1 0.51958 0.894634 0.707107 0.707107 
C 0.894634 0.51958 1 0.265203 1 0 
C 1 -0.265203 0.894634 -0.51958 0.707107 -0.707107 
C 0.51958 -0.894634 0.265203 -1 0 -1 
C -0.265203 -1 -0.51958 -0.894634 -0.707107 -0.707107 
C -0.894634 -0.51958 -1 -0.265203 -1 0 
C -1 0.265203 -0.894634 0.51958 -0.707107 0.707107 
C -0.51958 0.894634 -0.265203 1 0 1 
z
" style="stroke: #cfff00"/>
    </defs>
    <g clip-path="url(#p862f348cd6)">
     <use xlink:href="#m42754ebd17" x="370.417739" y="191.241028" style="fill: #cfff00; stroke: #cfff00"/>
     <use xlink:href="#m42754ebd17" x="364.87329" y="200.260675" style="fill: #cfff00; stroke: #cfff00"/>
    </g>
   </g>
   <g id="line2d_32">
    <path d="M 364.87329 200.260675 
L 359.229286 209.514488 
" clip-path="url(#p862f348cd6)" style="fill: none; stroke: #5cff00; stroke-width: 1.5; stroke-linecap: square"/>
    <defs>
     <path id="m9b9b2162d8" d="M 0 1 
C 0.265203 1 0.51958 0.894634 0.707107 0.707107 
C 0.894634 0.51958 1 0.265203 1 0 
C 1 -0.265203 0.894634 -0.51958 0.707107 -0.707107 
C 0.51958 -0.894634 0.265203 -1 0 -1 
C -0.265203 -1 -0.51958 -0.894634 -0.707107 -0.707107 
C -0.894634 -0.51958 -1 -0.265203 -1 0 
C -1 0.265203 -0.894634 0.51958 -0.707107 0.707107 
C -0.51958 0.894634 -0.265203 1 0 1 
z
" style="stroke: #5cff00"/>
    </defs>
    <g clip-path="url(#p862f348cd6)">
     <use xlink:href="#m9b9b2162d8" x="364.87329" y="200.260675" style="fill: #5cff00; stroke: #5cff00"/>
     <use xlink:href="#m9b9b2162d8" x="359.229286" y="209.514488" style="fill: #5cff00; stroke: #5cff00"/>
    </g>
   </g>
   <g id="line2d_33">
    <path d="M 359.229286 209.514488 
L 337.847113 218.323081 
" clip-path="url(#p862f348cd6)" style="fill: none; stroke: #00ff17; stroke-width: 1.5; stroke-linecap: square"/>
    <defs>
     <path id="m5203b89f6b" d="M 0 1 
C 0.265203 1 0.51958 0.894634 0.707107 0.707107 
C 0.894634 0.51958 1 0.265203 1 0 
C 1 -0.265203 0.894634 -0.51958 0.707107 -0.707107 
C 0.51958 -0.894634 0.265203 -1 0 -1 
C -0.265203 -1 -0.51958 -0.894634 -0.707107 -0.707107 
C -0.894634 -0.51958 -1 -0.265203 -1 0 
C -1 0.265203 -0.894634 0.51958 -0.707107 0.707107 
C -0.51958 0.894634 -0.265203 1 0 1 
z
" style="stroke: #00ff17"/>
    </defs>
    <g clip-path="url(#p862f348cd6)">
     <use xlink:href="#m5203b89f6b" x="359.229286" y="209.514488" style="fill: #00ff17; stroke: #00ff17"/>
     <use xlink:href="#m5203b89f6b" x="337.847113" y="218.323081" style="fill: #00ff17; stroke: #00ff17"/>
    </g>
   </g>
   <g id="line2d_34">
    <path d="M 337.847113 218.323081 
L 304.477829 192.457552 
" clip-path="url(#p862f348cd6)" style="fill: none; stroke: #00ff89; stroke-width: 1.5; stroke-linecap: square"/>
    <defs>
     <path id="mae75851437" d="M 0 1 
C 0.265203 1 0.51958 0.894634 0.707107 0.707107 
C 0.894634 0.51958 1 0.265203 1 0 
C 1 -0.265203 0.894634 -0.51958 0.707107 -0.707107 
C 0.51958 -0.894634 0.265203 -1 0 -1 
C -0.265203 -1 -0.51958 -0.894634 -0.707107 -0.707107 
C -0.894634 -0.51958 -1 -0.265203 -1 0 
C -1 0.265203 -0.894634 0.51958 -0.707107 0.707107 
C -0.51958 0.894634 -0.265203 1 0 1 
z
" style="stroke: #00ff89"/>
    </defs>
    <g clip-path="url(#p862f348cd6)">
     <use xlink:href="#mae75851437" x="337.847113" y="218.323081" style="fill: #00ff89; stroke: #00ff89"/>
     <use xlink:href="#mae75851437" x="304.477829" y="192.457552" style="fill: #00ff89; stroke: #00ff89"/>
    </g>
   </g>
   <g id="line2d_35">
    <path d="M 304.477829 192.457552 
L 361.412226 253.182172 
" clip-path="url(#p862f348cd6)" style="fill: none; stroke: #00fffb; stroke-width: 1.5; stroke-linecap: square"/>
    <defs>
     <path id="m41a2dae4f9" d="M 0 1 
C 0.265203 1 0.51958 0.894634 0.707107 0.707107 
C 0.894634 0.51958 1 0.265203 1 0 
C 1 -0.265203 0.894634 -0.51958 0.707107 -0.707107 
C 0.51958 -0.894634 0.265203 -1 0 -1 
C -0.265203 -1 -0.51958 -0.894634 -0.707107 -0.707107 
C -0.894634 -0.51958 -1 -0.265203 -1 0 
C -1 0.265203 -0.894634 0.51958 -0.707107 0.707107 
C -0.51958 0.894634 -0.265203 1 0 1 
z
" style="stroke: #00fffb"/>
    </defs>
    <g clip-path="url(#p862f348cd6)">
     <use xlink:href="#m41a2dae4f9" x="304.477829" y="192.457552" style="fill: #00fffb; stroke: #00fffb"/>
     <use xlink:href="#m41a2dae4f9" x="361.412226" y="253.182172" style="fill: #00fffb; stroke: #00fffb"/>
    </g>
   </g>
   <g id="line2d_36">
    <path d="M 361.412226 253.182172 
L 378.129669 197.646629 
" clip-path="url(#p862f348cd6)" style="fill: none; stroke: #008fff; stroke-width: 1.5; stroke-linecap: square"/>
    <defs>
     <path id="m6f40a61ca9" d="M 0 1 
C 0.265203 1 0.51958 0.894634 0.707107 0.707107 
C 0.894634 0.51958 1 0.265203 1 0 
C 1 -0.265203 0.894634 -0.51958 0.707107 -0.707107 
C 0.51958 -0.894634 0.265203 -1 0 -1 
C -0.265203 -1 -0.51958 -0.894634 -0.707107 -0.707107 
C -0.894634 -0.51958 -1 -0.265203 -1 0 
C -1 0.265203 -0.894634 0.51958 -0.707107 0.707107 
C -0.51958 0.894634 -0.265203 1 0 1 
z
" style="stroke: #008fff"/>
    </defs>
    <g clip-path="url(#p862f348cd6)">
     <use xlink:href="#m6f40a61ca9" x="361.412226" y="253.182172" style="fill: #008fff; stroke: #008fff"/>
     <use xlink:href="#m6f40a61ca9" x="378.129669" y="197.646629" style="fill: #008fff; stroke: #008fff"/>
    </g>
   </g>
   <g id="line2d_37">
    <path d="M 378.129669 197.646629 
L 375.936663 176.730789 
" clip-path="url(#p862f348cd6)" style="fill: none; stroke: #001cff; stroke-width: 1.5; stroke-linecap: square"/>
    <defs>
     <path id="mc176342250" d="M 0 1 
C 0.265203 1 0.51958 0.894634 0.707107 0.707107 
C 0.894634 0.51958 1 0.265203 1 0 
C 1 -0.265203 0.894634 -0.51958 0.707107 -0.707107 
C 0.51958 -0.894634 0.265203 -1 0 -1 
C -0.265203 -1 -0.51958 -0.894634 -0.707107 -0.707107 
C -0.894634 -0.51958 -1 -0.265203 -1 0 
C -1 0.265203 -0.894634 0.51958 -0.707107 0.707107 
C -0.51958 0.894634 -0.265203 1 0 1 
z
" style="stroke: #001cff"/>
    </defs>
    <g clip-path="url(#p862f348cd6)">
     <use xlink:href="#mc176342250" x="378.129669" y="197.646629" style="fill: #001cff; stroke: #001cff"/>
     <use xlink:href="#mc176342250" x="375.936663" y="176.730789" style="fill: #001cff; stroke: #001cff"/>
    </g>
   </g>
   <g id="line2d_38">
    <path d="M 375.936663 176.730789 
L 384.950702 166.167047 
" clip-path="url(#p862f348cd6)" style="fill: none; stroke: #5800ff; stroke-width: 1.5; stroke-linecap: square"/>
    <defs>
     <path id="m5ad8f2a5f3" d="M 0 1 
C 0.265203 1 0.51958 0.894634 0.707107 0.707107 
C 0.894634 0.51958 1 0.265203 1 0 
C 1 -0.265203 0.894634 -0.51958 0.707107 -0.707107 
C 0.51958 -0.894634 0.265203 -1 0 -1 
C -0.265203 -1 -0.51958 -0.894634 -0.707107 -0.707107 
C -0.894634 -0.51958 -1 -0.265203 -1 0 
C -1 0.265203 -0.894634 0.51958 -0.707107 0.707107 
C -0.51958 0.894634 -0.265203 1 0 1 
z
" style="stroke: #5800ff"/>
    </defs>
    <g clip-path="url(#p862f348cd6)">
     <use xlink:href="#m5ad8f2a5f3" x="375.936663" y="176.730789" style="fill: #5800ff; stroke: #5800ff"/>
     <use xlink:href="#m5ad8f2a5f3" x="384.950702" y="166.167047" style="fill: #5800ff; stroke: #5800ff"/>
    </g>
   </g>
   <g id="line2d_39">
    <path d="M 384.950702 166.167047 
L 397.870865 172.106207 
" clip-path="url(#p862f348cd6)" style="fill: none; stroke: #cb00ff; stroke-width: 1.5; stroke-linecap: square"/>
    <defs>
     <path id="m76b18d6654" d="M 0 1 
C 0.265203 1 0.51958 0.894634 0.707107 0.707107 
C 0.894634 0.51958 1 0.265203 1 0 
C 1 -0.265203 0.894634 -0.51958 0.707107 -0.707107 
C 0.51958 -0.894634 0.265203 -1 0 -1 
C -0.265203 -1 -0.51958 -0.894634 -0.707107 -0.707107 
C -0.894634 -0.51958 -1 -0.265203 -1 0 
C -1 0.265203 -0.894634 0.51958 -0.707107 0.707107 
C -0.51958 0.894634 -0.265203 1 0 1 
z
" style="stroke: #cb00ff"/>
    </defs>
    <g clip-path="url(#p862f348cd6)">
     <use xlink:href="#m76b18d6654" x="384.950702" y="166.167047" style="fill: #cb00ff; stroke: #cb00ff"/>
     <use xlink:href="#m76b18d6654" x="397.870865" y="172.106207" style="fill: #cb00ff; stroke: #cb00ff"/>
    </g>
   </g>
   <g id="line2d_40">
    <path d="M 240.406149 261.167614 
" clip-path="url(#p862f348cd6)" style="fill: none; stroke: #ffffff; stroke-width: 1.5; stroke-linecap: square"/>
   </g>
   <g id="line2d_41">
    <path d="M 236.572857 89.978336 
" clip-path="url(#p862f348cd6)" style="fill: none; stroke: #ffffff; stroke-width: 1.5; stroke-linecap: square"/>
   </g>
   <g id="line2d_42">
    <path d="M 454.640867 247.902087 
" clip-path="url(#p862f348cd6)" style="fill: none; stroke: #ffffff; stroke-width: 1.5; stroke-linecap: square"/>
   </g>
   <g id="line2d_43">
    <path d="M 457.329638 78.846046 
" clip-path="url(#p862f348cd6)" style="fill: none; stroke: #ffffff; stroke-width: 1.5; stroke-linecap: square"/>
   </g>
   <g id="line2d_44">
    <path d="M 266.167184 352.952581 
" clip-path="url(#p862f348cd6)" style="fill: none; stroke: #ffffff; stroke-width: 1.5; stroke-linecap: square"/>
   </g>
   <g id="line2d_45">
    <path d="M 262.810189 167.272558 
" clip-path="url(#p862f348cd6)" style="fill: none; stroke: #ffffff; stroke-width: 1.5; stroke-linecap: square"/>
   </g>
   <g id="line2d_46">
    <path d="M 500.95492 336.94163 
" clip-path="url(#p862f348cd6)" style="fill: none; stroke: #ffffff; stroke-width: 1.5; stroke-linecap: square"/>
   </g>
   <g id="line2d_47">
    <path d="M 505.454469 153.755391 
" clip-path="url(#p862f348cd6)" style="fill: none; stroke: #ffffff; stroke-width: 1.5; stroke-linecap: square"/>
   </g>
  </g>
 </g>
 <defs>
  <clipPath id="p862f348cd6">
   <rect x="154.8" y="10.8" width="410.4" height="410.4"/>
  </clipPath>
 </defs>
</svg>
