<?xml version="1.0" encoding="utf-8" standalone="no"?>
<!DOCTYPE svg PUBLIC "-//W3C//DTD SVG 1.1//EN"
  "http://www.w3.org/Graphics/SVG/1.1/DTD/svg11.dtd">
<svg xmlns:xlink="http://www.w3.org/1999/xlink" width="720pt" height="432pt" viewBox="0 0 720 432" xmlns="http://www.w3.org/2000/svg" version="1.1">
 <metadata>
  <rdf:RDF xmlns:dc="http://purl.org/dc/elements/1.1/" xmlns:cc="http://creativecommons.org/ns#" xmlns:rdf="http://www.w3.org/1999/02/22-rdf-syntax-ns#">
   <cc:Work>
    <dc:type rdf:resource="http://purl.org/dc/dcmitype/StillImage"/>
    <dc:date>2022-03-17T15:34:26.930020</dc:date>
    <dc:format>image/svg+xml</dc:format>
    <dc:creator>
     <cc:Agent>
      <dc:title>Matplotlib v3.5.0, https://matplotlib.org/</dc:title>
     </cc:Agent>
    </dc:creator>
   </cc:Work>
  </rdf:RDF>
 </metadata>
 <defs>
  <style type="text/css">*{stroke-linejoin: round; stroke-linecap: butt}</style>
 </defs>
 <g id="figure_1">
  <g id="patch_1">
   <path d="M 0 432 
L 720 432 
L 720 0 
L 0 0 
z
" style="fill: #ffffff"/>
  </g>
  <g id="patch_2">
   <path d="M 154.8 421.2 
L 565.2 421.2 
L 565.2 10.8 
L 154.8 10.8 
z
" style="fill: #ffffff"/>
  </g>
  <g id="pane3d_1">
   <g id="patch_3">
    <path d="M 185.78803 320.008512 
L 321.315513 206.406689 
L 319.431551 42.572551 
L 177.41838 146.207295 
" style="fill: none; opacity: 0.5; stroke: #f2f2f2; stroke-linejoin: miter"/>
   </g>
  </g>
  <g id="pane3d_2">
   <g id="patch_4">
    <path d="M 321.315513 206.406689 
L 538.788767 269.617578 
L 546.549621 100.140361 
L 319.431551 42.572551 
" style="fill: none; opacity: 0.5; stroke: #e6e6e6; stroke-linejoin: miter"/>
   </g>
  </g>
  <g id="pane3d_3">
   <g id="patch_5">
    <path d="M 185.78803 320.008512 
L 416.320301 395.300351 
L 538.788767 269.617578 
L 321.315513 206.406689 
" style="fill: none; opacity: 0.5; stroke: #ececec; stroke-linejoin: miter"/>
   </g>
  </g>
  <g id="axis3d_1">
   <g id="line2d_1">
    <path d="M 185.78803 320.008512 
L 416.320301 395.300351 
" style="fill: none; stroke: #000000; stroke-width: 0.8; stroke-linecap: square"/>
   </g>
   <g id="text_1">
    <!-- $\tilde{x}_{1,:}$ -->
    <g transform="translate(269.832562 391.421509)rotate(-341.912962)scale(0.18 -0.18)">
     <defs>
      <path id="CMR17-7e" d="M 2400 4198 
C 2182 3987 2061 3865 1862 3865 
C 1722 3865 1626 3936 1491 4032 
C 1363 4121 1261 4198 1120 4198 
C 890 4198 730 4012 461 3718 
L 531 3648 
C 749 3859 870 3980 1069 3980 
C 1210 3980 1306 3910 1440 3814 
C 1568 3724 1670 3648 1811 3648 
C 2042 3648 2202 3833 2470 4128 
L 2400 4198 
z
" transform="scale(0.015625)"/>
      <path id="CMMI12-78" d="M 3034 2624 
C 2829 2585 2752 2431 2752 2310 
C 2752 2156 2874 2105 2963 2105 
C 3155 2105 3290 2271 3290 2444 
C 3290 2694 2982 2816 2714 2816 
C 2323 2816 2106 2451 2048 2329 
C 1901 2790 1504 2816 1389 2816 
C 736 2816 390 1993 390 1849 
C 390 1823 416 1790 461 1790 
C 512 1790 525 1829 538 1855 
C 755 2572 1184 2687 1370 2687 
C 1658 2687 1715 2438 1715 2284 
C 1715 2143 1677 1993 1600 1678 
L 1382 778 
C 1286 390 1101 64 762 64 
C 730 64 570 64 435 126 
C 666 166 717 358 717 435 
C 717 563 621 640 499 640 
C 346 640 179 505 179 300 
C 179 57 480 -64 755 -64 
C 1062 -64 1280 153 1414 415 
C 1517 64 1837 -64 2074 -64 
C 2726 -64 3072 751 3072 896 
C 3072 929 3046 955 3008 955 
C 2950 955 2944 922 2925 870 
C 2752 300 2381 64 2093 64 
C 1869 64 1747 204 1747 467 
C 1747 607 1773 712 1875 1146 
L 2099 2039 
C 2195 2425 2413 2687 2707 2687 
C 2720 2687 2899 2687 3034 2624 
z
" transform="scale(0.015625)"/>
      <path id="CMR17-31" d="M 1702 4083 
C 1702 4217 1696 4224 1606 4224 
C 1357 3927 979 3833 621 3820 
C 602 3820 570 3820 563 3808 
C 557 3795 557 3782 557 3648 
C 755 3648 1088 3686 1344 3839 
L 1344 467 
C 1344 243 1331 166 781 166 
L 589 166 
L 589 0 
C 896 6 1216 12 1523 12 
C 1830 12 2150 6 2458 0 
L 2458 166 
L 2266 166 
C 1715 166 1702 236 1702 467 
L 1702 4083 
z
" transform="scale(0.015625)"/>
      <path id="CMMI12-3b" d="M 1248 -26 
C 1248 345 1126 620 864 620 
C 659 620 557 454 557 313 
C 557 172 653 0 870 0 
C 954 0 1024 25 1082 83 
C 1094 96 1101 96 1107 96 
C 1120 96 1120 6 1120 -26 
C 1120 -233 1082 -642 710 -1051 
C 640 -1127 640 -1140 640 -1152 
C 640 -1184 672 -1216 704 -1216 
C 755 -1216 1248 -749 1248 -26 
z
" transform="scale(0.015625)"/>
      <path id="CMR17-3a" d="M 1062 2489 
C 1062 2649 934 2752 800 2752 
C 672 2752 538 2649 538 2489 
C 538 2329 666 2227 800 2227 
C 928 2227 1062 2329 1062 2489 
z
M 1062 262 
C 1062 422 934 524 800 524 
C 672 524 538 422 538 262 
C 538 102 666 0 800 0 
C 928 0 1062 102 1062 262 
z
" transform="scale(0.015625)"/>
     </defs>
     <use xlink:href="#CMR17-7e" transform="translate(7.581509 0.006461)scale(0.996264)"/>
     <use xlink:href="#CMMI12-78" transform="scale(0.996264)"/>
     <use xlink:href="#CMR17-31" transform="translate(55.43406 -14.943915)scale(0.697382)"/>
     <use xlink:href="#CMMI12-3b" transform="translate(87.417241 -14.943915)scale(0.697382)"/>
     <use xlink:href="#CMR17-3a" transform="translate(106.385174 -14.943915)scale(0.697382)"/>
    </g>
   </g>
   <g id="xtick_1">
    <g id="line2d_2">
     <path d="M 202.211067 323.993041 
L 198.686463 326.985531 
" style="fill: none; stroke: #000000; stroke-width: 0.8; stroke-linecap: square"/>
    </g>
    <g id="text_2">
     <!-- $\mathdefault{−12.5}$ -->
     <g transform="translate(180.789404 347.603571)scale(0.1 -0.1)">
      <defs>
       <path id="CMSY10-0" d="M 4218 1472 
C 4326 1472 4442 1472 4442 1600 
C 4442 1728 4326 1728 4218 1728 
L 755 1728 
C 646 1728 531 1728 531 1600 
C 531 1472 646 1472 755 1472 
L 4218 1472 
z
" transform="scale(0.015625)"/>
       <path id="CMR17-32" d="M 2669 990 
L 2554 990 
C 2490 537 2438 460 2413 422 
C 2381 371 1920 371 1830 371 
L 602 371 
C 832 620 1280 1073 1824 1596 
C 2214 1966 2669 2400 2669 3033 
C 2669 3788 2067 4224 1395 4224 
C 691 4224 262 3603 262 3027 
C 262 2777 448 2745 525 2745 
C 589 2745 781 2783 781 3007 
C 781 3206 614 3264 525 3264 
C 486 3264 448 3257 422 3244 
C 544 3788 915 4057 1306 4057 
C 1862 4057 2227 3616 2227 3033 
C 2227 2477 1901 1998 1536 1583 
L 262 147 
L 262 0 
L 2515 0 
L 2669 990 
z
" transform="scale(0.015625)"/>
       <path id="CMMI12-3a" d="M 1178 307 
C 1178 492 1024 620 870 620 
C 685 620 557 467 557 313 
C 557 128 710 0 864 0 
C 1050 0 1178 153 1178 307 
z
" transform="scale(0.015625)"/>
       <path id="CMR17-35" d="M 730 3750 
C 794 3724 1056 3641 1325 3641 
C 1920 3641 2246 3961 2432 4140 
C 2432 4191 2432 4224 2394 4224 
C 2387 4224 2374 4224 2323 4198 
C 2099 4102 1837 4032 1517 4032 
C 1325 4032 1037 4055 723 4191 
C 653 4224 640 4224 634 4224 
C 602 4224 595 4217 595 4090 
L 595 2231 
C 595 2113 595 2080 659 2080 
C 691 2080 704 2093 736 2139 
C 941 2435 1222 2560 1542 2560 
C 1766 2560 2246 2415 2246 1293 
C 2246 1087 2246 716 2054 422 
C 1894 159 1645 25 1370 25 
C 947 25 518 319 403 812 
C 429 806 480 793 506 793 
C 589 793 749 838 749 1036 
C 749 1209 627 1280 506 1280 
C 358 1280 262 1190 262 1011 
C 262 454 704 -128 1382 -128 
C 2042 -128 2669 441 2669 1267 
C 2669 2054 2170 2662 1549 2662 
C 1222 2662 947 2540 730 2304 
L 730 3750 
z
" transform="scale(0.015625)"/>
      </defs>
      <use xlink:href="#CMSY10-0" transform="scale(0.996264)"/>
      <use xlink:href="#CMR17-31" transform="translate(77.487468 0)scale(0.996264)"/>
      <use xlink:href="#CMR17-32" transform="translate(123.177945 0)scale(0.996264)"/>
      <use xlink:href="#CMMI12-3a" transform="translate(168.868422 0)scale(0.996264)"/>
      <use xlink:href="#CMR17-35" transform="translate(195.965599 0)scale(0.996264)"/>
     </g>
    </g>
   </g>
   <g id="xtick_2">
    <g id="line2d_3">
     <path d="M 226.31136 331.856418 
L 222.818852 334.882792 
" style="fill: none; stroke: #000000; stroke-width: 0.8; stroke-linecap: square"/>
    </g>
    <g id="text_3">
     <!-- $\mathdefault{−10.0}$ -->
     <g transform="translate(204.916242 355.586084)scale(0.1 -0.1)">
      <defs>
       <path id="CMR17-30" d="M 2688 2038 
C 2688 2430 2682 3099 2413 3613 
C 2176 4063 1798 4224 1466 4224 
C 1158 4224 768 4082 525 3620 
C 269 3137 243 2539 243 2038 
C 243 1671 250 1112 448 623 
C 723 -39 1216 -128 1466 -128 
C 1760 -128 2208 -7 2470 604 
C 2662 1048 2688 1568 2688 2038 
z
M 1466 -26 
C 1056 -26 813 328 723 816 
C 653 1196 653 1749 653 2109 
C 653 2604 653 3015 736 3407 
C 858 3954 1216 4121 1466 4121 
C 1728 4121 2067 3947 2189 3420 
C 2272 3054 2278 2623 2278 2109 
C 2278 1691 2278 1176 2202 797 
C 2067 96 1690 -26 1466 -26 
z
" transform="scale(0.015625)"/>
      </defs>
      <use xlink:href="#CMSY10-0" transform="scale(0.996264)"/>
      <use xlink:href="#CMR17-31" transform="translate(77.487468 0)scale(0.996264)"/>
      <use xlink:href="#CMR17-30" transform="translate(123.177945 0)scale(0.996264)"/>
      <use xlink:href="#CMMI12-3a" transform="translate(168.868422 0)scale(0.996264)"/>
      <use xlink:href="#CMR17-30" transform="translate(195.965599 0)scale(0.996264)"/>
     </g>
    </g>
   </g>
   <g id="xtick_3">
    <g id="line2d_4">
     <path d="M 250.685025 339.808991 
L 247.225572 342.869828 
" style="fill: none; stroke: #000000; stroke-width: 0.8; stroke-linecap: square"/>
    </g>
    <g id="text_4">
     <!-- $\mathdefault{−7.5}$ -->
     <g transform="translate(231.808286 363.65943)scale(0.1 -0.1)">
      <defs>
       <path id="CMR17-37" d="M 2886 3955 
L 2886 4096 
L 1382 4096 
C 634 4096 621 4166 595 4288 
L 480 4288 
L 294 3104 
L 410 3104 
C 429 3226 474 3552 550 3673 
C 589 3724 1062 3724 1171 3724 
L 2579 3724 
L 1869 2670 
C 1395 1961 1069 1003 1069 166 
C 1069 89 1069 -128 1299 -128 
C 1530 -128 1530 89 1530 172 
L 1530 466 
C 1530 1514 1709 2204 2003 2644 
L 2886 3955 
z
" transform="scale(0.015625)"/>
      </defs>
      <use xlink:href="#CMSY10-0" transform="scale(0.996264)"/>
      <use xlink:href="#CMR17-37" transform="translate(77.487468 0)scale(0.996264)"/>
      <use xlink:href="#CMMI12-3a" transform="translate(123.177945 0)scale(0.996264)"/>
      <use xlink:href="#CMR17-35" transform="translate(150.275122 0)scale(0.996264)"/>
     </g>
    </g>
   </g>
   <g id="xtick_4">
    <g id="line2d_5">
     <path d="M 275.336741 347.852285 
L 271.911327 350.948178 
" style="fill: none; stroke: #000000; stroke-width: 0.8; stroke-linecap: square"/>
    </g>
    <g id="text_5">
     <!-- $\mathdefault{−5.0}$ -->
     <g transform="translate(256.488913 371.825169)scale(0.1 -0.1)">
      <use xlink:href="#CMSY10-0" transform="scale(0.996264)"/>
      <use xlink:href="#CMR17-35" transform="translate(77.487468 0)scale(0.996264)"/>
      <use xlink:href="#CMMI12-3a" transform="translate(123.177945 0)scale(0.996264)"/>
      <use xlink:href="#CMR17-30" transform="translate(150.275122 0)scale(0.996264)"/>
     </g>
    </g>
   </g>
   <g id="xtick_5">
    <g id="line2d_6">
     <path d="M 300.271293 355.987862 
L 296.88093 359.119416 
" style="fill: none; stroke: #000000; stroke-width: 0.8; stroke-linecap: square"/>
    </g>
    <g id="text_6">
     <!-- $\mathdefault{−2.5}$ -->
     <g transform="translate(281.453613 380.084894)scale(0.1 -0.1)">
      <use xlink:href="#CMSY10-0" transform="scale(0.996264)"/>
      <use xlink:href="#CMR17-32" transform="translate(77.487468 0)scale(0.996264)"/>
      <use xlink:href="#CMMI12-3a" transform="translate(123.177945 0)scale(0.996264)"/>
      <use xlink:href="#CMR17-35" transform="translate(150.275122 0)scale(0.996264)"/>
     </g>
    </g>
   </g>
   <g id="xtick_6">
    <g id="line2d_7">
     <path d="M 325.493576 364.217319 
L 322.139306 367.385154 
" style="fill: none; stroke: #000000; stroke-width: 0.8; stroke-linecap: square"/>
    </g>
    <g id="text_7">
     <!-- $\mathdefault{0.0}$ -->
     <g transform="translate(310.581691 388.440238)scale(0.1 -0.1)">
      <use xlink:href="#CMR17-30" transform="scale(0.996264)"/>
      <use xlink:href="#CMMI12-3a" transform="translate(45.690477 0)scale(0.996264)"/>
      <use xlink:href="#CMR17-30" transform="translate(72.787654 0)scale(0.996264)"/>
     </g>
    </g>
   </g>
   <g id="xtick_7">
    <g id="line2d_8">
     <path d="M 351.0086 372.542291 
L 347.691492 375.747041 
" style="fill: none; stroke: #000000; stroke-width: 0.8; stroke-linecap: square"/>
    </g>
    <g id="text_8">
     <!-- $\mathdefault{2.5}$ -->
     <g transform="translate(336.129449 396.892872)scale(0.1 -0.1)">
      <use xlink:href="#CMR17-32" transform="scale(0.996264)"/>
      <use xlink:href="#CMMI12-3a" transform="translate(45.690477 0)scale(0.996264)"/>
      <use xlink:href="#CMR17-35" transform="translate(72.787654 0)scale(0.996264)"/>
     </g>
    </g>
   </g>
   <g id="xtick_8">
    <g id="line2d_9">
     <path d="M 376.82149 380.96445 
L 373.542646 384.206764 
" style="fill: none; stroke: #000000; stroke-width: 0.8; stroke-linecap: square"/>
    </g>
    <g id="text_9">
     <!-- $\mathdefault{5.0}$ -->
     <g transform="translate(361.976426 405.444504)scale(0.1 -0.1)">
      <use xlink:href="#CMR17-35" transform="scale(0.996264)"/>
      <use xlink:href="#CMMI12-3a" transform="translate(45.690477 0)scale(0.996264)"/>
      <use xlink:href="#CMR17-30" transform="translate(72.787654 0)scale(0.996264)"/>
     </g>
    </g>
   </g>
   <g id="xtick_9">
    <g id="line2d_10">
     <path d="M 402.937495 389.485508 
L 399.698044 392.76605 
" style="fill: none; stroke: #000000; stroke-width: 0.8; stroke-linecap: square"/>
    </g>
    <g id="text_10">
     <!-- $\mathdefault{7.5}$ -->
     <g transform="translate(388.12791 414.096884)scale(0.1 -0.1)">
      <use xlink:href="#CMR17-37" transform="scale(0.996264)"/>
      <use xlink:href="#CMMI12-3a" transform="translate(45.690477 0)scale(0.996264)"/>
      <use xlink:href="#CMR17-35" transform="translate(72.787654 0)scale(0.996264)"/>
     </g>
    </g>
   </g>
  </g>
  <g id="axis3d_2">
   <g id="line2d_11">
    <path d="M 538.788767 269.617578 
L 416.320301 395.300351 
" style="fill: none; stroke: #000000; stroke-width: 0.8; stroke-linecap: square"/>
   </g>
   <g id="text_11">
    <!-- $\tilde{x}_{2,:}$ -->
    <g transform="translate(501.621649 368.177913)rotate(-45.742112)scale(0.18 -0.18)">
     <use xlink:href="#CMR17-7e" transform="translate(7.581509 0.006461)scale(0.996264)"/>
     <use xlink:href="#CMMI12-78" transform="scale(0.996264)"/>
     <use xlink:href="#CMR17-32" transform="translate(55.43406 -14.943915)scale(0.697382)"/>
     <use xlink:href="#CMMI12-3b" transform="translate(87.417241 -14.943915)scale(0.697382)"/>
     <use xlink:href="#CMR17-3a" transform="translate(106.385174 -14.943915)scale(0.697382)"/>
    </g>
   </g>
   <g id="xtick_10">
    <g id="line2d_12">
     <path d="M 425.781065 382.983273 
L 431.584116 384.858668 
" style="fill: none; stroke: #000000; stroke-width: 0.8; stroke-linecap: square"/>
    </g>
    <g id="text_12">
     <!-- $\mathdefault{−5.0}$ -->
     <g transform="translate(430.326901 403.918062)scale(0.1 -0.1)">
      <use xlink:href="#CMSY10-0" transform="scale(0.996264)"/>
      <use xlink:href="#CMR17-35" transform="translate(77.487468 0)scale(0.996264)"/>
      <use xlink:href="#CMMI12-3a" transform="translate(123.177945 0)scale(0.996264)"/>
      <use xlink:href="#CMR17-30" transform="translate(150.275122 0)scale(0.996264)"/>
     </g>
    </g>
   </g>
   <g id="xtick_11">
    <g id="line2d_13">
     <path d="M 440.000146 368.417137 
L 445.763125 370.255104 
" style="fill: none; stroke: #000000; stroke-width: 0.8; stroke-linecap: square"/>
    </g>
    <g id="text_13">
     <!-- $\mathdefault{−2.5}$ -->
     <g transform="translate(444.409179 389.199546)scale(0.1 -0.1)">
      <use xlink:href="#CMSY10-0" transform="scale(0.996264)"/>
      <use xlink:href="#CMR17-32" transform="translate(77.487468 0)scale(0.996264)"/>
      <use xlink:href="#CMMI12-3a" transform="translate(123.177945 0)scale(0.996264)"/>
      <use xlink:href="#CMR17-35" transform="translate(150.275122 0)scale(0.996264)"/>
     </g>
    </g>
   </g>
   <g id="xtick_12">
    <g id="line2d_14">
     <path d="M 453.937027 354.140089 
L 459.660373 355.941736 
" style="fill: none; stroke: #000000; stroke-width: 0.8; stroke-linecap: square"/>
    </g>
    <g id="text_14">
     <!-- $\mathdefault{0.0}$ -->
     <g transform="translate(462.08612 374.773375)scale(0.1 -0.1)">
      <use xlink:href="#CMR17-30" transform="scale(0.996264)"/>
      <use xlink:href="#CMMI12-3a" transform="translate(45.690477 0)scale(0.996264)"/>
      <use xlink:href="#CMR17-30" transform="translate(72.787654 0)scale(0.996264)"/>
     </g>
    </g>
   </g>
   <g id="xtick_13">
    <g id="line2d_15">
     <path d="M 467.600028 340.143607 
L 473.284178 341.910001 
" style="fill: none; stroke: #000000; stroke-width: 0.8; stroke-linecap: square"/>
    </g>
    <g id="text_15">
     <!-- $\mathdefault{2.5}$ -->
     <g transform="translate(475.617232 360.630925)scale(0.1 -0.1)">
      <use xlink:href="#CMR17-32" transform="scale(0.996264)"/>
      <use xlink:href="#CMMI12-3a" transform="translate(45.690477 0)scale(0.996264)"/>
      <use xlink:href="#CMR17-35" transform="translate(72.787654 0)scale(0.996264)"/>
     </g>
    </g>
   </g>
   <g id="xtick_14">
    <g id="line2d_16">
     <path d="M 480.997142 326.4195 
L 486.64253 328.151666 
" style="fill: none; stroke: #000000; stroke-width: 0.8; stroke-linecap: square"/>
    </g>
    <g id="text_16">
     <!-- $\mathdefault{5.0}$ -->
     <g transform="translate(488.884818 346.763908)scale(0.1 -0.1)">
      <use xlink:href="#CMR17-35" transform="scale(0.996264)"/>
      <use xlink:href="#CMMI12-3a" transform="translate(45.690477 0)scale(0.996264)"/>
      <use xlink:href="#CMR17-30" transform="translate(72.787654 0)scale(0.996264)"/>
     </g>
    </g>
   </g>
   <g id="xtick_15">
    <g id="line2d_17">
     <path d="M 494.136056 312.959896 
L 499.743113 314.658818 
" style="fill: none; stroke: #000000; stroke-width: 0.8; stroke-linecap: square"/>
    </g>
    <g id="text_17">
     <!-- $\mathdefault{7.5}$ -->
     <g transform="translate(501.896501 333.164356)scale(0.1 -0.1)">
      <use xlink:href="#CMR17-37" transform="scale(0.996264)"/>
      <use xlink:href="#CMMI12-3a" transform="translate(45.690477 0)scale(0.996264)"/>
      <use xlink:href="#CMR17-35" transform="translate(72.787654 0)scale(0.996264)"/>
     </g>
    </g>
   </g>
   <g id="xtick_16">
    <g id="line2d_18">
     <path d="M 507.024163 299.75722 
L 512.593317 301.423847 
" style="fill: none; stroke: #000000; stroke-width: 0.8; stroke-linecap: square"/>
    </g>
    <g id="text_18">
     <!-- $\mathdefault{10.0}$ -->
     <g transform="translate(512.168947 319.824602)scale(0.1 -0.1)">
      <use xlink:href="#CMR17-31" transform="scale(0.996264)"/>
      <use xlink:href="#CMR17-30" transform="translate(45.690477 0)scale(0.996264)"/>
      <use xlink:href="#CMMI12-3a" transform="translate(91.380954 0)scale(0.996264)"/>
      <use xlink:href="#CMR17-30" transform="translate(118.478131 0)scale(0.996264)"/>
     </g>
    </g>
   </g>
   <g id="xtick_17">
    <g id="line2d_19">
     <path d="M 519.668578 286.804185 
L 525.200252 288.439429 
" style="fill: none; stroke: #000000; stroke-width: 0.8; stroke-linecap: square"/>
    </g>
    <g id="text_19">
     <!-- $\mathdefault{12.5}$ -->
     <g transform="translate(524.690548 306.737275)scale(0.1 -0.1)">
      <use xlink:href="#CMR17-31" transform="scale(0.996264)"/>
      <use xlink:href="#CMR17-32" transform="translate(45.690477 0)scale(0.996264)"/>
      <use xlink:href="#CMMI12-3a" transform="translate(91.380954 0)scale(0.996264)"/>
      <use xlink:href="#CMR17-35" transform="translate(118.478131 0)scale(0.996264)"/>
     </g>
    </g>
   </g>
   <g id="xtick_18">
    <g id="line2d_20">
     <path d="M 532.076146 274.093776 
L 537.57076 275.698516 
" style="fill: none; stroke: #000000; stroke-width: 0.8; stroke-linecap: square"/>
    </g>
    <g id="text_20">
     <!-- $\mathdefault{15.0}$ -->
     <g transform="translate(536.977425 293.895275)scale(0.1 -0.1)">
      <use xlink:href="#CMR17-31" transform="scale(0.996264)"/>
      <use xlink:href="#CMR17-35" transform="translate(45.690477 0)scale(0.996264)"/>
      <use xlink:href="#CMMI12-3a" transform="translate(91.380954 0)scale(0.996264)"/>
      <use xlink:href="#CMR17-30" transform="translate(118.478131 0)scale(0.996264)"/>
     </g>
    </g>
   </g>
  </g>
  <g id="axis3d_3">
   <g id="line2d_21">
    <path d="M 538.788767 269.617578 
L 546.549621 100.140361 
" style="fill: none; stroke: #000000; stroke-width: 0.8; stroke-linecap: square"/>
   </g>
   <g id="text_21">
    <!-- $\tilde{x}_{3,:}$ -->
    <g transform="translate(585.842946 192.929266)rotate(-87.378092)scale(0.18 -0.18)">
     <defs>
      <path id="CMR17-33" d="M 1414 2176 
C 1984 2176 2234 1673 2234 1094 
C 2234 322 1824 25 1453 25 
C 1114 25 563 193 390 691 
C 422 678 454 678 486 678 
C 640 678 755 780 755 947 
C 755 1132 614 1216 486 1216 
C 378 1216 211 1164 211 927 
C 211 335 787 -128 1466 -128 
C 2176 -128 2720 432 2720 1087 
C 2720 1718 2208 2176 1600 2246 
C 2086 2347 2554 2776 2554 3353 
C 2554 3856 2048 4224 1472 4224 
C 890 4224 378 3862 378 3347 
C 378 3123 544 3084 627 3084 
C 762 3084 877 3167 877 3334 
C 877 3500 762 3584 627 3584 
C 602 3584 570 3584 544 3571 
C 730 3999 1235 4076 1459 4076 
C 1683 4076 2106 3966 2106 3347 
C 2106 3167 2080 2851 1862 2574 
C 1670 2329 1453 2316 1242 2297 
C 1210 2297 1062 2284 1037 2284 
C 992 2278 966 2272 966 2227 
C 966 2182 973 2176 1101 2176 
L 1414 2176 
z
" transform="scale(0.015625)"/>
     </defs>
     <use xlink:href="#CMR17-7e" transform="translate(7.581509 0.006461)scale(0.996264)"/>
     <use xlink:href="#CMMI12-78" transform="scale(0.996264)"/>
     <use xlink:href="#CMR17-33" transform="translate(55.43406 -14.943915)scale(0.697382)"/>
     <use xlink:href="#CMMI12-3b" transform="translate(87.417241 -14.943915)scale(0.697382)"/>
     <use xlink:href="#CMR17-3a" transform="translate(106.385174 -14.943915)scale(0.697382)"/>
    </g>
   </g>
   <g id="xtick_19">
    <g id="line2d_22">
     <path d="M 537.785473 250.945085 
L 543.292702 252.523856 
" style="fill: none; stroke: #000000; stroke-width: 0.8; stroke-linecap: square"/>
    </g>
    <g id="text_22">
     <!-- $\mathdefault{−7.5}$ -->
     <g transform="translate(547.734068 255.804677)scale(0.1 -0.1)">
      <use xlink:href="#CMSY10-0" transform="scale(0.996264)"/>
      <use xlink:href="#CMR17-37" transform="translate(77.487468 0)scale(0.996264)"/>
      <use xlink:href="#CMMI12-3a" transform="translate(123.177945 0)scale(0.996264)"/>
      <use xlink:href="#CMR17-35" transform="translate(150.275122 0)scale(0.996264)"/>
     </g>
    </g>
   </g>
   <g id="xtick_20">
    <g id="line2d_23">
     <path d="M 538.678235 231.239115 
L 544.215115 232.80241 
" style="fill: none; stroke: #000000; stroke-width: 0.8; stroke-linecap: square"/>
    </g>
    <g id="text_23">
     <!-- $\mathdefault{−5.0}$ -->
     <g transform="translate(548.729907 236.118917)scale(0.1 -0.1)">
      <use xlink:href="#CMSY10-0" transform="scale(0.996264)"/>
      <use xlink:href="#CMR17-35" transform="translate(77.487468 0)scale(0.996264)"/>
      <use xlink:href="#CMMI12-3a" transform="translate(123.177945 0)scale(0.996264)"/>
      <use xlink:href="#CMR17-30" transform="translate(150.275122 0)scale(0.996264)"/>
     </g>
    </g>
   </g>
   <g id="xtick_21">
    <g id="line2d_24">
     <path d="M 539.580299 211.327798 
L 545.147152 212.875208 
" style="fill: none; stroke: #000000; stroke-width: 0.8; stroke-linecap: square"/>
    </g>
    <g id="text_24">
     <!-- $\mathdefault{−2.5}$ -->
     <g transform="translate(549.736106 216.228345)scale(0.1 -0.1)">
      <use xlink:href="#CMSY10-0" transform="scale(0.996264)"/>
      <use xlink:href="#CMR17-32" transform="translate(77.487468 0)scale(0.996264)"/>
      <use xlink:href="#CMMI12-3a" transform="translate(123.177945 0)scale(0.996264)"/>
      <use xlink:href="#CMR17-35" transform="translate(150.275122 0)scale(0.996264)"/>
     </g>
    </g>
   </g>
   <g id="xtick_22">
    <g id="line2d_25">
     <path d="M 540.491813 191.207908 
L 546.088964 192.739013 
" style="fill: none; stroke: #000000; stroke-width: 0.8; stroke-linecap: square"/>
    </g>
    <g id="text_25">
     <!-- $\mathdefault{0.0}$ -->
     <g transform="translate(554.627201 196.129747)scale(0.1 -0.1)">
      <use xlink:href="#CMR17-30" transform="scale(0.996264)"/>
      <use xlink:href="#CMMI12-3a" transform="translate(45.690477 0)scale(0.996264)"/>
      <use xlink:href="#CMR17-30" transform="translate(72.787654 0)scale(0.996264)"/>
     </g>
    </g>
   </g>
   <g id="xtick_23">
    <g id="line2d_26">
     <path d="M 541.412924 170.87615 
L 547.040705 172.39052 
" style="fill: none; stroke: #000000; stroke-width: 0.8; stroke-linecap: square"/>
    </g>
    <g id="text_26">
     <!-- $\mathdefault{2.5}$ -->
     <g transform="translate(555.654613 175.819842)scale(0.1 -0.1)">
      <use xlink:href="#CMR17-32" transform="scale(0.996264)"/>
      <use xlink:href="#CMMI12-3a" transform="translate(45.690477 0)scale(0.996264)"/>
      <use xlink:href="#CMR17-35" transform="translate(72.787654 0)scale(0.996264)"/>
     </g>
    </g>
   </g>
   <g id="xtick_24">
    <g id="line2d_27">
     <path d="M 542.343787 150.329161 
L 548.002534 151.826355 
" style="fill: none; stroke: #000000; stroke-width: 0.8; stroke-linecap: square"/>
    </g>
    <g id="text_27">
     <!-- $\mathdefault{5.0}$ -->
     <g transform="translate(556.692883 155.295281)scale(0.1 -0.1)">
      <use xlink:href="#CMR17-35" transform="scale(0.996264)"/>
      <use xlink:href="#CMMI12-3a" transform="translate(45.690477 0)scale(0.996264)"/>
      <use xlink:href="#CMR17-30" transform="translate(72.787654 0)scale(0.996264)"/>
     </g>
    </g>
   </g>
   <g id="xtick_25">
    <g id="line2d_28">
     <path d="M 543.284557 129.563504 
L 548.974612 131.043069 
" style="fill: none; stroke: #000000; stroke-width: 0.8; stroke-linecap: square"/>
    </g>
    <g id="text_28">
     <!-- $\mathdefault{7.5}$ -->
     <g transform="translate(557.742186 134.552642)scale(0.1 -0.1)">
      <use xlink:href="#CMR17-37" transform="scale(0.996264)"/>
      <use xlink:href="#CMMI12-3a" transform="translate(45.690477 0)scale(0.996264)"/>
      <use xlink:href="#CMR17-35" transform="translate(72.787654 0)scale(0.996264)"/>
     </g>
    </g>
   </g>
   <g id="xtick_26">
    <g id="line2d_29">
     <path d="M 544.235392 108.57567 
L 549.957103 110.037142 
" style="fill: none; stroke: #000000; stroke-width: 0.8; stroke-linecap: square"/>
    </g>
    <g id="text_29">
     <!-- $\mathdefault{10.0}$ -->
     <g transform="translate(556.31203 113.588431)scale(0.1 -0.1)">
      <use xlink:href="#CMR17-31" transform="scale(0.996264)"/>
      <use xlink:href="#CMR17-30" transform="translate(45.690477 0)scale(0.996264)"/>
      <use xlink:href="#CMMI12-3a" transform="translate(91.380954 0)scale(0.996264)"/>
      <use xlink:href="#CMR17-30" transform="translate(118.478131 0)scale(0.996264)"/>
     </g>
    </g>
   </g>
  </g>
  <g id="axes_1">
   <g id="line2d_30">
    <path d="M 388.901711 260.692381 
L 298.070878 132.61235 
" clip-path="url(#p9a73b511ae)" style="fill: none; stroke: #ff0029; stroke-width: 1.5; stroke-linecap: square"/>
    <defs>
     <path id="m20bda911eb" d="M 0 1 
C 0.265203 1 0.51958 0.894634 0.707107 0.707107 
C 0.894634 0.51958 1 0.265203 1 0 
C 1 -0.265203 0.894634 -0.51958 0.707107 -0.707107 
C 0.51958 -0.894634 0.265203 -1 0 -1 
C -0.265203 -1 -0.51958 -0.894634 -0.707107 -0.707107 
C -0.894634 -0.51958 -1 -0.265203 -1 0 
C -1 0.265203 -0.894634 0.51958 -0.707107 0.707107 
C -0.51958 0.894634 -0.265203 1 0 1 
z
" style="stroke: #ff0029"/>
    </defs>
    <g clip-path="url(#p9a73b511ae)">
     <use xlink:href="#m20bda911eb" x="388.901711" y="260.692381" style="fill: #ff0029; stroke: #ff0029"/>
     <use xlink:href="#m20bda911eb" x="298.070878" y="132.61235" style="fill: #ff0029; stroke: #ff0029"/>
    </g>
   </g>
   <g id="line2d_31">
    <path d="M 298.070878 132.61235 
L 370.669457 111.659492 
" clip-path="url(#p9a73b511ae)" style="fill: none; stroke: #ff0600; stroke-width: 1.5; stroke-linecap: square"/>
    <defs>
     <path id="mac76bddb57" d="M 0 1 
C 0.265203 1 0.51958 0.894634 0.707107 0.707107 
C 0.894634 0.51958 1 0.265203 1 0 
C 1 -0.265203 0.894634 -0.51958 0.707107 -0.707107 
C 0.51958 -0.894634 0.265203 -1 0 -1 
C -0.265203 -1 -0.51958 -0.894634 -0.707107 -0.707107 
C -0.894634 -0.51958 -1 -0.265203 -1 0 
C -1 0.265203 -0.894634 0.51958 -0.707107 0.707107 
C -0.51958 0.894634 -0.265203 1 0 1 
z
" style="stroke: #ff0600"/>
    </defs>
    <g clip-path="url(#p9a73b511ae)">
     <use xlink:href="#mac76bddb57" x="298.070878" y="132.61235" style="fill: #ff0600; stroke: #ff0600"/>
     <use xlink:href="#mac76bddb57" x="370.669457" y="111.659492" style="fill: #ff0600; stroke: #ff0600"/>
    </g>
   </g>
   <g id="line2d_32">
    <path d="M 370.669457 111.659492 
L 393.133551 234.062791 
" clip-path="url(#p9a73b511ae)" style="fill: none; stroke: #ff3600; stroke-width: 1.5; stroke-linecap: square"/>
    <defs>
     <path id="mf5cf7ef5d8" d="M 0 1 
C 0.265203 1 0.51958 0.894634 0.707107 0.707107 
C 0.894634 0.51958 1 0.265203 1 0 
C 1 -0.265203 0.894634 -0.51958 0.707107 -0.707107 
C 0.51958 -0.894634 0.265203 -1 0 -1 
C -0.265203 -1 -0.51958 -0.894634 -0.707107 -0.707107 
C -0.894634 -0.51958 -1 -0.265203 -1 0 
C -1 0.265203 -0.894634 0.51958 -0.707107 0.707107 
C -0.51958 0.894634 -0.265203 1 0 1 
z
" style="stroke: #ff3600"/>
    </defs>
    <g clip-path="url(#p9a73b511ae)">
     <use xlink:href="#mf5cf7ef5d8" x="370.669457" y="111.659492" style="fill: #ff3600; stroke: #ff3600"/>
     <use xlink:href="#mf5cf7ef5d8" x="393.133551" y="234.062791" style="fill: #ff3600; stroke: #ff3600"/>
    </g>
   </g>
   <g id="line2d_33">
    <path d="M 393.133551 234.062791 
L 433.755001 243.208339 
" clip-path="url(#p9a73b511ae)" style="fill: none; stroke: #ff6500; stroke-width: 1.5; stroke-linecap: square"/>
    <defs>
     <path id="md0927d7004" d="M 0 1 
C 0.265203 1 0.51958 0.894634 0.707107 0.707107 
C 0.894634 0.51958 1 0.265203 1 0 
C 1 -0.265203 0.894634 -0.51958 0.707107 -0.707107 
C 0.51958 -0.894634 0.265203 -1 0 -1 
C -0.265203 -1 -0.51958 -0.894634 -0.707107 -0.707107 
C -0.894634 -0.51958 -1 -0.265203 -1 0 
C -1 0.265203 -0.894634 0.51958 -0.707107 0.707107 
C -0.51958 0.894634 -0.265203 1 0 1 
z
" style="stroke: #ff6500"/>
    </defs>
    <g clip-path="url(#p9a73b511ae)">
     <use xlink:href="#md0927d7004" x="393.133551" y="234.062791" style="fill: #ff6500; stroke: #ff6500"/>
     <use xlink:href="#md0927d7004" x="433.755001" y="243.208339" style="fill: #ff6500; stroke: #ff6500"/>
    </g>
   </g>
   <g id="line2d_34">
    <path d="M 433.755001 243.208339 
L 315.206876 243.083783 
" clip-path="url(#p9a73b511ae)" style="fill: none; stroke: #ff9500; stroke-width: 1.5; stroke-linecap: square"/>
    <defs>
     <path id="m10d7d6326f" d="M 0 1 
C 0.265203 1 0.51958 0.894634 0.707107 0.707107 
C 0.894634 0.51958 1 0.265203 1 0 
C 1 -0.265203 0.894634 -0.51958 0.707107 -0.707107 
C 0.51958 -0.894634 0.265203 -1 0 -1 
C -0.265203 -1 -0.51958 -0.894634 -0.707107 -0.707107 
C -0.894634 -0.51958 -1 -0.265203 -1 0 
C -1 0.265203 -0.894634 0.51958 -0.707107 0.707107 
C -0.51958 0.894634 -0.265203 1 0 1 
z
" style="stroke: #ff9500"/>
    </defs>
    <g clip-path="url(#p9a73b511ae)">
     <use xlink:href="#m10d7d6326f" x="433.755001" y="243.208339" style="fill: #ff9500; stroke: #ff9500"/>
     <use xlink:href="#m10d7d6326f" x="315.206876" y="243.083783" style="fill: #ff9500; stroke: #ff9500"/>
    </g>
   </g>
   <g id="line2d_35">
    <path d="M 315.206876 243.083783 
L 499.120763 227.280169 
" clip-path="url(#p9a73b511ae)" style="fill: none; stroke: #ffc400; stroke-width: 1.5; stroke-linecap: square"/>
    <defs>
     <path id="ma1258df3c0" d="M 0 1 
C 0.265203 1 0.51958 0.894634 0.707107 0.707107 
C 0.894634 0.51958 1 0.265203 1 0 
C 1 -0.265203 0.894634 -0.51958 0.707107 -0.707107 
C 0.51958 -0.894634 0.265203 -1 0 -1 
C -0.265203 -1 -0.51958 -0.894634 -0.707107 -0.707107 
C -0.894634 -0.51958 -1 -0.265203 -1 0 
C -1 0.265203 -0.894634 0.51958 -0.707107 0.707107 
C -0.51958 0.894634 -0.265203 1 0 1 
z
" style="stroke: #ffc400"/>
    </defs>
    <g clip-path="url(#p9a73b511ae)">
     <use xlink:href="#ma1258df3c0" x="315.206876" y="243.083783" style="fill: #ffc400; stroke: #ffc400"/>
     <use xlink:href="#ma1258df3c0" x="499.120763" y="227.280169" style="fill: #ffc400; stroke: #ffc400"/>
    </g>
   </g>
   <g id="line2d_36">
    <path d="M 499.120763 227.280169 
L 346.06055 254.299521 
" clip-path="url(#p9a73b511ae)" style="fill: none; stroke: #fff400; stroke-width: 1.5; stroke-linecap: square"/>
    <defs>
     <path id="m0ec27e714d" d="M 0 1 
C 0.265203 1 0.51958 0.894634 0.707107 0.707107 
C 0.894634 0.51958 1 0.265203 1 0 
C 1 -0.265203 0.894634 -0.51958 0.707107 -0.707107 
C 0.51958 -0.894634 0.265203 -1 0 -1 
C -0.265203 -1 -0.51958 -0.894634 -0.707107 -0.707107 
C -0.894634 -0.51958 -1 -0.265203 -1 0 
C -1 0.265203 -0.894634 0.51958 -0.707107 0.707107 
C -0.51958 0.894634 -0.265203 1 0 1 
z
" style="stroke: #fff400"/>
    </defs>
    <g clip-path="url(#p9a73b511ae)">
     <use xlink:href="#m0ec27e714d" x="499.120763" y="227.280169" style="fill: #fff400; stroke: #fff400"/>
     <use xlink:href="#m0ec27e714d" x="346.06055" y="254.299521" style="fill: #fff400; stroke: #fff400"/>
    </g>
   </g>
   <g id="line2d_37">
    <path d="M 346.06055 254.299521 
L 328.636022 146.021361 
" clip-path="url(#p9a73b511ae)" style="fill: none; stroke: #dbff00; stroke-width: 1.5; stroke-linecap: square"/>
    <defs>
     <path id="m93605c2aee" d="M 0 1 
C 0.265203 1 0.51958 0.894634 0.707107 0.707107 
C 0.894634 0.51958 1 0.265203 1 0 
C 1 -0.265203 0.894634 -0.51958 0.707107 -0.707107 
C 0.51958 -0.894634 0.265203 -1 0 -1 
C -0.265203 -1 -0.51958 -0.894634 -0.707107 -0.707107 
C -0.894634 -0.51958 -1 -0.265203 -1 0 
C -1 0.265203 -0.894634 0.51958 -0.707107 0.707107 
C -0.51958 0.894634 -0.265203 1 0 1 
z
" style="stroke: #dbff00"/>
    </defs>
    <g clip-path="url(#p9a73b511ae)">
     <use xlink:href="#m93605c2aee" x="346.06055" y="254.299521" style="fill: #dbff00; stroke: #dbff00"/>
     <use xlink:href="#m93605c2aee" x="328.636022" y="146.021361" style="fill: #dbff00; stroke: #dbff00"/>
    </g>
   </g>
   <g id="line2d_38">
    <path d="M 328.636022 146.021361 
L 282.038777 233.213754 
" clip-path="url(#p9a73b511ae)" style="fill: none; stroke: #abff00; stroke-width: 1.5; stroke-linecap: square"/>
    <defs>
     <path id="m5fb7029f3a" d="M 0 1 
C 0.265203 1 0.51958 0.894634 0.707107 0.707107 
C 0.894634 0.51958 1 0.265203 1 0 
C 1 -0.265203 0.894634 -0.51958 0.707107 -0.707107 
C 0.51958 -0.894634 0.265203 -1 0 -1 
C -0.265203 -1 -0.51958 -0.894634 -0.707107 -0.707107 
C -0.894634 -0.51958 -1 -0.265203 -1 0 
C -1 0.265203 -0.894634 0.51958 -0.707107 0.707107 
C -0.51958 0.894634 -0.265203 1 0 1 
z
" style="stroke: #abff00"/>
    </defs>
    <g clip-path="url(#p9a73b511ae)">
     <use xlink:href="#m5fb7029f3a" x="328.636022" y="146.021361" style="fill: #abff00; stroke: #abff00"/>
     <use xlink:href="#m5fb7029f3a" x="282.038777" y="233.213754" style="fill: #abff00; stroke: #abff00"/>
    </g>
   </g>
   <g id="line2d_39">
    <path d="M 282.038777 233.213754 
L 348.61087 248.73795 
" clip-path="url(#p9a73b511ae)" style="fill: none; stroke: #7cff00; stroke-width: 1.5; stroke-linecap: square"/>
    <defs>
     <path id="mbea7573db3" d="M 0 1 
C 0.265203 1 0.51958 0.894634 0.707107 0.707107 
C 0.894634 0.51958 1 0.265203 1 0 
C 1 -0.265203 0.894634 -0.51958 0.707107 -0.707107 
C 0.51958 -0.894634 0.265203 -1 0 -1 
C -0.265203 -1 -0.51958 -0.894634 -0.707107 -0.707107 
C -0.894634 -0.51958 -1 -0.265203 -1 0 
C -1 0.265203 -0.894634 0.51958 -0.707107 0.707107 
C -0.51958 0.894634 -0.265203 1 0 1 
z
" style="stroke: #7cff00"/>
    </defs>
    <g clip-path="url(#p9a73b511ae)">
     <use xlink:href="#mbea7573db3" x="282.038777" y="233.213754" style="fill: #7cff00; stroke: #7cff00"/>
     <use xlink:href="#mbea7573db3" x="348.61087" y="248.73795" style="fill: #7cff00; stroke: #7cff00"/>
    </g>
   </g>
   <g id="line2d_40">
    <path d="M 348.61087 248.73795 
L 354.005139 244.176911 
" clip-path="url(#p9a73b511ae)" style="fill: none; stroke: #4cff00; stroke-width: 1.5; stroke-linecap: square"/>
    <defs>
     <path id="m6551d58dec" d="M 0 1 
C 0.265203 1 0.51958 0.894634 0.707107 0.707107 
C 0.894634 0.51958 1 0.265203 1 0 
C 1 -0.265203 0.894634 -0.51958 0.707107 -0.707107 
C 0.51958 -0.894634 0.265203 -1 0 -1 
C -0.265203 -1 -0.51958 -0.894634 -0.707107 -0.707107 
C -0.894634 -0.51958 -1 -0.265203 -1 0 
C -1 0.265203 -0.894634 0.51958 -0.707107 0.707107 
C -0.51958 0.894634 -0.265203 1 0 1 
z
" style="stroke: #4cff00"/>
    </defs>
    <g clip-path="url(#p9a73b511ae)">
     <use xlink:href="#m6551d58dec" x="348.61087" y="248.73795" style="fill: #4cff00; stroke: #4cff00"/>
     <use xlink:href="#m6551d58dec" x="354.005139" y="244.176911" style="fill: #4cff00; stroke: #4cff00"/>
    </g>
   </g>
   <g id="line2d_41">
    <path d="M 354.005139 244.176911 
L 405.32001 210.500389 
" clip-path="url(#p9a73b511ae)" style="fill: none; stroke: #1dff00; stroke-width: 1.5; stroke-linecap: square"/>
    <defs>
     <path id="m9a182f8723" d="M 0 1 
C 0.265203 1 0.51958 0.894634 0.707107 0.707107 
C 0.894634 0.51958 1 0.265203 1 0 
C 1 -0.265203 0.894634 -0.51958 0.707107 -0.707107 
C 0.51958 -0.894634 0.265203 -1 0 -1 
C -0.265203 -1 -0.51958 -0.894634 -0.707107 -0.707107 
C -0.894634 -0.51958 -1 -0.265203 -1 0 
C -1 0.265203 -0.894634 0.51958 -0.707107 0.707107 
C -0.51958 0.894634 -0.265203 1 0 1 
z
" style="stroke: #1dff00"/>
    </defs>
    <g clip-path="url(#p9a73b511ae)">
     <use xlink:href="#m9a182f8723" x="354.005139" y="244.176911" style="fill: #1dff00; stroke: #1dff00"/>
     <use xlink:href="#m9a182f8723" x="405.32001" y="210.500389" style="fill: #1dff00; stroke: #1dff00"/>
    </g>
   </g>
   <g id="line2d_42">
    <path d="M 405.32001 210.500389 
L 340.849374 166.020482 
" clip-path="url(#p9a73b511ae)" style="fill: none; stroke: #00ff13; stroke-width: 1.5; stroke-linecap: square"/>
    <defs>
     <path id="m2e4f46ac50" d="M 0 1 
C 0.265203 1 0.51958 0.894634 0.707107 0.707107 
C 0.894634 0.51958 1 0.265203 1 0 
C 1 -0.265203 0.894634 -0.51958 0.707107 -0.707107 
C 0.51958 -0.894634 0.265203 -1 0 -1 
C -0.265203 -1 -0.51958 -0.894634 -0.707107 -0.707107 
C -0.894634 -0.51958 -1 -0.265203 -1 0 
C -1 0.265203 -0.894634 0.51958 -0.707107 0.707107 
C -0.51958 0.894634 -0.265203 1 0 1 
z
" style="stroke: #00ff13"/>
    </defs>
    <g clip-path="url(#p9a73b511ae)">
     <use xlink:href="#m2e4f46ac50" x="405.32001" y="210.500389" style="fill: #00ff13; stroke: #00ff13"/>
     <use xlink:href="#m2e4f46ac50" x="340.849374" y="166.020482" style="fill: #00ff13; stroke: #00ff13"/>
    </g>
   </g>
   <g id="line2d_43">
    <path d="M 340.849374 166.020482 
L 425.52535 262.131489 
" clip-path="url(#p9a73b511ae)" style="fill: none; stroke: #00ff42; stroke-width: 1.5; stroke-linecap: square"/>
    <defs>
     <path id="mf9ab4cefaa" d="M 0 1 
C 0.265203 1 0.51958 0.894634 0.707107 0.707107 
C 0.894634 0.51958 1 0.265203 1 0 
C 1 -0.265203 0.894634 -0.51958 0.707107 -0.707107 
C 0.51958 -0.894634 0.265203 -1 0 -1 
C -0.265203 -1 -0.51958 -0.894634 -0.707107 -0.707107 
C -0.894634 -0.51958 -1 -0.265203 -1 0 
C -1 0.265203 -0.894634 0.51958 -0.707107 0.707107 
C -0.51958 0.894634 -0.265203 1 0 1 
z
" style="stroke: #00ff42"/>
    </defs>
    <g clip-path="url(#p9a73b511ae)">
     <use xlink:href="#mf9ab4cefaa" x="340.849374" y="166.020482" style="fill: #00ff42; stroke: #00ff42"/>
     <use xlink:href="#mf9ab4cefaa" x="425.52535" y="262.131489" style="fill: #00ff42; stroke: #00ff42"/>
    </g>
   </g>
   <g id="line2d_44">
    <path d="M 425.52535 262.131489 
L 415.185519 174.763699 
" clip-path="url(#p9a73b511ae)" style="fill: none; stroke: #00ff71; stroke-width: 1.5; stroke-linecap: square"/>
    <defs>
     <path id="mfc89d33abb" d="M 0 1 
C 0.265203 1 0.51958 0.894634 0.707107 0.707107 
C 0.894634 0.51958 1 0.265203 1 0 
C 1 -0.265203 0.894634 -0.51958 0.707107 -0.707107 
C 0.51958 -0.894634 0.265203 -1 0 -1 
C -0.265203 -1 -0.51958 -0.894634 -0.707107 -0.707107 
C -0.894634 -0.51958 -1 -0.265203 -1 0 
C -1 0.265203 -0.894634 0.51958 -0.707107 0.707107 
C -0.51958 0.894634 -0.265203 1 0 1 
z
" style="stroke: #00ff71"/>
    </defs>
    <g clip-path="url(#p9a73b511ae)">
     <use xlink:href="#mfc89d33abb" x="425.52535" y="262.131489" style="fill: #00ff71; stroke: #00ff71"/>
     <use xlink:href="#mfc89d33abb" x="415.185519" y="174.763699" style="fill: #00ff71; stroke: #00ff71"/>
    </g>
   </g>
   <g id="line2d_45">
    <path d="M 415.185519 174.763699 
L 433.806948 231.550476 
" clip-path="url(#p9a73b511ae)" style="fill: none; stroke: #00ffa1; stroke-width: 1.5; stroke-linecap: square"/>
    <defs>
     <path id="m86764f8f8b" d="M 0 1 
C 0.265203 1 0.51958 0.894634 0.707107 0.707107 
C 0.894634 0.51958 1 0.265203 1 0 
C 1 -0.265203 0.894634 -0.51958 0.707107 -0.707107 
C 0.51958 -0.894634 0.265203 -1 0 -1 
C -0.265203 -1 -0.51958 -0.894634 -0.707107 -0.707107 
C -0.894634 -0.51958 -1 -0.265203 -1 0 
C -1 0.265203 -0.894634 0.51958 -0.707107 0.707107 
C -0.51958 0.894634 -0.265203 1 0 1 
z
" style="stroke: #00ffa1"/>
    </defs>
    <g clip-path="url(#p9a73b511ae)">
     <use xlink:href="#m86764f8f8b" x="415.185519" y="174.763699" style="fill: #00ffa1; stroke: #00ffa1"/>
     <use xlink:href="#m86764f8f8b" x="433.806948" y="231.550476" style="fill: #00ffa1; stroke: #00ffa1"/>
    </g>
   </g>
   <g id="line2d_46">
    <path d="M 433.806948 231.550476 
L 386.296499 246.63877 
" clip-path="url(#p9a73b511ae)" style="fill: none; stroke: #00ffd0; stroke-width: 1.5; stroke-linecap: square"/>
    <defs>
     <path id="m5c8c888aca" d="M 0 1 
C 0.265203 1 0.51958 0.894634 0.707107 0.707107 
C 0.894634 0.51958 1 0.265203 1 0 
C 1 -0.265203 0.894634 -0.51958 0.707107 -0.707107 
C 0.51958 -0.894634 0.265203 -1 0 -1 
C -0.265203 -1 -0.51958 -0.894634 -0.707107 -0.707107 
C -0.894634 -0.51958 -1 -0.265203 -1 0 
C -1 0.265203 -0.894634 0.51958 -0.707107 0.707107 
C -0.51958 0.894634 -0.265203 1 0 1 
z
" style="stroke: #00ffd0"/>
    </defs>
    <g clip-path="url(#p9a73b511ae)">
     <use xlink:href="#m5c8c888aca" x="433.806948" y="231.550476" style="fill: #00ffd0; stroke: #00ffd0"/>
     <use xlink:href="#m5c8c888aca" x="386.296499" y="246.63877" style="fill: #00ffd0; stroke: #00ffd0"/>
    </g>
   </g>
   <g id="line2d_47">
    <path d="M 386.296499 246.63877 
L 392.396449 234.992067 
" clip-path="url(#p9a73b511ae)" style="fill: none; stroke: #00ffff; stroke-width: 1.5; stroke-linecap: square"/>
    <defs>
     <path id="m78d723f25d" d="M 0 1 
C 0.265203 1 0.51958 0.894634 0.707107 0.707107 
C 0.894634 0.51958 1 0.265203 1 0 
C 1 -0.265203 0.894634 -0.51958 0.707107 -0.707107 
C 0.51958 -0.894634 0.265203 -1 0 -1 
C -0.265203 -1 -0.51958 -0.894634 -0.707107 -0.707107 
C -0.894634 -0.51958 -1 -0.265203 -1 0 
C -1 0.265203 -0.894634 0.51958 -0.707107 0.707107 
C -0.51958 0.894634 -0.265203 1 0 1 
z
" style="stroke: #00ffff"/>
    </defs>
    <g clip-path="url(#p9a73b511ae)">
     <use xlink:href="#m78d723f25d" x="386.296499" y="246.63877" style="fill: #00ffff; stroke: #00ffff"/>
     <use xlink:href="#m78d723f25d" x="392.396449" y="234.992067" style="fill: #00ffff; stroke: #00ffff"/>
    </g>
   </g>
   <g id="line2d_48">
    <path d="M 392.396449 234.992067 
L 374.977405 271.257648 
" clip-path="url(#p9a73b511ae)" style="fill: none; stroke: #00cfff; stroke-width: 1.5; stroke-linecap: square"/>
    <defs>
     <path id="m554ff24738" d="M 0 1 
C 0.265203 1 0.51958 0.894634 0.707107 0.707107 
C 0.894634 0.51958 1 0.265203 1 0 
C 1 -0.265203 0.894634 -0.51958 0.707107 -0.707107 
C 0.51958 -0.894634 0.265203 -1 0 -1 
C -0.265203 -1 -0.51958 -0.894634 -0.707107 -0.707107 
C -0.894634 -0.51958 -1 -0.265203 -1 0 
C -1 0.265203 -0.894634 0.51958 -0.707107 0.707107 
C -0.51958 0.894634 -0.265203 1 0 1 
z
" style="stroke: #00cfff"/>
    </defs>
    <g clip-path="url(#p9a73b511ae)">
     <use xlink:href="#m554ff24738" x="392.396449" y="234.992067" style="fill: #00cfff; stroke: #00cfff"/>
     <use xlink:href="#m554ff24738" x="374.977405" y="271.257648" style="fill: #00cfff; stroke: #00cfff"/>
    </g>
   </g>
   <g id="line2d_49">
    <path d="M 374.977405 271.257648 
L 375.454952 273.760282 
" clip-path="url(#p9a73b511ae)" style="fill: none; stroke: #009fff; stroke-width: 1.5; stroke-linecap: square"/>
    <defs>
     <path id="mf0fbff966e" d="M 0 1 
C 0.265203 1 0.51958 0.894634 0.707107 0.707107 
C 0.894634 0.51958 1 0.265203 1 0 
C 1 -0.265203 0.894634 -0.51958 0.707107 -0.707107 
C 0.51958 -0.894634 0.265203 -1 0 -1 
C -0.265203 -1 -0.51958 -0.894634 -0.707107 -0.707107 
C -0.894634 -0.51958 -1 -0.265203 -1 0 
C -1 0.265203 -0.894634 0.51958 -0.707107 0.707107 
C -0.51958 0.894634 -0.265203 1 0 1 
z
" style="stroke: #009fff"/>
    </defs>
    <g clip-path="url(#p9a73b511ae)">
     <use xlink:href="#mf0fbff966e" x="374.977405" y="271.257648" style="fill: #009fff; stroke: #009fff"/>
     <use xlink:href="#mf0fbff966e" x="375.454952" y="273.760282" style="fill: #009fff; stroke: #009fff"/>
    </g>
   </g>
   <g id="line2d_50">
    <path d="M 375.454952 273.760282 
L 386.851707 295.612459 
" clip-path="url(#p9a73b511ae)" style="fill: none; stroke: #006fff; stroke-width: 1.5; stroke-linecap: square"/>
    <defs>
     <path id="m45ca946b58" d="M 0 1 
C 0.265203 1 0.51958 0.894634 0.707107 0.707107 
C 0.894634 0.51958 1 0.265203 1 0 
C 1 -0.265203 0.894634 -0.51958 0.707107 -0.707107 
C 0.51958 -0.894634 0.265203 -1 0 -1 
C -0.265203 -1 -0.51958 -0.894634 -0.707107 -0.707107 
C -0.894634 -0.51958 -1 -0.265203 -1 0 
C -1 0.265203 -0.894634 0.51958 -0.707107 0.707107 
C -0.51958 0.894634 -0.265203 1 0 1 
z
" style="stroke: #006fff"/>
    </defs>
    <g clip-path="url(#p9a73b511ae)">
     <use xlink:href="#m45ca946b58" x="375.454952" y="273.760282" style="fill: #006fff; stroke: #006fff"/>
     <use xlink:href="#m45ca946b58" x="386.851707" y="295.612459" style="fill: #006fff; stroke: #006fff"/>
    </g>
   </g>
   <g id="line2d_51">
    <path d="M 386.851707 295.612459 
L 386.399522 285.667547 
" clip-path="url(#p9a73b511ae)" style="fill: none; stroke: #0040ff; stroke-width: 1.5; stroke-linecap: square"/>
    <defs>
     <path id="me4a12ddd58" d="M 0 1 
C 0.265203 1 0.51958 0.894634 0.707107 0.707107 
C 0.894634 0.51958 1 0.265203 1 0 
C 1 -0.265203 0.894634 -0.51958 0.707107 -0.707107 
C 0.51958 -0.894634 0.265203 -1 0 -1 
C -0.265203 -1 -0.51958 -0.894634 -0.707107 -0.707107 
C -0.894634 -0.51958 -1 -0.265203 -1 0 
C -1 0.265203 -0.894634 0.51958 -0.707107 0.707107 
C -0.51958 0.894634 -0.265203 1 0 1 
z
" style="stroke: #0040ff"/>
    </defs>
    <g clip-path="url(#p9a73b511ae)">
     <use xlink:href="#me4a12ddd58" x="386.851707" y="295.612459" style="fill: #0040ff; stroke: #0040ff"/>
     <use xlink:href="#me4a12ddd58" x="386.399522" y="285.667547" style="fill: #0040ff; stroke: #0040ff"/>
    </g>
   </g>
   <g id="line2d_52">
    <path d="M 386.399522 285.667547 
L 385.965935 285.952665 
" clip-path="url(#p9a73b511ae)" style="fill: none; stroke: #0010ff; stroke-width: 1.5; stroke-linecap: square"/>
    <defs>
     <path id="mfaf672b9f4" d="M 0 1 
C 0.265203 1 0.51958 0.894634 0.707107 0.707107 
C 0.894634 0.51958 1 0.265203 1 0 
C 1 -0.265203 0.894634 -0.51958 0.707107 -0.707107 
C 0.51958 -0.894634 0.265203 -1 0 -1 
C -0.265203 -1 -0.51958 -0.894634 -0.707107 -0.707107 
C -0.894634 -0.51958 -1 -0.265203 -1 0 
C -1 0.265203 -0.894634 0.51958 -0.707107 0.707107 
C -0.51958 0.894634 -0.265203 1 0 1 
z
" style="stroke: #0010ff"/>
    </defs>
    <g clip-path="url(#p9a73b511ae)">
     <use xlink:href="#mfaf672b9f4" x="386.399522" y="285.667547" style="fill: #0010ff; stroke: #0010ff"/>
     <use xlink:href="#mfaf672b9f4" x="385.965935" y="285.952665" style="fill: #0010ff; stroke: #0010ff"/>
    </g>
   </g>
   <g id="line2d_53">
    <path d="M 385.965935 285.952665 
L 385.60109 286.291982 
" clip-path="url(#p9a73b511ae)" style="fill: none; stroke: #2000ff; stroke-width: 1.5; stroke-linecap: square"/>
    <defs>
     <path id="m7e6d71e5cb" d="M 0 1 
C 0.265203 1 0.51958 0.894634 0.707107 0.707107 
C 0.894634 0.51958 1 0.265203 1 0 
C 1 -0.265203 0.894634 -0.51958 0.707107 -0.707107 
C 0.51958 -0.894634 0.265203 -1 0 -1 
C -0.265203 -1 -0.51958 -0.894634 -0.707107 -0.707107 
C -0.894634 -0.51958 -1 -0.265203 -1 0 
C -1 0.265203 -0.894634 0.51958 -0.707107 0.707107 
C -0.51958 0.894634 -0.265203 1 0 1 
z
" style="stroke: #2000ff"/>
    </defs>
    <g clip-path="url(#p9a73b511ae)">
     <use xlink:href="#m7e6d71e5cb" x="385.965935" y="285.952665" style="fill: #2000ff; stroke: #2000ff"/>
     <use xlink:href="#m7e6d71e5cb" x="385.60109" y="286.291982" style="fill: #2000ff; stroke: #2000ff"/>
    </g>
   </g>
   <g id="line2d_54">
    <path d="M 385.60109 286.291982 
L 384.248237 286.92864 
" clip-path="url(#p9a73b511ae)" style="fill: none; stroke: #5000ff; stroke-width: 1.5; stroke-linecap: square"/>
    <defs>
     <path id="ma9c7a15fb2" d="M 0 1 
C 0.265203 1 0.51958 0.894634 0.707107 0.707107 
C 0.894634 0.51958 1 0.265203 1 0 
C 1 -0.265203 0.894634 -0.51958 0.707107 -0.707107 
C 0.51958 -0.894634 0.265203 -1 0 -1 
C -0.265203 -1 -0.51958 -0.894634 -0.707107 -0.707107 
C -0.894634 -0.51958 -1 -0.265203 -1 0 
C -1 0.265203 -0.894634 0.51958 -0.707107 0.707107 
C -0.51958 0.894634 -0.265203 1 0 1 
z
" style="stroke: #5000ff"/>
    </defs>
    <g clip-path="url(#p9a73b511ae)">
     <use xlink:href="#ma9c7a15fb2" x="385.60109" y="286.291982" style="fill: #5000ff; stroke: #5000ff"/>
     <use xlink:href="#ma9c7a15fb2" x="384.248237" y="286.92864" style="fill: #5000ff; stroke: #5000ff"/>
    </g>
   </g>
   <g id="line2d_55">
    <path d="M 384.248237 286.92864 
L 384.192014 286.753473 
" clip-path="url(#p9a73b511ae)" style="fill: none; stroke: #8000ff; stroke-width: 1.5; stroke-linecap: square"/>
    <defs>
     <path id="mee940d6df5" d="M 0 1 
C 0.265203 1 0.51958 0.894634 0.707107 0.707107 
C 0.894634 0.51958 1 0.265203 1 0 
C 1 -0.265203 0.894634 -0.51958 0.707107 -0.707107 
C 0.51958 -0.894634 0.265203 -1 0 -1 
C -0.265203 -1 -0.51958 -0.894634 -0.707107 -0.707107 
C -0.894634 -0.51958 -1 -0.265203 -1 0 
C -1 0.265203 -0.894634 0.51958 -0.707107 0.707107 
C -0.51958 0.894634 -0.265203 1 0 1 
z
" style="stroke: #8000ff"/>
    </defs>
    <g clip-path="url(#p9a73b511ae)">
     <use xlink:href="#mee940d6df5" x="384.248237" y="286.92864" style="fill: #8000ff; stroke: #8000ff"/>
     <use xlink:href="#mee940d6df5" x="384.192014" y="286.753473" style="fill: #8000ff; stroke: #8000ff"/>
    </g>
   </g>
   <g id="line2d_56">
    <path d="M 384.192014 286.753473 
L 384.139491 286.535778 
" clip-path="url(#p9a73b511ae)" style="fill: none; stroke: #af00ff; stroke-width: 1.5; stroke-linecap: square"/>
    <defs>
     <path id="m7f284ef59d" d="M 0 1 
C 0.265203 1 0.51958 0.894634 0.707107 0.707107 
C 0.894634 0.51958 1 0.265203 1 0 
C 1 -0.265203 0.894634 -0.51958 0.707107 -0.707107 
C 0.51958 -0.894634 0.265203 -1 0 -1 
C -0.265203 -1 -0.51958 -0.894634 -0.707107 -0.707107 
C -0.894634 -0.51958 -1 -0.265203 -1 0 
C -1 0.265203 -0.894634 0.51958 -0.707107 0.707107 
C -0.51958 0.894634 -0.265203 1 0 1 
z
" style="stroke: #af00ff"/>
    </defs>
    <g clip-path="url(#p9a73b511ae)">
     <use xlink:href="#m7f284ef59d" x="384.192014" y="286.753473" style="fill: #af00ff; stroke: #af00ff"/>
     <use xlink:href="#m7f284ef59d" x="384.139491" y="286.535778" style="fill: #af00ff; stroke: #af00ff"/>
    </g>
   </g>
   <g id="line2d_57">
    <path d="M 384.139491 286.535778 
L 384.145047 286.431938 
" clip-path="url(#p9a73b511ae)" style="fill: none; stroke: #df00ff; stroke-width: 1.5; stroke-linecap: square"/>
    <defs>
     <path id="m01ce177cda" d="M 0 1 
C 0.265203 1 0.51958 0.894634 0.707107 0.707107 
C 0.894634 0.51958 1 0.265203 1 0 
C 1 -0.265203 0.894634 -0.51958 0.707107 -0.707107 
C 0.51958 -0.894634 0.265203 -1 0 -1 
C -0.265203 -1 -0.51958 -0.894634 -0.707107 -0.707107 
C -0.894634 -0.51958 -1 -0.265203 -1 0 
C -1 0.265203 -0.894634 0.51958 -0.707107 0.707107 
C -0.51958 0.894634 -0.265203 1 0 1 
z
" style="stroke: #df00ff"/>
    </defs>
    <g clip-path="url(#p9a73b511ae)">
     <use xlink:href="#m01ce177cda" x="384.139491" y="286.535778" style="fill: #df00ff; stroke: #df00ff"/>
     <use xlink:href="#m01ce177cda" x="384.145047" y="286.431938" style="fill: #df00ff; stroke: #df00ff"/>
    </g>
   </g>
   <g id="line2d_58">
    <path d="M 384.145047 286.431938 
L 381.756752 283.945773 
" clip-path="url(#p9a73b511ae)" style="fill: none; stroke: #ff00ef; stroke-width: 1.5; stroke-linecap: square"/>
    <defs>
     <path id="m5d23d09759" d="M 0 1 
C 0.265203 1 0.51958 0.894634 0.707107 0.707107 
C 0.894634 0.51958 1 0.265203 1 0 
C 1 -0.265203 0.894634 -0.51958 0.707107 -0.707107 
C 0.51958 -0.894634 0.265203 -1 0 -1 
C -0.265203 -1 -0.51958 -0.894634 -0.707107 -0.707107 
C -0.894634 -0.51958 -1 -0.265203 -1 0 
C -1 0.265203 -0.894634 0.51958 -0.707107 0.707107 
C -0.51958 0.894634 -0.265203 1 0 1 
z
" style="stroke: #ff00ef"/>
    </defs>
    <g clip-path="url(#p9a73b511ae)">
     <use xlink:href="#m5d23d09759" x="384.145047" y="286.431938" style="fill: #ff00ef; stroke: #ff00ef"/>
     <use xlink:href="#m5d23d09759" x="381.756752" y="283.945773" style="fill: #ff00ef; stroke: #ff00ef"/>
    </g>
   </g>
   <g id="line2d_59">
    <path d="M 208.901805 313.369825 
" clip-path="url(#p9a73b511ae)" style="fill: none; stroke: #ffffff; stroke-width: 1.5; stroke-linecap: square"/>
   </g>
   <g id="line2d_60">
    <path d="M 201.924059 146.796232 
" clip-path="url(#p9a73b511ae)" style="fill: none; stroke: #ffffff; stroke-width: 1.5; stroke-linecap: square"/>
   </g>
   <g id="line2d_61">
    <path d="M 326.593541 213.80184 
" clip-path="url(#p9a73b511ae)" style="fill: none; stroke: #ffffff; stroke-width: 1.5; stroke-linecap: square"/>
   </g>
   <g id="line2d_62">
    <path d="M 324.988401 55.605495 
" clip-path="url(#p9a73b511ae)" style="fill: none; stroke: #ffffff; stroke-width: 1.5; stroke-linecap: square"/>
   </g>
   <g id="line2d_63">
    <path d="M 409.485631 378.21561 
" clip-path="url(#p9a73b511ae)" style="fill: none; stroke: #ffffff; stroke-width: 1.5; stroke-linecap: square"/>
   </g>
   <g id="line2d_64">
    <path d="M 411.538946 206.50116 
" clip-path="url(#p9a73b511ae)" style="fill: none; stroke: #ffffff; stroke-width: 1.5; stroke-linecap: square"/>
   </g>
   <g id="line2d_65">
    <path d="M 517.219569 269.463351 
" clip-path="url(#p9a73b511ae)" style="fill: none; stroke: #ffffff; stroke-width: 1.5; stroke-linecap: square"/>
   </g>
   <g id="line2d_66">
    <path d="M 523.752281 106.511917 
" clip-path="url(#p9a73b511ae)" style="fill: none; stroke: #ffffff; stroke-width: 1.5; stroke-linecap: square"/>
   </g>
  </g>
 </g>
 <defs>
  <clipPath id="p9a73b511ae">
   <rect x="154.8" y="10.8" width="410.4" height="410.4"/>
  </clipPath>
 </defs>
</svg>
