<?xml version="1.0" encoding="utf-8" standalone="no"?>
<!DOCTYPE svg PUBLIC "-//W3C//DTD SVG 1.1//EN"
  "http://www.w3.org/Graphics/SVG/1.1/DTD/svg11.dtd">
<svg xmlns:xlink="http://www.w3.org/1999/xlink" width="720pt" height="432pt" viewBox="0 0 720 432" xmlns="http://www.w3.org/2000/svg" version="1.1">
 <metadata>
  <rdf:RDF xmlns:dc="http://purl.org/dc/elements/1.1/" xmlns:cc="http://creativecommons.org/ns#" xmlns:rdf="http://www.w3.org/1999/02/22-rdf-syntax-ns#">
   <cc:Work>
    <dc:type rdf:resource="http://purl.org/dc/dcmitype/StillImage"/>
    <dc:date>2022-03-16T18:14:17.108606</dc:date>
    <dc:format>image/svg+xml</dc:format>
    <dc:creator>
     <cc:Agent>
      <dc:title>Matplotlib v3.5.0, https://matplotlib.org/</dc:title>
     </cc:Agent>
    </dc:creator>
   </cc:Work>
  </rdf:RDF>
 </metadata>
 <defs>
  <style type="text/css">*{stroke-linejoin: round; stroke-linecap: butt}</style>
 </defs>
 <g id="figure_1">
  <g id="patch_1">
   <path d="M 0 432 
L 720 432 
L 720 0 
L 0 0 
z
" style="fill: #ffffff"/>
  </g>
  <g id="patch_2">
   <path d="M 154.8 421.2 
L 565.2 421.2 
L 565.2 10.8 
L 154.8 10.8 
z
" style="fill: #ffffff"/>
  </g>
  <g id="pane3d_1">
   <g id="patch_3">
    <path d="M 185.78803 320.008512 
L 321.315513 206.406689 
L 319.431551 42.572551 
L 177.41838 146.207295 
" style="fill: none; opacity: 0.5; stroke: #f2f2f2; stroke-linejoin: miter"/>
   </g>
  </g>
  <g id="pane3d_2">
   <g id="patch_4">
    <path d="M 321.315513 206.406689 
L 538.788767 269.617578 
L 546.549621 100.140361 
L 319.431551 42.572551 
" style="fill: none; opacity: 0.5; stroke: #e6e6e6; stroke-linejoin: miter"/>
   </g>
  </g>
  <g id="pane3d_3">
   <g id="patch_5">
    <path d="M 185.78803 320.008512 
L 416.320301 395.300351 
L 538.788767 269.617578 
L 321.315513 206.406689 
" style="fill: none; opacity: 0.5; stroke: #ececec; stroke-linejoin: miter"/>
   </g>
  </g>
  <g id="axis3d_1">
   <g id="line2d_1">
    <path d="M 185.78803 320.008512 
L 416.320301 395.300351 
" style="fill: none; stroke: #000000; stroke-width: 0.8; stroke-linecap: square"/>
   </g>
   <g id="text_1">
    <!-- $\tilde{x}_{1,:}$ -->
    <g transform="translate(269.832562 391.421509)rotate(-341.912962)scale(0.18 -0.18)">
     <defs>
      <path id="CMR17-7e" d="M 2400 4198 
C 2182 3987 2061 3865 1862 3865 
C 1722 3865 1626 3936 1491 4032 
C 1363 4121 1261 4198 1120 4198 
C 890 4198 730 4012 461 3718 
L 531 3648 
C 749 3859 870 3980 1069 3980 
C 1210 3980 1306 3910 1440 3814 
C 1568 3724 1670 3648 1811 3648 
C 2042 3648 2202 3833 2470 4128 
L 2400 4198 
z
" transform="scale(0.015625)"/>
      <path id="CMMI12-78" d="M 3034 2624 
C 2829 2585 2752 2431 2752 2310 
C 2752 2156 2874 2105 2963 2105 
C 3155 2105 3290 2271 3290 2444 
C 3290 2694 2982 2816 2714 2816 
C 2323 2816 2106 2451 2048 2329 
C 1901 2790 1504 2816 1389 2816 
C 736 2816 390 1993 390 1849 
C 390 1823 416 1790 461 1790 
C 512 1790 525 1829 538 1855 
C 755 2572 1184 2687 1370 2687 
C 1658 2687 1715 2438 1715 2284 
C 1715 2143 1677 1993 1600 1678 
L 1382 778 
C 1286 390 1101 64 762 64 
C 730 64 570 64 435 126 
C 666 166 717 358 717 435 
C 717 563 621 640 499 640 
C 346 640 179 505 179 300 
C 179 57 480 -64 755 -64 
C 1062 -64 1280 153 1414 415 
C 1517 64 1837 -64 2074 -64 
C 2726 -64 3072 751 3072 896 
C 3072 929 3046 955 3008 955 
C 2950 955 2944 922 2925 870 
C 2752 300 2381 64 2093 64 
C 1869 64 1747 204 1747 467 
C 1747 607 1773 712 1875 1146 
L 2099 2039 
C 2195 2425 2413 2687 2707 2687 
C 2720 2687 2899 2687 3034 2624 
z
" transform="scale(0.015625)"/>
      <path id="CMR17-31" d="M 1702 4083 
C 1702 4217 1696 4224 1606 4224 
C 1357 3927 979 3833 621 3820 
C 602 3820 570 3820 563 3808 
C 557 3795 557 3782 557 3648 
C 755 3648 1088 3686 1344 3839 
L 1344 467 
C 1344 243 1331 166 781 166 
L 589 166 
L 589 0 
C 896 6 1216 12 1523 12 
C 1830 12 2150 6 2458 0 
L 2458 166 
L 2266 166 
C 1715 166 1702 236 1702 467 
L 1702 4083 
z
" transform="scale(0.015625)"/>
      <path id="CMMI12-3b" d="M 1248 -26 
C 1248 345 1126 620 864 620 
C 659 620 557 454 557 313 
C 557 172 653 0 870 0 
C 954 0 1024 25 1082 83 
C 1094 96 1101 96 1107 96 
C 1120 96 1120 6 1120 -26 
C 1120 -233 1082 -642 710 -1051 
C 640 -1127 640 -1140 640 -1152 
C 640 -1184 672 -1216 704 -1216 
C 755 -1216 1248 -749 1248 -26 
z
" transform="scale(0.015625)"/>
      <path id="CMR17-3a" d="M 1062 2489 
C 1062 2649 934 2752 800 2752 
C 672 2752 538 2649 538 2489 
C 538 2329 666 2227 800 2227 
C 928 2227 1062 2329 1062 2489 
z
M 1062 262 
C 1062 422 934 524 800 524 
C 672 524 538 422 538 262 
C 538 102 666 0 800 0 
C 928 0 1062 102 1062 262 
z
" transform="scale(0.015625)"/>
     </defs>
     <use xlink:href="#CMR17-7e" transform="translate(7.581509 0.006461)scale(0.996264)"/>
     <use xlink:href="#CMMI12-78" transform="scale(0.996264)"/>
     <use xlink:href="#CMR17-31" transform="translate(55.43406 -14.943915)scale(0.697382)"/>
     <use xlink:href="#CMMI12-3b" transform="translate(87.417241 -14.943915)scale(0.697382)"/>
     <use xlink:href="#CMR17-3a" transform="translate(106.385174 -14.943915)scale(0.697382)"/>
    </g>
   </g>
   <g id="xtick_1">
    <g id="line2d_2">
     <path d="M 207.30409 325.654779 
L 203.78622 328.654413 
" style="fill: none; stroke: #000000; stroke-width: 0.8; stroke-linecap: square"/>
    </g>
    <g id="text_2">
     <!-- $\mathdefault{4}$ -->
     <g transform="translate(196.127377 349.290461)scale(0.1 -0.1)">
      <defs>
       <path id="CMR17-34" d="M 2150 4147 
C 2150 4281 2144 4288 2029 4288 
L 128 1254 
L 128 1088 
L 1779 1088 
L 1779 460 
C 1779 230 1766 166 1318 166 
L 1197 166 
L 1197 0 
C 1402 12 1747 12 1965 12 
C 2182 12 2528 12 2733 0 
L 2733 166 
L 2611 166 
C 2163 166 2150 230 2150 460 
L 2150 1088 
L 2803 1088 
L 2803 1254 
L 2150 1254 
L 2150 4147 
z
M 1798 3723 
L 1798 1254 
L 256 1254 
L 1798 3723 
z
" transform="scale(0.015625)"/>
      </defs>
      <use xlink:href="#CMR17-34" transform="scale(0.996264)"/>
     </g>
    </g>
   </g>
   <g id="xtick_2">
    <g id="line2d_3">
     <path d="M 242.650693 337.187571 
L 239.180278 340.237027 
" style="fill: none; stroke: #000000; stroke-width: 0.8; stroke-linecap: square"/>
    </g>
    <g id="text_3">
     <!-- $\mathdefault{6}$ -->
     <g transform="translate(231.513468 360.998168)scale(0.1 -0.1)">
      <defs>
       <path id="CMR17-36" d="M 678 2198 
C 678 3712 1395 4076 1811 4076 
C 1946 4076 2272 4049 2400 3782 
C 2298 3782 2106 3782 2106 3558 
C 2106 3385 2246 3328 2336 3328 
C 2394 3328 2566 3353 2566 3571 
C 2566 3987 2246 4224 1805 4224 
C 1043 4224 243 3411 243 2011 
C 243 257 966 -128 1478 -128 
C 2099 -128 2688 431 2688 1295 
C 2688 2101 2170 2688 1517 2688 
C 1126 2688 838 2430 678 1979 
L 678 2198 
z
M 1478 25 
C 691 25 691 1212 691 1450 
C 691 1914 909 2585 1504 2585 
C 1613 2585 1926 2585 2138 2140 
C 2253 1889 2253 1624 2253 1302 
C 2253 954 2253 696 2118 438 
C 1978 173 1773 25 1478 25 
z
" transform="scale(0.015625)"/>
      </defs>
      <use xlink:href="#CMR17-36" transform="scale(0.996264)"/>
     </g>
    </g>
   </g>
   <g id="xtick_3">
    <g id="line2d_4">
     <path d="M 278.586189 348.912506 
L 275.165307 352.013034 
" style="fill: none; stroke: #000000; stroke-width: 0.8; stroke-linecap: square"/>
    </g>
    <g id="text_4">
     <!-- $\mathdefault{8}$ -->
     <g transform="translate(267.490982 372.901551)scale(0.1 -0.1)">
      <defs>
       <path id="CMR17-38" d="M 1741 2289 
C 2144 2494 2554 2803 2554 3298 
C 2554 3884 1990 4224 1472 4224 
C 890 4224 378 3800 378 3215 
C 378 3054 416 2777 666 2533 
C 730 2469 998 2276 1171 2154 
C 883 2006 211 1652 211 945 
C 211 282 838 -128 1459 -128 
C 2144 -128 2720 366 2720 1022 
C 2720 1607 2330 1877 2074 2051 
L 1741 2289 
z
M 902 2855 
C 851 2887 595 3086 595 3388 
C 595 3781 998 4076 1459 4076 
C 1965 4076 2336 3716 2336 3298 
C 2336 2700 1670 2359 1638 2359 
C 1632 2359 1626 2359 1574 2398 
L 902 2855 
z
M 2080 1536 
C 2176 1466 2483 1253 2483 861 
C 2483 385 2010 25 1472 25 
C 890 25 448 443 448 951 
C 448 1459 838 1884 1280 2083 
L 2080 1536 
z
" transform="scale(0.015625)"/>
      </defs>
      <use xlink:href="#CMR17-38" transform="scale(0.996264)"/>
     </g>
    </g>
   </g>
   <g id="xtick_4">
    <g id="line2d_5">
     <path d="M 315.125416 360.834424 
L 311.756232 363.98732 
" style="fill: none; stroke: #000000; stroke-width: 0.8; stroke-linecap: square"/>
    </g>
    <g id="text_5">
     <!-- $\mathdefault{10}$ -->
     <g transform="translate(301.584205 385.005557)scale(0.1 -0.1)">
      <defs>
       <path id="CMR17-30" d="M 2688 2038 
C 2688 2430 2682 3099 2413 3613 
C 2176 4063 1798 4224 1466 4224 
C 1158 4224 768 4082 525 3620 
C 269 3137 243 2539 243 2038 
C 243 1671 250 1112 448 623 
C 723 -39 1216 -128 1466 -128 
C 1760 -128 2208 -7 2470 604 
C 2662 1048 2688 1568 2688 2038 
z
M 1466 -26 
C 1056 -26 813 328 723 816 
C 653 1196 653 1749 653 2109 
C 653 2604 653 3015 736 3407 
C 858 3954 1216 4121 1466 4121 
C 1728 4121 2067 3947 2189 3420 
C 2272 3054 2278 2623 2278 2109 
C 2278 1691 2278 1176 2202 797 
C 2067 96 1690 -26 1466 -26 
z
" transform="scale(0.015625)"/>
      </defs>
      <use xlink:href="#CMR17-31" transform="scale(0.996264)"/>
      <use xlink:href="#CMR17-30" transform="translate(45.690477 0)scale(0.996264)"/>
     </g>
    </g>
   </g>
   <g id="xtick_5">
    <g id="line2d_6">
     <path d="M 352.283717 372.958333 
L 348.968484 376.164933 
" style="fill: none; stroke: #000000; stroke-width: 0.8; stroke-linecap: square"/>
    </g>
    <g id="text_6">
     <!-- $\mathdefault{12}$ -->
     <g transform="translate(338.789932 397.315302)scale(0.1 -0.1)">
      <defs>
       <path id="CMR17-32" d="M 2669 990 
L 2554 990 
C 2490 537 2438 460 2413 422 
C 2381 371 1920 371 1830 371 
L 602 371 
C 832 620 1280 1073 1824 1596 
C 2214 1966 2669 2400 2669 3033 
C 2669 3788 2067 4224 1395 4224 
C 691 4224 262 3603 262 3027 
C 262 2777 448 2745 525 2745 
C 589 2745 781 2783 781 3007 
C 781 3206 614 3264 525 3264 
C 486 3264 448 3257 422 3244 
C 544 3788 915 4057 1306 4057 
C 1862 4057 2227 3616 2227 3033 
C 2227 2477 1901 1998 1536 1583 
L 262 147 
L 262 0 
L 2515 0 
L 2669 990 
z
" transform="scale(0.015625)"/>
      </defs>
      <use xlink:href="#CMR17-31" transform="scale(0.996264)"/>
      <use xlink:href="#CMR17-32" transform="translate(45.690477 0)scale(0.996264)"/>
     </g>
    </g>
   </g>
   <g id="xtick_6">
    <g id="line2d_7">
     <path d="M 390.076962 385.289409 
L 386.818027 388.551098 
" style="fill: none; stroke: #000000; stroke-width: 0.8; stroke-linecap: square"/>
    </g>
    <g id="text_7">
     <!-- $\mathdefault{14}$ -->
     <g transform="translate(376.633485 409.836076)scale(0.1 -0.1)">
      <use xlink:href="#CMR17-31" transform="scale(0.996264)"/>
      <use xlink:href="#CMR17-34" transform="translate(45.690477 0)scale(0.996264)"/>
     </g>
    </g>
   </g>
  </g>
  <g id="axis3d_2">
   <g id="line2d_8">
    <path d="M 538.788767 269.617578 
L 416.320301 395.300351 
" style="fill: none; stroke: #000000; stroke-width: 0.8; stroke-linecap: square"/>
   </g>
   <g id="text_8">
    <!-- $\tilde{x}_{2,:}$ -->
    <g transform="translate(501.621649 368.177913)rotate(-45.742112)scale(0.18 -0.18)">
     <use xlink:href="#CMR17-7e" transform="translate(7.581509 0.006461)scale(0.996264)"/>
     <use xlink:href="#CMMI12-78" transform="scale(0.996264)"/>
     <use xlink:href="#CMR17-32" transform="translate(55.43406 -14.943915)scale(0.697382)"/>
     <use xlink:href="#CMMI12-3b" transform="translate(87.417241 -14.943915)scale(0.697382)"/>
     <use xlink:href="#CMR17-3a" transform="translate(106.385174 -14.943915)scale(0.697382)"/>
    </g>
   </g>
   <g id="xtick_7">
    <g id="line2d_9">
     <path d="M 423.988463 384.819628 
L 429.79654 386.699768 
" style="fill: none; stroke: #000000; stroke-width: 0.8; stroke-linecap: square"/>
    </g>
    <g id="text_9">
     <!-- $\mathdefault{−4}$ -->
     <g transform="translate(432.425902 405.773645)scale(0.1 -0.1)">
      <defs>
       <path id="CMSY10-0" d="M 4218 1472 
C 4326 1472 4442 1472 4442 1600 
C 4442 1728 4326 1728 4218 1728 
L 755 1728 
C 646 1728 531 1728 531 1600 
C 531 1472 646 1472 755 1472 
L 4218 1472 
z
" transform="scale(0.015625)"/>
      </defs>
      <use xlink:href="#CMSY10-0" transform="scale(0.996264)"/>
      <use xlink:href="#CMR17-34" transform="translate(77.487468 0)scale(0.996264)"/>
     </g>
    </g>
   </g>
   <g id="xtick_8">
    <g id="line2d_10">
     <path d="M 444.69586 363.606812 
L 450.445525 365.432501 
" style="fill: none; stroke: #000000; stroke-width: 0.8; stroke-linecap: square"/>
    </g>
    <g id="text_10">
     <!-- $\mathdefault{−2}$ -->
     <g transform="translate(452.934036 384.338951)scale(0.1 -0.1)">
      <use xlink:href="#CMSY10-0" transform="scale(0.996264)"/>
      <use xlink:href="#CMR17-32" transform="translate(77.487468 0)scale(0.996264)"/>
     </g>
    </g>
   </g>
   <g id="xtick_9">
    <g id="line2d_11">
     <path d="M 464.808195 343.003582 
L 470.500382 344.777151 
" style="fill: none; stroke: #000000; stroke-width: 0.8; stroke-linecap: square"/>
    </g>
    <g id="text_11">
     <!-- $\mathdefault{0}$ -->
     <g transform="translate(476.726738 363.520708)scale(0.1 -0.1)">
      <use xlink:href="#CMR17-30" transform="scale(0.996264)"/>
     </g>
    </g>
   </g>
   <g id="xtick_10">
    <g id="line2d_12">
     <path d="M 484.350756 322.984032 
L 489.98639 324.707682 
" style="fill: none; stroke: #000000; stroke-width: 0.8; stroke-linecap: square"/>
    </g>
    <g id="text_12">
     <!-- $\mathdefault{2}$ -->
     <g transform="translate(496.080348 343.2927)scale(0.1 -0.1)">
      <use xlink:href="#CMR17-32" transform="scale(0.996264)"/>
     </g>
    </g>
   </g>
   <g id="xtick_11">
    <g id="line2d_13">
     <path d="M 503.347416 303.523707 
L 508.927414 305.199516 
" style="fill: none; stroke: #000000; stroke-width: 0.8; stroke-linecap: square"/>
    </g>
    <g id="text_13">
     <!-- $\mathdefault{4}$ -->
     <g transform="translate(514.892918 323.630175)scale(0.1 -0.1)">
      <use xlink:href="#CMR17-34" transform="scale(0.996264)"/>
     </g>
    </g>
   </g>
   <g id="xtick_12">
    <g id="line2d_14">
     <path d="M 521.820735 284.599498 
L 527.346001 286.22943 
" style="fill: none; stroke: #000000; stroke-width: 0.8; stroke-linecap: square"/>
    </g>
    <g id="text_14">
     <!-- $\mathdefault{6}$ -->
     <g transform="translate(533.186823 304.50975)scale(0.1 -0.1)">
      <use xlink:href="#CMR17-36" transform="scale(0.996264)"/>
     </g>
    </g>
   </g>
  </g>
  <g id="axis3d_3">
   <g id="line2d_15">
    <path d="M 538.788767 269.617578 
L 546.549621 100.140361 
" style="fill: none; stroke: #000000; stroke-width: 0.8; stroke-linecap: square"/>
   </g>
   <g id="text_15">
    <!-- $\tilde{x}_{3,:}$ -->
    <g transform="translate(585.842946 192.929266)rotate(-87.378092)scale(0.18 -0.18)">
     <defs>
      <path id="CMR17-33" d="M 1414 2176 
C 1984 2176 2234 1673 2234 1094 
C 2234 322 1824 25 1453 25 
C 1114 25 563 193 390 691 
C 422 678 454 678 486 678 
C 640 678 755 780 755 947 
C 755 1132 614 1216 486 1216 
C 378 1216 211 1164 211 927 
C 211 335 787 -128 1466 -128 
C 2176 -128 2720 432 2720 1087 
C 2720 1718 2208 2176 1600 2246 
C 2086 2347 2554 2776 2554 3353 
C 2554 3856 2048 4224 1472 4224 
C 890 4224 378 3862 378 3347 
C 378 3123 544 3084 627 3084 
C 762 3084 877 3167 877 3334 
C 877 3500 762 3584 627 3584 
C 602 3584 570 3584 544 3571 
C 730 3999 1235 4076 1459 4076 
C 1683 4076 2106 3966 2106 3347 
C 2106 3167 2080 2851 1862 2574 
C 1670 2329 1453 2316 1242 2297 
C 1210 2297 1062 2284 1037 2284 
C 992 2278 966 2272 966 2227 
C 966 2182 973 2176 1101 2176 
L 1414 2176 
z
" transform="scale(0.015625)"/>
     </defs>
     <use xlink:href="#CMR17-7e" transform="translate(7.581509 0.006461)scale(0.996264)"/>
     <use xlink:href="#CMMI12-78" transform="scale(0.996264)"/>
     <use xlink:href="#CMR17-33" transform="translate(55.43406 -14.943915)scale(0.697382)"/>
     <use xlink:href="#CMMI12-3b" transform="translate(87.417241 -14.943915)scale(0.697382)"/>
     <use xlink:href="#CMR17-3a" transform="translate(106.385174 -14.943915)scale(0.697382)"/>
    </g>
   </g>
   <g id="xtick_13">
    <g id="line2d_16">
     <path d="M 537.427812 258.839759 
L 542.923165 260.424662 
" style="fill: none; stroke: #000000; stroke-width: 0.8; stroke-linecap: square"/>
    </g>
    <g id="text_16">
     <!-- $\mathdefault{−2}$ -->
     <g transform="translate(551.209479 263.691343)scale(0.1 -0.1)">
      <use xlink:href="#CMSY10-0" transform="scale(0.996264)"/>
      <use xlink:href="#CMR17-32" transform="translate(77.487468 0)scale(0.996264)"/>
     </g>
    </g>
   </g>
   <g id="xtick_14">
    <g id="line2d_17">
     <path d="M 538.728336 230.133226 
L 544.266881 231.695646 
" style="fill: none; stroke: #000000; stroke-width: 0.8; stroke-linecap: square"/>
    </g>
    <g id="text_17">
     <!-- $\mathdefault{0}$ -->
     <g transform="translate(556.534536 235.014173)scale(0.1 -0.1)">
      <use xlink:href="#CMR17-30" transform="scale(0.996264)"/>
     </g>
    </g>
   </g>
   <g id="xtick_15">
    <g id="line2d_18">
     <path d="M 540.04869 200.988972 
L 545.631111 202.528036 
" style="fill: none; stroke: #000000; stroke-width: 0.8; stroke-linecap: square"/>
    </g>
    <g id="text_18">
     <!-- $\mathdefault{2}$ -->
     <g transform="translate(558.007306 205.900419)scale(0.1 -0.1)">
      <use xlink:href="#CMR17-32" transform="scale(0.996264)"/>
     </g>
    </g>
   </g>
   <g id="xtick_16">
    <g id="line2d_19">
     <path d="M 541.389332 171.396908 
L 547.016328 172.911711 
" style="fill: none; stroke: #000000; stroke-width: 0.8; stroke-linecap: square"/>
    </g>
    <g id="text_19">
     <!-- $\mathdefault{4}$ -->
     <g transform="translate(559.50267 176.340036)scale(0.1 -0.1)">
      <use xlink:href="#CMR17-34" transform="scale(0.996264)"/>
     </g>
    </g>
   </g>
   <g id="xtick_17">
    <g id="line2d_20">
     <path d="M 542.750733 141.346634 
L 548.423021 142.836236 
" style="fill: none; stroke: #000000; stroke-width: 0.8; stroke-linecap: square"/>
    </g>
    <g id="text_20">
     <!-- $\mathdefault{6}$ -->
     <g transform="translate(561.021151 146.322667)scale(0.1 -0.1)">
      <use xlink:href="#CMR17-36" transform="scale(0.996264)"/>
     </g>
    </g>
   </g>
   <g id="xtick_18">
    <g id="line2d_21">
     <path d="M 544.133378 110.827424 
L 549.851692 112.290849 
" style="fill: none; stroke: #000000; stroke-width: 0.8; stroke-linecap: square"/>
    </g>
    <g id="text_21">
     <!-- $\mathdefault{8}$ -->
     <g transform="translate(562.563289 115.837632)scale(0.1 -0.1)">
      <use xlink:href="#CMR17-38" transform="scale(0.996264)"/>
     </g>
    </g>
   </g>
  </g>
  <g id="axes_1">
   <g id="line2d_22">
    <path d="M 260.363331 219.477694 
L 314.678435 223.361753 
" clip-path="url(#p4d933101fa)" style="fill: none; stroke: #ff0029; stroke-width: 1.5; stroke-linecap: square"/>
    <defs>
     <path id="m046fdfb442" d="M 0 1 
C 0.265203 1 0.51958 0.894634 0.707107 0.707107 
C 0.894634 0.51958 1 0.265203 1 0 
C 1 -0.265203 0.894634 -0.51958 0.707107 -0.707107 
C 0.51958 -0.894634 0.265203 -1 0 -1 
C -0.265203 -1 -0.51958 -0.894634 -0.707107 -0.707107 
C -0.894634 -0.51958 -1 -0.265203 -1 0 
C -1 0.265203 -0.894634 0.51958 -0.707107 0.707107 
C -0.51958 0.894634 -0.265203 1 0 1 
z
" style="stroke: #ff0029"/>
    </defs>
    <g clip-path="url(#p4d933101fa)">
     <use xlink:href="#m046fdfb442" x="260.363331" y="219.477694" style="fill: #ff0029; stroke: #ff0029"/>
     <use xlink:href="#m046fdfb442" x="314.678435" y="223.361753" style="fill: #ff0029; stroke: #ff0029"/>
    </g>
   </g>
   <g id="line2d_23">
    <path d="M 314.678435 223.361753 
L 355.428843 226.946486 
" clip-path="url(#p4d933101fa)" style="fill: none; stroke: #ff0600; stroke-width: 1.5; stroke-linecap: square"/>
    <defs>
     <path id="m4d0fe47438" d="M 0 1 
C 0.265203 1 0.51958 0.894634 0.707107 0.707107 
C 0.894634 0.51958 1 0.265203 1 0 
C 1 -0.265203 0.894634 -0.51958 0.707107 -0.707107 
C 0.51958 -0.894634 0.265203 -1 0 -1 
C -0.265203 -1 -0.51958 -0.894634 -0.707107 -0.707107 
C -0.894634 -0.51958 -1 -0.265203 -1 0 
C -1 0.265203 -0.894634 0.51958 -0.707107 0.707107 
C -0.51958 0.894634 -0.265203 1 0 1 
z
" style="stroke: #ff0600"/>
    </defs>
    <g clip-path="url(#p4d933101fa)">
     <use xlink:href="#m4d0fe47438" x="314.678435" y="223.361753" style="fill: #ff0600; stroke: #ff0600"/>
     <use xlink:href="#m4d0fe47438" x="355.428843" y="226.946486" style="fill: #ff0600; stroke: #ff0600"/>
    </g>
   </g>
   <g id="line2d_24">
    <path d="M 355.428843 226.946486 
L 384.690824 229.986946 
" clip-path="url(#p4d933101fa)" style="fill: none; stroke: #ff3600; stroke-width: 1.5; stroke-linecap: square"/>
    <defs>
     <path id="mbed4755bef" d="M 0 1 
C 0.265203 1 0.51958 0.894634 0.707107 0.707107 
C 0.894634 0.51958 1 0.265203 1 0 
C 1 -0.265203 0.894634 -0.51958 0.707107 -0.707107 
C 0.51958 -0.894634 0.265203 -1 0 -1 
C -0.265203 -1 -0.51958 -0.894634 -0.707107 -0.707107 
C -0.894634 -0.51958 -1 -0.265203 -1 0 
C -1 0.265203 -0.894634 0.51958 -0.707107 0.707107 
C -0.51958 0.894634 -0.265203 1 0 1 
z
" style="stroke: #ff3600"/>
    </defs>
    <g clip-path="url(#p4d933101fa)">
     <use xlink:href="#mbed4755bef" x="355.428843" y="226.946486" style="fill: #ff3600; stroke: #ff3600"/>
     <use xlink:href="#mbed4755bef" x="384.690824" y="229.986946" style="fill: #ff3600; stroke: #ff3600"/>
    </g>
   </g>
   <g id="line2d_25">
    <path d="M 384.690824 229.986946 
L 405.787229 232.471978 
" clip-path="url(#p4d933101fa)" style="fill: none; stroke: #ff6500; stroke-width: 1.5; stroke-linecap: square"/>
    <defs>
     <path id="m8711f6eebe" d="M 0 1 
C 0.265203 1 0.51958 0.894634 0.707107 0.707107 
C 0.894634 0.51958 1 0.265203 1 0 
C 1 -0.265203 0.894634 -0.51958 0.707107 -0.707107 
C 0.51958 -0.894634 0.265203 -1 0 -1 
C -0.265203 -1 -0.51958 -0.894634 -0.707107 -0.707107 
C -0.894634 -0.51958 -1 -0.265203 -1 0 
C -1 0.265203 -0.894634 0.51958 -0.707107 0.707107 
C -0.51958 0.894634 -0.265203 1 0 1 
z
" style="stroke: #ff6500"/>
    </defs>
    <g clip-path="url(#p4d933101fa)">
     <use xlink:href="#m8711f6eebe" x="384.690824" y="229.986946" style="fill: #ff6500; stroke: #ff6500"/>
     <use xlink:href="#m8711f6eebe" x="405.787229" y="232.471978" style="fill: #ff6500; stroke: #ff6500"/>
    </g>
   </g>
   <g id="line2d_26">
    <path d="M 405.787229 232.471978 
L 421.296231 234.467002 
" clip-path="url(#p4d933101fa)" style="fill: none; stroke: #ff9500; stroke-width: 1.5; stroke-linecap: square"/>
    <defs>
     <path id="md45789f2ad" d="M 0 1 
C 0.265203 1 0.51958 0.894634 0.707107 0.707107 
C 0.894634 0.51958 1 0.265203 1 0 
C 1 -0.265203 0.894634 -0.51958 0.707107 -0.707107 
C 0.51958 -0.894634 0.265203 -1 0 -1 
C -0.265203 -1 -0.51958 -0.894634 -0.707107 -0.707107 
C -0.894634 -0.51958 -1 -0.265203 -1 0 
C -1 0.265203 -0.894634 0.51958 -0.707107 0.707107 
C -0.51958 0.894634 -0.265203 1 0 1 
z
" style="stroke: #ff9500"/>
    </defs>
    <g clip-path="url(#p4d933101fa)">
     <use xlink:href="#md45789f2ad" x="405.787229" y="232.471978" style="fill: #ff9500; stroke: #ff9500"/>
     <use xlink:href="#md45789f2ad" x="421.296231" y="234.467002" style="fill: #ff9500; stroke: #ff9500"/>
    </g>
   </g>
   <g id="line2d_27">
    <path d="M 421.296231 234.467002 
L 432.950526 236.120666 
" clip-path="url(#p4d933101fa)" style="fill: none; stroke: #ffc400; stroke-width: 1.5; stroke-linecap: square"/>
    <defs>
     <path id="mb70e5fdd70" d="M 0 1 
C 0.265203 1 0.51958 0.894634 0.707107 0.707107 
C 0.894634 0.51958 1 0.265203 1 0 
C 1 -0.265203 0.894634 -0.51958 0.707107 -0.707107 
C 0.51958 -0.894634 0.265203 -1 0 -1 
C -0.265203 -1 -0.51958 -0.894634 -0.707107 -0.707107 
C -0.894634 -0.51958 -1 -0.265203 -1 0 
C -1 0.265203 -0.894634 0.51958 -0.707107 0.707107 
C -0.51958 0.894634 -0.265203 1 0 1 
z
" style="stroke: #ffc400"/>
    </defs>
    <g clip-path="url(#p4d933101fa)">
     <use xlink:href="#mb70e5fdd70" x="421.296231" y="234.467002" style="fill: #ffc400; stroke: #ffc400"/>
     <use xlink:href="#mb70e5fdd70" x="432.950526" y="236.120666" style="fill: #ffc400; stroke: #ffc400"/>
    </g>
   </g>
   <g id="line2d_28">
    <path d="M 432.950526 236.120666 
L 441.873378 237.469343 
" clip-path="url(#p4d933101fa)" style="fill: none; stroke: #fff400; stroke-width: 1.5; stroke-linecap: square"/>
    <defs>
     <path id="m8e444efddb" d="M 0 1 
C 0.265203 1 0.51958 0.894634 0.707107 0.707107 
C 0.894634 0.51958 1 0.265203 1 0 
C 1 -0.265203 0.894634 -0.51958 0.707107 -0.707107 
C 0.51958 -0.894634 0.265203 -1 0 -1 
C -0.265203 -1 -0.51958 -0.894634 -0.707107 -0.707107 
C -0.894634 -0.51958 -1 -0.265203 -1 0 
C -1 0.265203 -0.894634 0.51958 -0.707107 0.707107 
C -0.51958 0.894634 -0.265203 1 0 1 
z
" style="stroke: #fff400"/>
    </defs>
    <g clip-path="url(#p4d933101fa)">
     <use xlink:href="#m8e444efddb" x="432.950526" y="236.120666" style="fill: #fff400; stroke: #fff400"/>
     <use xlink:href="#m8e444efddb" x="441.873378" y="237.469343" style="fill: #fff400; stroke: #fff400"/>
    </g>
   </g>
   <g id="line2d_29">
    <path d="M 441.873378 237.469343 
L 448.879533 238.564955 
" clip-path="url(#p4d933101fa)" style="fill: none; stroke: #dbff00; stroke-width: 1.5; stroke-linecap: square"/>
    <defs>
     <path id="m440fdde39c" d="M 0 1 
C 0.265203 1 0.51958 0.894634 0.707107 0.707107 
C 0.894634 0.51958 1 0.265203 1 0 
C 1 -0.265203 0.894634 -0.51958 0.707107 -0.707107 
C 0.51958 -0.894634 0.265203 -1 0 -1 
C -0.265203 -1 -0.51958 -0.894634 -0.707107 -0.707107 
C -0.894634 -0.51958 -1 -0.265203 -1 0 
C -1 0.265203 -0.894634 0.51958 -0.707107 0.707107 
C -0.51958 0.894634 -0.265203 1 0 1 
z
" style="stroke: #dbff00"/>
    </defs>
    <g clip-path="url(#p4d933101fa)">
     <use xlink:href="#m440fdde39c" x="441.873378" y="237.469343" style="fill: #dbff00; stroke: #dbff00"/>
     <use xlink:href="#m440fdde39c" x="448.879533" y="238.564955" style="fill: #dbff00; stroke: #dbff00"/>
    </g>
   </g>
   <g id="line2d_30">
    <path d="M 448.879533 238.564955 
L 454.473308 239.490575 
" clip-path="url(#p4d933101fa)" style="fill: none; stroke: #abff00; stroke-width: 1.5; stroke-linecap: square"/>
    <defs>
     <path id="m3091481371" d="M 0 1 
C 0.265203 1 0.51958 0.894634 0.707107 0.707107 
C 0.894634 0.51958 1 0.265203 1 0 
C 1 -0.265203 0.894634 -0.51958 0.707107 -0.707107 
C 0.51958 -0.894634 0.265203 -1 0 -1 
C -0.265203 -1 -0.51958 -0.894634 -0.707107 -0.707107 
C -0.894634 -0.51958 -1 -0.265203 -1 0 
C -1 0.265203 -0.894634 0.51958 -0.707107 0.707107 
C -0.51958 0.894634 -0.265203 1 0 1 
z
" style="stroke: #abff00"/>
    </defs>
    <g clip-path="url(#p4d933101fa)">
     <use xlink:href="#m3091481371" x="448.879533" y="238.564955" style="fill: #abff00; stroke: #abff00"/>
     <use xlink:href="#m3091481371" x="454.473308" y="239.490575" style="fill: #abff00; stroke: #abff00"/>
    </g>
   </g>
   <g id="line2d_31">
    <path d="M 454.473308 239.490575 
L 458.988217 240.263628 
" clip-path="url(#p4d933101fa)" style="fill: none; stroke: #7cff00; stroke-width: 1.5; stroke-linecap: square"/>
    <defs>
     <path id="mffb1914416" d="M 0 1 
C 0.265203 1 0.51958 0.894634 0.707107 0.707107 
C 0.894634 0.51958 1 0.265203 1 0 
C 1 -0.265203 0.894634 -0.51958 0.707107 -0.707107 
C 0.51958 -0.894634 0.265203 -1 0 -1 
C -0.265203 -1 -0.51958 -0.894634 -0.707107 -0.707107 
C -0.894634 -0.51958 -1 -0.265203 -1 0 
C -1 0.265203 -0.894634 0.51958 -0.707107 0.707107 
C -0.51958 0.894634 -0.265203 1 0 1 
z
" style="stroke: #7cff00"/>
    </defs>
    <g clip-path="url(#p4d933101fa)">
     <use xlink:href="#mffb1914416" x="454.473308" y="239.490575" style="fill: #7cff00; stroke: #7cff00"/>
     <use xlink:href="#mffb1914416" x="458.988217" y="240.263628" style="fill: #7cff00; stroke: #7cff00"/>
    </g>
   </g>
   <g id="line2d_32">
    <path d="M 458.988217 240.263628 
L 462.707168 240.899474 
" clip-path="url(#p4d933101fa)" style="fill: none; stroke: #4cff00; stroke-width: 1.5; stroke-linecap: square"/>
    <defs>
     <path id="mccc47e6cf6" d="M 0 1 
C 0.265203 1 0.51958 0.894634 0.707107 0.707107 
C 0.894634 0.51958 1 0.265203 1 0 
C 1 -0.265203 0.894634 -0.51958 0.707107 -0.707107 
C 0.51958 -0.894634 0.265203 -1 0 -1 
C -0.265203 -1 -0.51958 -0.894634 -0.707107 -0.707107 
C -0.894634 -0.51958 -1 -0.265203 -1 0 
C -1 0.265203 -0.894634 0.51958 -0.707107 0.707107 
C -0.51958 0.894634 -0.265203 1 0 1 
z
" style="stroke: #4cff00"/>
    </defs>
    <g clip-path="url(#p4d933101fa)">
     <use xlink:href="#mccc47e6cf6" x="458.988217" y="240.263628" style="fill: #4cff00; stroke: #4cff00"/>
     <use xlink:href="#mccc47e6cf6" x="462.707168" y="240.899474" style="fill: #4cff00; stroke: #4cff00"/>
    </g>
   </g>
   <g id="line2d_33">
    <path d="M 462.707168 240.899474 
L 465.76814 241.438279 
" clip-path="url(#p4d933101fa)" style="fill: none; stroke: #1dff00; stroke-width: 1.5; stroke-linecap: square"/>
    <defs>
     <path id="me8389aa8d2" d="M 0 1 
C 0.265203 1 0.51958 0.894634 0.707107 0.707107 
C 0.894634 0.51958 1 0.265203 1 0 
C 1 -0.265203 0.894634 -0.51958 0.707107 -0.707107 
C 0.51958 -0.894634 0.265203 -1 0 -1 
C -0.265203 -1 -0.51958 -0.894634 -0.707107 -0.707107 
C -0.894634 -0.51958 -1 -0.265203 -1 0 
C -1 0.265203 -0.894634 0.51958 -0.707107 0.707107 
C -0.51958 0.894634 -0.265203 1 0 1 
z
" style="stroke: #1dff00"/>
    </defs>
    <g clip-path="url(#p4d933101fa)">
     <use xlink:href="#me8389aa8d2" x="462.707168" y="240.899474" style="fill: #1dff00; stroke: #1dff00"/>
     <use xlink:href="#me8389aa8d2" x="465.76814" y="241.438279" style="fill: #1dff00; stroke: #1dff00"/>
    </g>
   </g>
   <g id="line2d_34">
    <path d="M 465.76814 241.438279 
L 468.355501 241.923281 
" clip-path="url(#p4d933101fa)" style="fill: none; stroke: #00ff13; stroke-width: 1.5; stroke-linecap: square"/>
    <defs>
     <path id="m75f641ecbd" d="M 0 1 
C 0.265203 1 0.51958 0.894634 0.707107 0.707107 
C 0.894634 0.51958 1 0.265203 1 0 
C 1 -0.265203 0.894634 -0.51958 0.707107 -0.707107 
C 0.51958 -0.894634 0.265203 -1 0 -1 
C -0.265203 -1 -0.51958 -0.894634 -0.707107 -0.707107 
C -0.894634 -0.51958 -1 -0.265203 -1 0 
C -1 0.265203 -0.894634 0.51958 -0.707107 0.707107 
C -0.51958 0.894634 -0.265203 1 0 1 
z
" style="stroke: #00ff13"/>
    </defs>
    <g clip-path="url(#p4d933101fa)">
     <use xlink:href="#m75f641ecbd" x="465.76814" y="241.438279" style="fill: #00ff13; stroke: #00ff13"/>
     <use xlink:href="#m75f641ecbd" x="468.355501" y="241.923281" style="fill: #00ff13; stroke: #00ff13"/>
    </g>
   </g>
   <g id="line2d_35">
    <path d="M 468.355501 241.923281 
L 470.514133 242.341787 
" clip-path="url(#p4d933101fa)" style="fill: none; stroke: #00ff42; stroke-width: 1.5; stroke-linecap: square"/>
    <defs>
     <path id="m0e9ac9d666" d="M 0 1 
C 0.265203 1 0.51958 0.894634 0.707107 0.707107 
C 0.894634 0.51958 1 0.265203 1 0 
C 1 -0.265203 0.894634 -0.51958 0.707107 -0.707107 
C 0.51958 -0.894634 0.265203 -1 0 -1 
C -0.265203 -1 -0.51958 -0.894634 -0.707107 -0.707107 
C -0.894634 -0.51958 -1 -0.265203 -1 0 
C -1 0.265203 -0.894634 0.51958 -0.707107 0.707107 
C -0.51958 0.894634 -0.265203 1 0 1 
z
" style="stroke: #00ff42"/>
    </defs>
    <g clip-path="url(#p4d933101fa)">
     <use xlink:href="#m0e9ac9d666" x="468.355501" y="241.923281" style="fill: #00ff42; stroke: #00ff42"/>
     <use xlink:href="#m0e9ac9d666" x="470.514133" y="242.341787" style="fill: #00ff42; stroke: #00ff42"/>
    </g>
   </g>
   <g id="line2d_36">
    <path d="M 470.514133 242.341787 
L 457.845488 195.965254 
" clip-path="url(#p4d933101fa)" style="fill: none; stroke: #00ff71; stroke-width: 1.5; stroke-linecap: square"/>
    <defs>
     <path id="m671a4d8d27" d="M 0 1 
C 0.265203 1 0.51958 0.894634 0.707107 0.707107 
C 0.894634 0.51958 1 0.265203 1 0 
C 1 -0.265203 0.894634 -0.51958 0.707107 -0.707107 
C 0.51958 -0.894634 0.265203 -1 0 -1 
C -0.265203 -1 -0.51958 -0.894634 -0.707107 -0.707107 
C -0.894634 -0.51958 -1 -0.265203 -1 0 
C -1 0.265203 -0.894634 0.51958 -0.707107 0.707107 
C -0.51958 0.894634 -0.265203 1 0 1 
z
" style="stroke: #00ff71"/>
    </defs>
    <g clip-path="url(#p4d933101fa)">
     <use xlink:href="#m671a4d8d27" x="470.514133" y="242.341787" style="fill: #00ff71; stroke: #00ff71"/>
     <use xlink:href="#m671a4d8d27" x="457.845488" y="195.965254" style="fill: #00ff71; stroke: #00ff71"/>
    </g>
   </g>
   <g id="line2d_37">
    <path d="M 457.845488 195.965254 
L 456.010776 196.319491 
" clip-path="url(#p4d933101fa)" style="fill: none; stroke: #00ffa1; stroke-width: 1.5; stroke-linecap: square"/>
    <defs>
     <path id="me6ea5df4c3" d="M 0 1 
C 0.265203 1 0.51958 0.894634 0.707107 0.707107 
C 0.894634 0.51958 1 0.265203 1 0 
C 1 -0.265203 0.894634 -0.51958 0.707107 -0.707107 
C 0.51958 -0.894634 0.265203 -1 0 -1 
C -0.265203 -1 -0.51958 -0.894634 -0.707107 -0.707107 
C -0.894634 -0.51958 -1 -0.265203 -1 0 
C -1 0.265203 -0.894634 0.51958 -0.707107 0.707107 
C -0.51958 0.894634 -0.265203 1 0 1 
z
" style="stroke: #00ffa1"/>
    </defs>
    <g clip-path="url(#p4d933101fa)">
     <use xlink:href="#me6ea5df4c3" x="457.845488" y="195.965254" style="fill: #00ffa1; stroke: #00ffa1"/>
     <use xlink:href="#me6ea5df4c3" x="456.010776" y="196.319491" style="fill: #00ffa1; stroke: #00ffa1"/>
    </g>
   </g>
   <g id="line2d_38">
    <path d="M 456.010776 196.319491 
L 453.809928 196.718236 
" clip-path="url(#p4d933101fa)" style="fill: none; stroke: #00ffd0; stroke-width: 1.5; stroke-linecap: square"/>
    <defs>
     <path id="mba1df68d87" d="M 0 1 
C 0.265203 1 0.51958 0.894634 0.707107 0.707107 
C 0.894634 0.51958 1 0.265203 1 0 
C 1 -0.265203 0.894634 -0.51958 0.707107 -0.707107 
C 0.51958 -0.894634 0.265203 -1 0 -1 
C -0.265203 -1 -0.51958 -0.894634 -0.707107 -0.707107 
C -0.894634 -0.51958 -1 -0.265203 -1 0 
C -1 0.265203 -0.894634 0.51958 -0.707107 0.707107 
C -0.51958 0.894634 -0.265203 1 0 1 
z
" style="stroke: #00ffd0"/>
    </defs>
    <g clip-path="url(#p4d933101fa)">
     <use xlink:href="#mba1df68d87" x="456.010776" y="196.319491" style="fill: #00ffd0; stroke: #00ffd0"/>
     <use xlink:href="#mba1df68d87" x="453.809928" y="196.718236" style="fill: #00ffd0; stroke: #00ffd0"/>
    </g>
   </g>
   <g id="line2d_39">
    <path d="M 453.809928 196.718236 
L 451.156713 197.167928 
" clip-path="url(#p4d933101fa)" style="fill: none; stroke: #00ffff; stroke-width: 1.5; stroke-linecap: square"/>
    <defs>
     <path id="m3bc990b11c" d="M 0 1 
C 0.265203 1 0.51958 0.894634 0.707107 0.707107 
C 0.894634 0.51958 1 0.265203 1 0 
C 1 -0.265203 0.894634 -0.51958 0.707107 -0.707107 
C 0.51958 -0.894634 0.265203 -1 0 -1 
C -0.265203 -1 -0.51958 -0.894634 -0.707107 -0.707107 
C -0.894634 -0.51958 -1 -0.265203 -1 0 
C -1 0.265203 -0.894634 0.51958 -0.707107 0.707107 
C -0.51958 0.894634 -0.265203 1 0 1 
z
" style="stroke: #00ffff"/>
    </defs>
    <g clip-path="url(#p4d933101fa)">
     <use xlink:href="#m3bc990b11c" x="453.809928" y="196.718236" style="fill: #00ffff; stroke: #00ffff"/>
     <use xlink:href="#m3bc990b11c" x="451.156713" y="197.167928" style="fill: #00ffff; stroke: #00ffff"/>
    </g>
   </g>
   <g id="line2d_40">
    <path d="M 451.156713 197.167928 
L 447.912494 197.68001 
" clip-path="url(#p4d933101fa)" style="fill: none; stroke: #00cfff; stroke-width: 1.5; stroke-linecap: square"/>
    <defs>
     <path id="m0a8736f2df" d="M 0 1 
C 0.265203 1 0.51958 0.894634 0.707107 0.707107 
C 0.894634 0.51958 1 0.265203 1 0 
C 1 -0.265203 0.894634 -0.51958 0.707107 -0.707107 
C 0.51958 -0.894634 0.265203 -1 0 -1 
C -0.265203 -1 -0.51958 -0.894634 -0.707107 -0.707107 
C -0.894634 -0.51958 -1 -0.265203 -1 0 
C -1 0.265203 -0.894634 0.51958 -0.707107 0.707107 
C -0.51958 0.894634 -0.265203 1 0 1 
z
" style="stroke: #00cfff"/>
    </defs>
    <g clip-path="url(#p4d933101fa)">
     <use xlink:href="#m0a8736f2df" x="451.156713" y="197.167928" style="fill: #00cfff; stroke: #00cfff"/>
     <use xlink:href="#m0a8736f2df" x="447.912494" y="197.68001" style="fill: #00cfff; stroke: #00cfff"/>
    </g>
   </g>
   <g id="line2d_41">
    <path d="M 447.912494 197.68001 
L 443.902879 198.268168 
" clip-path="url(#p4d933101fa)" style="fill: none; stroke: #009fff; stroke-width: 1.5; stroke-linecap: square"/>
    <defs>
     <path id="m257cfcf59d" d="M 0 1 
C 0.265203 1 0.51958 0.894634 0.707107 0.707107 
C 0.894634 0.51958 1 0.265203 1 0 
C 1 -0.265203 0.894634 -0.51958 0.707107 -0.707107 
C 0.51958 -0.894634 0.265203 -1 0 -1 
C -0.265203 -1 -0.51958 -0.894634 -0.707107 -0.707107 
C -0.894634 -0.51958 -1 -0.265203 -1 0 
C -1 0.265203 -0.894634 0.51958 -0.707107 0.707107 
C -0.51958 0.894634 -0.265203 1 0 1 
z
" style="stroke: #009fff"/>
    </defs>
    <g clip-path="url(#p4d933101fa)">
     <use xlink:href="#m257cfcf59d" x="447.912494" y="197.68001" style="fill: #009fff; stroke: #009fff"/>
     <use xlink:href="#m257cfcf59d" x="443.902879" y="198.268168" style="fill: #009fff; stroke: #009fff"/>
    </g>
   </g>
   <g id="line2d_42">
    <path d="M 443.902879 198.268168 
L 438.858403 198.949604 
" clip-path="url(#p4d933101fa)" style="fill: none; stroke: #006fff; stroke-width: 1.5; stroke-linecap: square"/>
    <defs>
     <path id="m3d40685e6a" d="M 0 1 
C 0.265203 1 0.51958 0.894634 0.707107 0.707107 
C 0.894634 0.51958 1 0.265203 1 0 
C 1 -0.265203 0.894634 -0.51958 0.707107 -0.707107 
C 0.51958 -0.894634 0.265203 -1 0 -1 
C -0.265203 -1 -0.51958 -0.894634 -0.707107 -0.707107 
C -0.894634 -0.51958 -1 -0.265203 -1 0 
C -1 0.265203 -0.894634 0.51958 -0.707107 0.707107 
C -0.51958 0.894634 -0.265203 1 0 1 
z
" style="stroke: #006fff"/>
    </defs>
    <g clip-path="url(#p4d933101fa)">
     <use xlink:href="#m3d40685e6a" x="443.902879" y="198.268168" style="fill: #006fff; stroke: #006fff"/>
     <use xlink:href="#m3d40685e6a" x="438.858403" y="198.949604" style="fill: #006fff; stroke: #006fff"/>
    </g>
   </g>
   <g id="line2d_43">
    <path d="M 438.858403 198.949604 
L 432.523551 199.75337 
" clip-path="url(#p4d933101fa)" style="fill: none; stroke: #0040ff; stroke-width: 1.5; stroke-linecap: square"/>
    <defs>
     <path id="mab9c689ec6" d="M 0 1 
C 0.265203 1 0.51958 0.894634 0.707107 0.707107 
C 0.894634 0.51958 1 0.265203 1 0 
C 1 -0.265203 0.894634 -0.51958 0.707107 -0.707107 
C 0.51958 -0.894634 0.265203 -1 0 -1 
C -0.265203 -1 -0.51958 -0.894634 -0.707107 -0.707107 
C -0.894634 -0.51958 -1 -0.265203 -1 0 
C -1 0.265203 -0.894634 0.51958 -0.707107 0.707107 
C -0.51958 0.894634 -0.265203 1 0 1 
z
" style="stroke: #0040ff"/>
    </defs>
    <g clip-path="url(#p4d933101fa)">
     <use xlink:href="#mab9c689ec6" x="438.858403" y="198.949604" style="fill: #0040ff; stroke: #0040ff"/>
     <use xlink:href="#mab9c689ec6" x="432.523551" y="199.75337" style="fill: #0040ff; stroke: #0040ff"/>
    </g>
   </g>
   <g id="line2d_44">
    <path d="M 432.523551 199.75337 
L 424.25941 200.700848 
" clip-path="url(#p4d933101fa)" style="fill: none; stroke: #0010ff; stroke-width: 1.5; stroke-linecap: square"/>
    <defs>
     <path id="mfc1ca14a61" d="M 0 1 
C 0.265203 1 0.51958 0.894634 0.707107 0.707107 
C 0.894634 0.51958 1 0.265203 1 0 
C 1 -0.265203 0.894634 -0.51958 0.707107 -0.707107 
C 0.51958 -0.894634 0.265203 -1 0 -1 
C -0.265203 -1 -0.51958 -0.894634 -0.707107 -0.707107 
C -0.894634 -0.51958 -1 -0.265203 -1 0 
C -1 0.265203 -0.894634 0.51958 -0.707107 0.707107 
C -0.51958 0.894634 -0.265203 1 0 1 
z
" style="stroke: #0010ff"/>
    </defs>
    <g clip-path="url(#p4d933101fa)">
     <use xlink:href="#mfc1ca14a61" x="432.523551" y="199.75337" style="fill: #0010ff; stroke: #0010ff"/>
     <use xlink:href="#mfc1ca14a61" x="424.25941" y="200.700848" style="fill: #0010ff; stroke: #0010ff"/>
    </g>
   </g>
   <g id="line2d_45">
    <path d="M 424.25941 200.700848 
L 413.443097 201.853181 
" clip-path="url(#p4d933101fa)" style="fill: none; stroke: #2000ff; stroke-width: 1.5; stroke-linecap: square"/>
    <defs>
     <path id="m009623280b" d="M 0 1 
C 0.265203 1 0.51958 0.894634 0.707107 0.707107 
C 0.894634 0.51958 1 0.265203 1 0 
C 1 -0.265203 0.894634 -0.51958 0.707107 -0.707107 
C 0.51958 -0.894634 0.265203 -1 0 -1 
C -0.265203 -1 -0.51958 -0.894634 -0.707107 -0.707107 
C -0.894634 -0.51958 -1 -0.265203 -1 0 
C -1 0.265203 -0.894634 0.51958 -0.707107 0.707107 
C -0.51958 0.894634 -0.265203 1 0 1 
z
" style="stroke: #2000ff"/>
    </defs>
    <g clip-path="url(#p4d933101fa)">
     <use xlink:href="#m009623280b" x="424.25941" y="200.700848" style="fill: #2000ff; stroke: #2000ff"/>
     <use xlink:href="#m009623280b" x="413.443097" y="201.853181" style="fill: #2000ff; stroke: #2000ff"/>
    </g>
   </g>
   <g id="line2d_46">
    <path d="M 413.443097 201.853181 
L 398.88098 203.308489 
" clip-path="url(#p4d933101fa)" style="fill: none; stroke: #5000ff; stroke-width: 1.5; stroke-linecap: square"/>
    <defs>
     <path id="m14fbc8d22d" d="M 0 1 
C 0.265203 1 0.51958 0.894634 0.707107 0.707107 
C 0.894634 0.51958 1 0.265203 1 0 
C 1 -0.265203 0.894634 -0.51958 0.707107 -0.707107 
C 0.51958 -0.894634 0.265203 -1 0 -1 
C -0.265203 -1 -0.51958 -0.894634 -0.707107 -0.707107 
C -0.894634 -0.51958 -1 -0.265203 -1 0 
C -1 0.265203 -0.894634 0.51958 -0.707107 0.707107 
C -0.51958 0.894634 -0.265203 1 0 1 
z
" style="stroke: #5000ff"/>
    </defs>
    <g clip-path="url(#p4d933101fa)">
     <use xlink:href="#m14fbc8d22d" x="413.443097" y="201.853181" style="fill: #5000ff; stroke: #5000ff"/>
     <use xlink:href="#m14fbc8d22d" x="398.88098" y="203.308489" style="fill: #5000ff; stroke: #5000ff"/>
    </g>
   </g>
   <g id="line2d_47">
    <path d="M 398.88098 203.308489 
L 378.938378 205.161867 
" clip-path="url(#p4d933101fa)" style="fill: none; stroke: #8000ff; stroke-width: 1.5; stroke-linecap: square"/>
    <defs>
     <path id="m3e5565a991" d="M 0 1 
C 0.265203 1 0.51958 0.894634 0.707107 0.707107 
C 0.894634 0.51958 1 0.265203 1 0 
C 1 -0.265203 0.894634 -0.51958 0.707107 -0.707107 
C 0.51958 -0.894634 0.265203 -1 0 -1 
C -0.265203 -1 -0.51958 -0.894634 -0.707107 -0.707107 
C -0.894634 -0.51958 -1 -0.265203 -1 0 
C -1 0.265203 -0.894634 0.51958 -0.707107 0.707107 
C -0.51958 0.894634 -0.265203 1 0 1 
z
" style="stroke: #8000ff"/>
    </defs>
    <g clip-path="url(#p4d933101fa)">
     <use xlink:href="#m3e5565a991" x="398.88098" y="203.308489" style="fill: #8000ff; stroke: #8000ff"/>
     <use xlink:href="#m3e5565a991" x="378.938378" y="205.161867" style="fill: #8000ff; stroke: #8000ff"/>
    </g>
   </g>
   <g id="line2d_48">
    <path d="M 378.938378 205.161867 
L 351.049092 207.619015 
" clip-path="url(#p4d933101fa)" style="fill: none; stroke: #af00ff; stroke-width: 1.5; stroke-linecap: square"/>
    <defs>
     <path id="mca78c4777e" d="M 0 1 
C 0.265203 1 0.51958 0.894634 0.707107 0.707107 
C 0.894634 0.51958 1 0.265203 1 0 
C 1 -0.265203 0.894634 -0.51958 0.707107 -0.707107 
C 0.51958 -0.894634 0.265203 -1 0 -1 
C -0.265203 -1 -0.51958 -0.894634 -0.707107 -0.707107 
C -0.894634 -0.51958 -1 -0.265203 -1 0 
C -1 0.265203 -0.894634 0.51958 -0.707107 0.707107 
C -0.51958 0.894634 -0.265203 1 0 1 
z
" style="stroke: #af00ff"/>
    </defs>
    <g clip-path="url(#p4d933101fa)">
     <use xlink:href="#mca78c4777e" x="378.938378" y="205.161867" style="fill: #af00ff; stroke: #af00ff"/>
     <use xlink:href="#mca78c4777e" x="351.049092" y="207.619015" style="fill: #af00ff; stroke: #af00ff"/>
    </g>
   </g>
   <g id="line2d_49">
    <path d="M 351.049092 207.619015 
L 312.019488 210.897897 
" clip-path="url(#p4d933101fa)" style="fill: none; stroke: #df00ff; stroke-width: 1.5; stroke-linecap: square"/>
    <defs>
     <path id="m9151ceb4ff" d="M 0 1 
C 0.265203 1 0.51958 0.894634 0.707107 0.707107 
C 0.894634 0.51958 1 0.265203 1 0 
C 1 -0.265203 0.894634 -0.51958 0.707107 -0.707107 
C 0.51958 -0.894634 0.265203 -1 0 -1 
C -0.265203 -1 -0.51958 -0.894634 -0.707107 -0.707107 
C -0.894634 -0.51958 -1 -0.265203 -1 0 
C -1 0.265203 -0.894634 0.51958 -0.707107 0.707107 
C -0.51958 0.894634 -0.265203 1 0 1 
z
" style="stroke: #df00ff"/>
    </defs>
    <g clip-path="url(#p4d933101fa)">
     <use xlink:href="#m9151ceb4ff" x="351.049092" y="207.619015" style="fill: #df00ff; stroke: #df00ff"/>
     <use xlink:href="#m9151ceb4ff" x="312.019488" y="210.897897" style="fill: #df00ff; stroke: #df00ff"/>
    </g>
   </g>
   <g id="line2d_50">
    <path d="M 312.019488 210.897897 
L 259.692171 215.229282 
" clip-path="url(#p4d933101fa)" style="fill: none; stroke: #ff00ef; stroke-width: 1.5; stroke-linecap: square"/>
    <defs>
     <path id="m3f5ab9906c" d="M 0 1 
C 0.265203 1 0.51958 0.894634 0.707107 0.707107 
C 0.894634 0.51958 1 0.265203 1 0 
C 1 -0.265203 0.894634 -0.51958 0.707107 -0.707107 
C 0.51958 -0.894634 0.265203 -1 0 -1 
C -0.265203 -1 -0.51958 -0.894634 -0.707107 -0.707107 
C -0.894634 -0.51958 -1 -0.265203 -1 0 
C -1 0.265203 -0.894634 0.51958 -0.707107 0.707107 
C -0.51958 0.894634 -0.265203 1 0 1 
z
" style="stroke: #ff00ef"/>
    </defs>
    <g clip-path="url(#p4d933101fa)">
     <use xlink:href="#m3f5ab9906c" x="312.019488" y="210.897897" style="fill: #ff00ef; stroke: #ff00ef"/>
     <use xlink:href="#m3f5ab9906c" x="259.692171" y="215.229282" style="fill: #ff00ef; stroke: #ff00ef"/>
    </g>
   </g>
   <g id="line2d_51">
    <path d="M 208.901805 313.369825 
" clip-path="url(#p4d933101fa)" style="fill: none; stroke: #ffffff; stroke-width: 1.5; stroke-linecap: square"/>
   </g>
   <g id="line2d_52">
    <path d="M 201.924059 146.796232 
" clip-path="url(#p4d933101fa)" style="fill: none; stroke: #ffffff; stroke-width: 1.5; stroke-linecap: square"/>
   </g>
   <g id="line2d_53">
    <path d="M 326.593541 213.80184 
" clip-path="url(#p4d933101fa)" style="fill: none; stroke: #ffffff; stroke-width: 1.5; stroke-linecap: square"/>
   </g>
   <g id="line2d_54">
    <path d="M 324.988401 55.605495 
" clip-path="url(#p4d933101fa)" style="fill: none; stroke: #ffffff; stroke-width: 1.5; stroke-linecap: square"/>
   </g>
   <g id="line2d_55">
    <path d="M 409.485631 378.21561 
" clip-path="url(#p4d933101fa)" style="fill: none; stroke: #ffffff; stroke-width: 1.5; stroke-linecap: square"/>
   </g>
   <g id="line2d_56">
    <path d="M 411.538946 206.50116 
" clip-path="url(#p4d933101fa)" style="fill: none; stroke: #ffffff; stroke-width: 1.5; stroke-linecap: square"/>
   </g>
   <g id="line2d_57">
    <path d="M 517.219569 269.463351 
" clip-path="url(#p4d933101fa)" style="fill: none; stroke: #ffffff; stroke-width: 1.5; stroke-linecap: square"/>
   </g>
   <g id="line2d_58">
    <path d="M 523.752281 106.511917 
" clip-path="url(#p4d933101fa)" style="fill: none; stroke: #ffffff; stroke-width: 1.5; stroke-linecap: square"/>
   </g>
  </g>
 </g>
 <defs>
  <clipPath id="p4d933101fa">
   <rect x="154.8" y="10.8" width="410.4" height="410.4"/>
  </clipPath>
 </defs>
</svg>
